%TF.GenerationSoftware,KiCad,Pcbnew,8.0.2*%
%TF.CreationDate,2024-05-21T21:06:14-07:00*%
%TF.ProjectId,voltage ref calibration tool,766f6c74-6167-4652-9072-65662063616c,rev?*%
%TF.SameCoordinates,Original*%
%TF.FileFunction,Soldermask,Top*%
%TF.FilePolarity,Negative*%
%FSLAX46Y46*%
G04 Gerber Fmt 4.6, Leading zero omitted, Abs format (unit mm)*
G04 Created by KiCad (PCBNEW 8.0.2) date 2024-05-21 21:06:14*
%MOMM*%
%LPD*%
G01*
G04 APERTURE LIST*
G04 Aperture macros list*
%AMRoundRect*
0 Rectangle with rounded corners*
0 $1 Rounding radius*
0 $2 $3 $4 $5 $6 $7 $8 $9 X,Y pos of 4 corners*
0 Add a 4 corners polygon primitive as box body*
4,1,4,$2,$3,$4,$5,$6,$7,$8,$9,$2,$3,0*
0 Add four circle primitives for the rounded corners*
1,1,$1+$1,$2,$3*
1,1,$1+$1,$4,$5*
1,1,$1+$1,$6,$7*
1,1,$1+$1,$8,$9*
0 Add four rect primitives between the rounded corners*
20,1,$1+$1,$2,$3,$4,$5,0*
20,1,$1+$1,$4,$5,$6,$7,0*
20,1,$1+$1,$6,$7,$8,$9,0*
20,1,$1+$1,$8,$9,$2,$3,0*%
G04 Aperture macros list end*
%ADD10RoundRect,0.050000X0.900000X0.900000X-0.900000X0.900000X-0.900000X-0.900000X0.900000X-0.900000X0*%
%ADD11C,1.900000*%
%ADD12C,1.600000*%
%ADD13RoundRect,0.269231X0.430769X0.655769X-0.430769X0.655769X-0.430769X-0.655769X0.430769X-0.655769X0*%
%ADD14C,1.050000*%
%ADD15C,6.700000*%
%ADD16C,1.607998*%
%ADD17RoundRect,0.269231X-0.655769X0.430769X-0.655769X-0.430769X0.655769X-0.430769X0.655769X0.430769X0*%
%ADD18C,1.370000*%
%ADD19RoundRect,0.050000X0.760000X-0.760000X0.760000X0.760000X-0.760000X0.760000X-0.760000X-0.760000X0*%
%ADD20C,1.620000*%
%ADD21RoundRect,0.270833X0.479167X-0.379167X0.479167X0.379167X-0.479167X0.379167X-0.479167X-0.379167X0*%
%ADD22C,1.497000*%
%ADD23C,2.614600*%
%ADD24RoundRect,0.268868X0.443632X0.681132X-0.443632X0.681132X-0.443632X-0.681132X0.443632X-0.681132X0*%
%ADD25RoundRect,0.050000X-0.850000X-0.850000X0.850000X-0.850000X0.850000X0.850000X-0.850000X0.850000X0*%
%ADD26O,1.800000X1.800000*%
%ADD27RoundRect,0.270833X-0.379167X-0.479167X0.379167X-0.479167X0.379167X0.479167X-0.379167X0.479167X0*%
%ADD28RoundRect,0.271277X0.366223X0.503723X-0.366223X0.503723X-0.366223X-0.503723X0.366223X-0.503723X0*%
%ADD29RoundRect,0.050000X-0.600000X0.450000X-0.600000X-0.450000X0.600000X-0.450000X0.600000X0.450000X0*%
%ADD30RoundRect,0.269231X-0.430769X-0.655769X0.430769X-0.655769X0.430769X0.655769X-0.430769X0.655769X0*%
%ADD31RoundRect,0.105000X-0.245000X0.930000X-0.245000X-0.930000X0.245000X-0.930000X0.245000X0.930000X0*%
%ADD32RoundRect,0.050000X-0.650000X-0.800000X0.650000X-0.800000X0.650000X0.800000X-0.650000X0.800000X0*%
%ADD33RoundRect,0.050000X-1.000000X-0.800000X1.000000X-0.800000X1.000000X0.800000X-1.000000X0.800000X0*%
%ADD34O,3.800000X1.700000*%
%ADD35O,1.700000X3.800000*%
%ADD36RoundRect,0.270833X-0.479167X0.379167X-0.479167X-0.379167X0.479167X-0.379167X0.479167X0.379167X0*%
%ADD37RoundRect,0.270833X0.379167X0.479167X-0.379167X0.479167X-0.379167X-0.479167X0.379167X-0.479167X0*%
%ADD38RoundRect,0.271277X-0.503723X0.366223X-0.503723X-0.366223X0.503723X-0.366223X0.503723X0.366223X0*%
G04 APERTURE END LIST*
D10*
%TO.C,D3*%
X81153000Y-43180000D03*
D11*
X78613000Y-43180000D03*
%TD*%
D12*
%TO.C,TP8*%
X67564000Y-41529000D03*
%TD*%
%TO.C,TP9*%
X51054000Y-67056000D03*
%TD*%
D13*
%TO.C,R13*%
X97448000Y-102743000D03*
X94348000Y-102743000D03*
%TD*%
D12*
%TO.C,TP11*%
X170815000Y-52070000D03*
%TD*%
D13*
%TO.C,R11*%
X113818000Y-102743000D03*
X110718000Y-102743000D03*
%TD*%
D14*
%TO.C,H4*%
X175178000Y-106887000D03*
X175880944Y-105189944D03*
X175880944Y-108584056D03*
X177578000Y-104487000D03*
D15*
X177578000Y-106887000D03*
D14*
X177578000Y-109287000D03*
X179275056Y-105189944D03*
X179275056Y-108584056D03*
X179978000Y-106887000D03*
%TD*%
D16*
%TO.C,SW2*%
X143279002Y-92964000D03*
X136779000Y-92964000D03*
X143279002Y-88463999D03*
X136779000Y-88463999D03*
%TD*%
D17*
%TO.C,R10*%
X92329000Y-70433000D03*
X92329000Y-73533000D03*
%TD*%
D13*
%TO.C,R12*%
X105633000Y-102743000D03*
X102533000Y-102743000D03*
%TD*%
D18*
%TO.C,J2*%
X55753000Y-59243976D03*
X55753000Y-47244000D03*
D19*
X53793000Y-50243999D03*
D20*
X53793000Y-53243998D03*
X53793000Y-56243997D03*
%TD*%
D21*
%TO.C,R20*%
X157861000Y-71850000D03*
X157861000Y-69850000D03*
%TD*%
%TO.C,R31*%
X176403000Y-75406000D03*
X176403000Y-73406000D03*
%TD*%
D22*
%TO.C,SW1*%
X117522000Y-71153000D03*
X115022000Y-71153000D03*
X112522000Y-71153000D03*
X110022000Y-71153000D03*
X107522000Y-71153000D03*
X107522000Y-52853001D03*
X110022000Y-52853001D03*
X112522000Y-52853001D03*
X115022000Y-52853001D03*
X117522000Y-52853001D03*
D23*
X120522002Y-61023068D03*
X104521998Y-61023068D03*
%TD*%
D12*
%TO.C,TP3*%
X69596000Y-54864000D03*
%TD*%
D24*
%TO.C,C4*%
X56934500Y-62992000D03*
X53809500Y-62992000D03*
%TD*%
D25*
%TO.C,J4*%
X168275000Y-82799000D03*
D26*
X168275000Y-85339000D03*
%TD*%
D27*
%TO.C,R24*%
X148733000Y-68072000D03*
X150733000Y-68072000D03*
%TD*%
D16*
%TO.C,SW4*%
X111084502Y-92964000D03*
X104584500Y-92964000D03*
X111084502Y-88463999D03*
X104584500Y-88463999D03*
%TD*%
%TO.C,SW6*%
X78890002Y-92964000D03*
X72390000Y-92964000D03*
X78890002Y-88463999D03*
X72390000Y-88463999D03*
%TD*%
D28*
%TO.C,C5*%
X155596500Y-52705000D03*
X153521500Y-52705000D03*
%TD*%
D29*
%TO.C,D2*%
X69596000Y-60072000D03*
X69596000Y-63372000D03*
%TD*%
D12*
%TO.C,TP2*%
X79756000Y-49276000D03*
%TD*%
D30*
%TO.C,R1*%
X74904000Y-51943000D03*
X78004000Y-51943000D03*
%TD*%
%TO.C,R2*%
X64998000Y-57785000D03*
X68098000Y-57785000D03*
%TD*%
D12*
%TO.C,TP7*%
X60706000Y-41529000D03*
%TD*%
D16*
%TO.C,SW3*%
X127181752Y-92964000D03*
X120681750Y-92964000D03*
X127181752Y-88463999D03*
X120681750Y-88463999D03*
%TD*%
D12*
%TO.C,TP4*%
X94742000Y-47117000D03*
%TD*%
D24*
%TO.C,C3*%
X53759500Y-42926000D03*
X50634500Y-42926000D03*
%TD*%
D12*
%TO.C,TP1*%
X61849000Y-78359000D03*
%TD*%
D27*
%TO.C,R25*%
X160163000Y-63754000D03*
X162163000Y-63754000D03*
%TD*%
%TO.C,R23*%
X149495000Y-52705000D03*
X151495000Y-52705000D03*
%TD*%
D31*
%TO.C,U1*%
X159385000Y-56202500D03*
X158115000Y-56202500D03*
X156845000Y-56202500D03*
X155575000Y-56202500D03*
X154305000Y-56202500D03*
X153035000Y-56202500D03*
X151765000Y-56202500D03*
X151765000Y-61152500D03*
X153035000Y-61152500D03*
X154305000Y-61152500D03*
X155575000Y-61152500D03*
X156845000Y-61152500D03*
X158115000Y-61152500D03*
X159385000Y-61152500D03*
%TD*%
D32*
%TO.C,RV2*%
X76381000Y-60528000D03*
D33*
X75131000Y-63428000D03*
D32*
X73881000Y-60528000D03*
%TD*%
D12*
%TO.C,TP10*%
X163195000Y-49657000D03*
%TD*%
D21*
%TO.C,R19*%
X160147000Y-71850000D03*
X160147000Y-69850000D03*
%TD*%
D17*
%TO.C,R9*%
X92329000Y-65480000D03*
X92329000Y-68580000D03*
%TD*%
D21*
%TO.C,R21*%
X155575000Y-71850000D03*
X155575000Y-69850000D03*
%TD*%
%TO.C,R30*%
X157353000Y-50784000D03*
X157353000Y-48784000D03*
%TD*%
D14*
%TO.C,H1*%
X39383000Y-38608000D03*
X40085944Y-36910944D03*
X40085944Y-40305056D03*
X41783000Y-36208000D03*
D15*
X41783000Y-38608000D03*
D14*
X41783000Y-41008000D03*
X43480056Y-36910944D03*
X43480056Y-40305056D03*
X44183000Y-38608000D03*
%TD*%
D30*
%TO.C,R27*%
X72110000Y-43180000D03*
X75210000Y-43180000D03*
%TD*%
D16*
%TO.C,SW5*%
X94987252Y-92964000D03*
X88487250Y-92964000D03*
X94987252Y-88463999D03*
X88487250Y-88463999D03*
%TD*%
D34*
%TO.C,J3*%
X176431061Y-66792899D03*
X176531137Y-58692900D03*
D35*
X171731139Y-64492899D03*
%TD*%
D32*
%TO.C,RV1*%
X87356000Y-54557000D03*
D33*
X86106000Y-57457000D03*
D32*
X84856000Y-54557000D03*
%TD*%
D13*
%TO.C,R14*%
X89263000Y-102743000D03*
X86163000Y-102743000D03*
%TD*%
D21*
%TO.C,R18*%
X162433000Y-71850000D03*
X162433000Y-69850000D03*
%TD*%
D36*
%TO.C,R3*%
X51689000Y-88043000D03*
X51689000Y-90043000D03*
%TD*%
D12*
%TO.C,TP12*%
X165989000Y-66421000D03*
%TD*%
D25*
%TO.C,J5*%
X168275000Y-93218000D03*
D26*
X168275000Y-95758000D03*
%TD*%
D34*
%TO.C,J1*%
X60351924Y-92427999D03*
X60452000Y-84328000D03*
D35*
X55652002Y-90127999D03*
%TD*%
D29*
%TO.C,D1*%
X79756000Y-54230000D03*
X79756000Y-57530000D03*
%TD*%
D12*
%TO.C,TP5*%
X118364000Y-104267000D03*
%TD*%
D27*
%TO.C,R17*%
X145685000Y-52705000D03*
X147685000Y-52705000D03*
%TD*%
D30*
%TO.C,R29*%
X162280000Y-56134000D03*
X165380000Y-56134000D03*
%TD*%
D21*
%TO.C,R22*%
X153289000Y-71850000D03*
X153289000Y-69850000D03*
%TD*%
D14*
%TO.C,H3*%
X39383000Y-106887000D03*
X40085944Y-105189944D03*
X40085944Y-108584056D03*
X41783000Y-104487000D03*
D15*
X41783000Y-106887000D03*
D14*
X41783000Y-109287000D03*
X43480056Y-105189944D03*
X43480056Y-108584056D03*
X44183000Y-106887000D03*
%TD*%
D37*
%TO.C,R16*%
X156575000Y-66421000D03*
X154575000Y-66421000D03*
%TD*%
D36*
%TO.C,R26*%
X162052000Y-59452000D03*
X162052000Y-61452000D03*
%TD*%
D13*
%TO.C,R15*%
X81078000Y-102743000D03*
X77978000Y-102743000D03*
%TD*%
D17*
%TO.C,R8*%
X92329000Y-60527000D03*
X92329000Y-63627000D03*
%TD*%
%TO.C,R6*%
X92329000Y-50621000D03*
X92329000Y-53721000D03*
%TD*%
D30*
%TO.C,R5*%
X70967000Y-57787000D03*
X74067000Y-57787000D03*
%TD*%
D28*
%TO.C,C6*%
X155596500Y-63881000D03*
X153521500Y-63881000D03*
%TD*%
D12*
%TO.C,TP6*%
X145669000Y-48895000D03*
%TD*%
D30*
%TO.C,R4*%
X81254000Y-51943000D03*
X84354000Y-51943000D03*
%TD*%
D27*
%TO.C,R28*%
X159528000Y-52705000D03*
X161528000Y-52705000D03*
%TD*%
D38*
%TO.C,C2*%
X147701000Y-54842500D03*
X147701000Y-56917500D03*
%TD*%
D17*
%TO.C,R7*%
X92329000Y-55574000D03*
X92329000Y-58674000D03*
%TD*%
D14*
%TO.C,H2*%
X175178000Y-38608000D03*
X175880944Y-36910944D03*
X175880944Y-40305056D03*
X177578000Y-36208000D03*
D15*
X177578000Y-38608000D03*
D14*
X177578000Y-41008000D03*
X179275056Y-36910944D03*
X179275056Y-40305056D03*
X179978000Y-38608000D03*
%TD*%
M02*
