%TF.GenerationSoftware,KiCad,Pcbnew,8.0.2*%
%TF.CreationDate,2024-05-21T21:06:14-07:00*%
%TF.ProjectId,voltage ref calibration tool,766f6c74-6167-4652-9072-65662063616c,rev?*%
%TF.SameCoordinates,Original*%
%TF.FileFunction,Legend,Bot*%
%TF.FilePolarity,Positive*%
%FSLAX46Y46*%
G04 Gerber Fmt 4.6, Leading zero omitted, Abs format (unit mm)*
G04 Created by KiCad (PCBNEW 8.0.2) date 2024-05-21 21:06:14*
%MOMM*%
%LPD*%
G01*
G04 APERTURE LIST*
G04 Aperture macros list*
%AMRoundRect*
0 Rectangle with rounded corners*
0 $1 Rounding radius*
0 $2 $3 $4 $5 $6 $7 $8 $9 X,Y pos of 4 corners*
0 Add a 4 corners polygon primitive as box body*
4,1,4,$2,$3,$4,$5,$6,$7,$8,$9,$2,$3,0*
0 Add four circle primitives for the rounded corners*
1,1,$1+$1,$2,$3*
1,1,$1+$1,$4,$5*
1,1,$1+$1,$6,$7*
1,1,$1+$1,$8,$9*
0 Add four rect primitives between the rounded corners*
20,1,$1+$1,$2,$3,$4,$5,0*
20,1,$1+$1,$4,$5,$6,$7,0*
20,1,$1+$1,$6,$7,$8,$9,0*
20,1,$1+$1,$8,$9,$2,$3,0*%
G04 Aperture macros list end*
%ADD10C,0.100000*%
%ADD11C,0.150000*%
%ADD12C,0.120000*%
%ADD13RoundRect,0.050000X0.900000X0.900000X-0.900000X0.900000X-0.900000X-0.900000X0.900000X-0.900000X0*%
%ADD14C,1.900000*%
%ADD15C,1.600000*%
%ADD16C,1.050000*%
%ADD17C,6.700000*%
%ADD18C,1.607998*%
%ADD19C,1.370000*%
%ADD20RoundRect,0.050000X0.760000X-0.760000X0.760000X0.760000X-0.760000X0.760000X-0.760000X-0.760000X0*%
%ADD21C,1.620000*%
%ADD22C,1.497000*%
%ADD23C,2.614600*%
%ADD24RoundRect,0.050000X-0.850000X-0.850000X0.850000X-0.850000X0.850000X0.850000X-0.850000X0.850000X0*%
%ADD25O,1.800000X1.800000*%
%ADD26O,3.800000X1.700000*%
%ADD27O,1.700000X3.800000*%
G04 APERTURE END LIST*
D10*
X126697381Y-108471038D02*
X126792619Y-108423419D01*
X126792619Y-108423419D02*
X126935476Y-108423419D01*
X126935476Y-108423419D02*
X127078333Y-108471038D01*
X127078333Y-108471038D02*
X127173571Y-108566276D01*
X127173571Y-108566276D02*
X127221190Y-108661514D01*
X127221190Y-108661514D02*
X127268809Y-108851990D01*
X127268809Y-108851990D02*
X127268809Y-108994847D01*
X127268809Y-108994847D02*
X127221190Y-109185323D01*
X127221190Y-109185323D02*
X127173571Y-109280561D01*
X127173571Y-109280561D02*
X127078333Y-109375800D01*
X127078333Y-109375800D02*
X126935476Y-109423419D01*
X126935476Y-109423419D02*
X126840238Y-109423419D01*
X126840238Y-109423419D02*
X126697381Y-109375800D01*
X126697381Y-109375800D02*
X126649762Y-109328180D01*
X126649762Y-109328180D02*
X126649762Y-108994847D01*
X126649762Y-108994847D02*
X126840238Y-108994847D01*
X125649762Y-109423419D02*
X125983095Y-108947228D01*
X126221190Y-109423419D02*
X126221190Y-108423419D01*
X126221190Y-108423419D02*
X125840238Y-108423419D01*
X125840238Y-108423419D02*
X125745000Y-108471038D01*
X125745000Y-108471038D02*
X125697381Y-108518657D01*
X125697381Y-108518657D02*
X125649762Y-108613895D01*
X125649762Y-108613895D02*
X125649762Y-108756752D01*
X125649762Y-108756752D02*
X125697381Y-108851990D01*
X125697381Y-108851990D02*
X125745000Y-108899609D01*
X125745000Y-108899609D02*
X125840238Y-108947228D01*
X125840238Y-108947228D02*
X126221190Y-108947228D01*
X125221190Y-108899609D02*
X124887857Y-108899609D01*
X124745000Y-109423419D02*
X125221190Y-109423419D01*
X125221190Y-109423419D02*
X125221190Y-108423419D01*
X125221190Y-108423419D02*
X124745000Y-108423419D01*
X124316428Y-109423419D02*
X124316428Y-108423419D01*
X124316428Y-108423419D02*
X123983095Y-109137704D01*
X123983095Y-109137704D02*
X123649762Y-108423419D01*
X123649762Y-108423419D02*
X123649762Y-109423419D01*
X122840238Y-108899609D02*
X122697381Y-108947228D01*
X122697381Y-108947228D02*
X122649762Y-108994847D01*
X122649762Y-108994847D02*
X122602143Y-109090085D01*
X122602143Y-109090085D02*
X122602143Y-109232942D01*
X122602143Y-109232942D02*
X122649762Y-109328180D01*
X122649762Y-109328180D02*
X122697381Y-109375800D01*
X122697381Y-109375800D02*
X122792619Y-109423419D01*
X122792619Y-109423419D02*
X123173571Y-109423419D01*
X123173571Y-109423419D02*
X123173571Y-108423419D01*
X123173571Y-108423419D02*
X122840238Y-108423419D01*
X122840238Y-108423419D02*
X122745000Y-108471038D01*
X122745000Y-108471038D02*
X122697381Y-108518657D01*
X122697381Y-108518657D02*
X122649762Y-108613895D01*
X122649762Y-108613895D02*
X122649762Y-108709133D01*
X122649762Y-108709133D02*
X122697381Y-108804371D01*
X122697381Y-108804371D02*
X122745000Y-108851990D01*
X122745000Y-108851990D02*
X122840238Y-108899609D01*
X122840238Y-108899609D02*
X123173571Y-108899609D01*
X121697381Y-109423419D02*
X122173571Y-109423419D01*
X122173571Y-109423419D02*
X122173571Y-108423419D01*
X121173571Y-108423419D02*
X120983095Y-108423419D01*
X120983095Y-108423419D02*
X120887857Y-108471038D01*
X120887857Y-108471038D02*
X120792619Y-108566276D01*
X120792619Y-108566276D02*
X120745000Y-108756752D01*
X120745000Y-108756752D02*
X120745000Y-109090085D01*
X120745000Y-109090085D02*
X120792619Y-109280561D01*
X120792619Y-109280561D02*
X120887857Y-109375800D01*
X120887857Y-109375800D02*
X120983095Y-109423419D01*
X120983095Y-109423419D02*
X121173571Y-109423419D01*
X121173571Y-109423419D02*
X121268809Y-109375800D01*
X121268809Y-109375800D02*
X121364047Y-109280561D01*
X121364047Y-109280561D02*
X121411666Y-109090085D01*
X121411666Y-109090085D02*
X121411666Y-108756752D01*
X121411666Y-108756752D02*
X121364047Y-108566276D01*
X121364047Y-108566276D02*
X121268809Y-108471038D01*
X121268809Y-108471038D02*
X121173571Y-108423419D01*
X119745000Y-109423419D02*
X120078333Y-108947228D01*
X120316428Y-109423419D02*
X120316428Y-108423419D01*
X120316428Y-108423419D02*
X119935476Y-108423419D01*
X119935476Y-108423419D02*
X119840238Y-108471038D01*
X119840238Y-108471038D02*
X119792619Y-108518657D01*
X119792619Y-108518657D02*
X119745000Y-108613895D01*
X119745000Y-108613895D02*
X119745000Y-108756752D01*
X119745000Y-108756752D02*
X119792619Y-108851990D01*
X119792619Y-108851990D02*
X119840238Y-108899609D01*
X119840238Y-108899609D02*
X119935476Y-108947228D01*
X119935476Y-108947228D02*
X120316428Y-108947228D01*
X118078333Y-109423419D02*
X118554523Y-109423419D01*
X118554523Y-109423419D02*
X118554523Y-108423419D01*
X117554523Y-108423419D02*
X117364047Y-108423419D01*
X117364047Y-108423419D02*
X117268809Y-108471038D01*
X117268809Y-108471038D02*
X117173571Y-108566276D01*
X117173571Y-108566276D02*
X117125952Y-108756752D01*
X117125952Y-108756752D02*
X117125952Y-109090085D01*
X117125952Y-109090085D02*
X117173571Y-109280561D01*
X117173571Y-109280561D02*
X117268809Y-109375800D01*
X117268809Y-109375800D02*
X117364047Y-109423419D01*
X117364047Y-109423419D02*
X117554523Y-109423419D01*
X117554523Y-109423419D02*
X117649761Y-109375800D01*
X117649761Y-109375800D02*
X117744999Y-109280561D01*
X117744999Y-109280561D02*
X117792618Y-109090085D01*
X117792618Y-109090085D02*
X117792618Y-108756752D01*
X117792618Y-108756752D02*
X117744999Y-108566276D01*
X117744999Y-108566276D02*
X117649761Y-108471038D01*
X117649761Y-108471038D02*
X117554523Y-108423419D01*
X116840237Y-108423419D02*
X116506904Y-109423419D01*
X116506904Y-109423419D02*
X116173571Y-108423419D01*
X115840237Y-108899609D02*
X115506904Y-108899609D01*
X115364047Y-109423419D02*
X115840237Y-109423419D01*
X115840237Y-109423419D02*
X115840237Y-108423419D01*
X115840237Y-108423419D02*
X115364047Y-108423419D01*
X114983094Y-109375800D02*
X114840237Y-109423419D01*
X114840237Y-109423419D02*
X114602142Y-109423419D01*
X114602142Y-109423419D02*
X114506904Y-109375800D01*
X114506904Y-109375800D02*
X114459285Y-109328180D01*
X114459285Y-109328180D02*
X114411666Y-109232942D01*
X114411666Y-109232942D02*
X114411666Y-109137704D01*
X114411666Y-109137704D02*
X114459285Y-109042466D01*
X114459285Y-109042466D02*
X114506904Y-108994847D01*
X114506904Y-108994847D02*
X114602142Y-108947228D01*
X114602142Y-108947228D02*
X114792618Y-108899609D01*
X114792618Y-108899609D02*
X114887856Y-108851990D01*
X114887856Y-108851990D02*
X114935475Y-108804371D01*
X114935475Y-108804371D02*
X114983094Y-108709133D01*
X114983094Y-108709133D02*
X114983094Y-108613895D01*
X114983094Y-108613895D02*
X114935475Y-108518657D01*
X114935475Y-108518657D02*
X114887856Y-108471038D01*
X114887856Y-108471038D02*
X114792618Y-108423419D01*
X114792618Y-108423419D02*
X114554523Y-108423419D01*
X114554523Y-108423419D02*
X114411666Y-108471038D01*
X113030713Y-108947228D02*
X113030713Y-109423419D01*
X113364046Y-108423419D02*
X113030713Y-108947228D01*
X113030713Y-108947228D02*
X112697380Y-108423419D01*
X112173570Y-108423419D02*
X111983094Y-108423419D01*
X111983094Y-108423419D02*
X111887856Y-108471038D01*
X111887856Y-108471038D02*
X111792618Y-108566276D01*
X111792618Y-108566276D02*
X111744999Y-108756752D01*
X111744999Y-108756752D02*
X111744999Y-109090085D01*
X111744999Y-109090085D02*
X111792618Y-109280561D01*
X111792618Y-109280561D02*
X111887856Y-109375800D01*
X111887856Y-109375800D02*
X111983094Y-109423419D01*
X111983094Y-109423419D02*
X112173570Y-109423419D01*
X112173570Y-109423419D02*
X112268808Y-109375800D01*
X112268808Y-109375800D02*
X112364046Y-109280561D01*
X112364046Y-109280561D02*
X112411665Y-109090085D01*
X112411665Y-109090085D02*
X112411665Y-108756752D01*
X112411665Y-108756752D02*
X112364046Y-108566276D01*
X112364046Y-108566276D02*
X112268808Y-108471038D01*
X112268808Y-108471038D02*
X112173570Y-108423419D01*
X111316427Y-108423419D02*
X111316427Y-109232942D01*
X111316427Y-109232942D02*
X111268808Y-109328180D01*
X111268808Y-109328180D02*
X111221189Y-109375800D01*
X111221189Y-109375800D02*
X111125951Y-109423419D01*
X111125951Y-109423419D02*
X110935475Y-109423419D01*
X110935475Y-109423419D02*
X110840237Y-109375800D01*
X110840237Y-109375800D02*
X110792618Y-109328180D01*
X110792618Y-109328180D02*
X110744999Y-109232942D01*
X110744999Y-109232942D02*
X110744999Y-108423419D01*
X110268808Y-109328180D02*
X110221189Y-109375800D01*
X110221189Y-109375800D02*
X110268808Y-109423419D01*
X110268808Y-109423419D02*
X110316427Y-109375800D01*
X110316427Y-109375800D02*
X110268808Y-109328180D01*
X110268808Y-109328180D02*
X110268808Y-109423419D01*
X110268808Y-109042466D02*
X110316427Y-108471038D01*
X110316427Y-108471038D02*
X110268808Y-108423419D01*
X110268808Y-108423419D02*
X110221189Y-108471038D01*
X110221189Y-108471038D02*
X110268808Y-109042466D01*
X110268808Y-109042466D02*
X110268808Y-108423419D01*
D11*
X68825904Y-39233819D02*
X68254476Y-39233819D01*
X68540190Y-40233819D02*
X68540190Y-39233819D01*
X67921142Y-40233819D02*
X67921142Y-39233819D01*
X67921142Y-39233819D02*
X67540190Y-39233819D01*
X67540190Y-39233819D02*
X67444952Y-39281438D01*
X67444952Y-39281438D02*
X67397333Y-39329057D01*
X67397333Y-39329057D02*
X67349714Y-39424295D01*
X67349714Y-39424295D02*
X67349714Y-39567152D01*
X67349714Y-39567152D02*
X67397333Y-39662390D01*
X67397333Y-39662390D02*
X67444952Y-39710009D01*
X67444952Y-39710009D02*
X67540190Y-39757628D01*
X67540190Y-39757628D02*
X67921142Y-39757628D01*
X66778285Y-39662390D02*
X66873523Y-39614771D01*
X66873523Y-39614771D02*
X66921142Y-39567152D01*
X66921142Y-39567152D02*
X66968761Y-39471914D01*
X66968761Y-39471914D02*
X66968761Y-39424295D01*
X66968761Y-39424295D02*
X66921142Y-39329057D01*
X66921142Y-39329057D02*
X66873523Y-39281438D01*
X66873523Y-39281438D02*
X66778285Y-39233819D01*
X66778285Y-39233819D02*
X66587809Y-39233819D01*
X66587809Y-39233819D02*
X66492571Y-39281438D01*
X66492571Y-39281438D02*
X66444952Y-39329057D01*
X66444952Y-39329057D02*
X66397333Y-39424295D01*
X66397333Y-39424295D02*
X66397333Y-39471914D01*
X66397333Y-39471914D02*
X66444952Y-39567152D01*
X66444952Y-39567152D02*
X66492571Y-39614771D01*
X66492571Y-39614771D02*
X66587809Y-39662390D01*
X66587809Y-39662390D02*
X66778285Y-39662390D01*
X66778285Y-39662390D02*
X66873523Y-39710009D01*
X66873523Y-39710009D02*
X66921142Y-39757628D01*
X66921142Y-39757628D02*
X66968761Y-39852866D01*
X66968761Y-39852866D02*
X66968761Y-40043342D01*
X66968761Y-40043342D02*
X66921142Y-40138580D01*
X66921142Y-40138580D02*
X66873523Y-40186200D01*
X66873523Y-40186200D02*
X66778285Y-40233819D01*
X66778285Y-40233819D02*
X66587809Y-40233819D01*
X66587809Y-40233819D02*
X66492571Y-40186200D01*
X66492571Y-40186200D02*
X66444952Y-40138580D01*
X66444952Y-40138580D02*
X66397333Y-40043342D01*
X66397333Y-40043342D02*
X66397333Y-39852866D01*
X66397333Y-39852866D02*
X66444952Y-39757628D01*
X66444952Y-39757628D02*
X66492571Y-39710009D01*
X66492571Y-39710009D02*
X66587809Y-39662390D01*
X52315904Y-68260819D02*
X51744476Y-68260819D01*
X52030190Y-69260819D02*
X52030190Y-68260819D01*
X51411142Y-69260819D02*
X51411142Y-68260819D01*
X51411142Y-68260819D02*
X51030190Y-68260819D01*
X51030190Y-68260819D02*
X50934952Y-68308438D01*
X50934952Y-68308438D02*
X50887333Y-68356057D01*
X50887333Y-68356057D02*
X50839714Y-68451295D01*
X50839714Y-68451295D02*
X50839714Y-68594152D01*
X50839714Y-68594152D02*
X50887333Y-68689390D01*
X50887333Y-68689390D02*
X50934952Y-68737009D01*
X50934952Y-68737009D02*
X51030190Y-68784628D01*
X51030190Y-68784628D02*
X51411142Y-68784628D01*
X50363523Y-69260819D02*
X50173047Y-69260819D01*
X50173047Y-69260819D02*
X50077809Y-69213200D01*
X50077809Y-69213200D02*
X50030190Y-69165580D01*
X50030190Y-69165580D02*
X49934952Y-69022723D01*
X49934952Y-69022723D02*
X49887333Y-68832247D01*
X49887333Y-68832247D02*
X49887333Y-68451295D01*
X49887333Y-68451295D02*
X49934952Y-68356057D01*
X49934952Y-68356057D02*
X49982571Y-68308438D01*
X49982571Y-68308438D02*
X50077809Y-68260819D01*
X50077809Y-68260819D02*
X50268285Y-68260819D01*
X50268285Y-68260819D02*
X50363523Y-68308438D01*
X50363523Y-68308438D02*
X50411142Y-68356057D01*
X50411142Y-68356057D02*
X50458761Y-68451295D01*
X50458761Y-68451295D02*
X50458761Y-68689390D01*
X50458761Y-68689390D02*
X50411142Y-68784628D01*
X50411142Y-68784628D02*
X50363523Y-68832247D01*
X50363523Y-68832247D02*
X50268285Y-68879866D01*
X50268285Y-68879866D02*
X50077809Y-68879866D01*
X50077809Y-68879866D02*
X49982571Y-68832247D01*
X49982571Y-68832247D02*
X49934952Y-68784628D01*
X49934952Y-68784628D02*
X49887333Y-68689390D01*
X172553094Y-49774819D02*
X171981666Y-49774819D01*
X172267380Y-50774819D02*
X172267380Y-49774819D01*
X171648332Y-50774819D02*
X171648332Y-49774819D01*
X171648332Y-49774819D02*
X171267380Y-49774819D01*
X171267380Y-49774819D02*
X171172142Y-49822438D01*
X171172142Y-49822438D02*
X171124523Y-49870057D01*
X171124523Y-49870057D02*
X171076904Y-49965295D01*
X171076904Y-49965295D02*
X171076904Y-50108152D01*
X171076904Y-50108152D02*
X171124523Y-50203390D01*
X171124523Y-50203390D02*
X171172142Y-50251009D01*
X171172142Y-50251009D02*
X171267380Y-50298628D01*
X171267380Y-50298628D02*
X171648332Y-50298628D01*
X170124523Y-50774819D02*
X170695951Y-50774819D01*
X170410237Y-50774819D02*
X170410237Y-49774819D01*
X170410237Y-49774819D02*
X170505475Y-49917676D01*
X170505475Y-49917676D02*
X170600713Y-50012914D01*
X170600713Y-50012914D02*
X170695951Y-50060533D01*
X169172142Y-50774819D02*
X169743570Y-50774819D01*
X169457856Y-50774819D02*
X169457856Y-49774819D01*
X169457856Y-49774819D02*
X169553094Y-49917676D01*
X169553094Y-49917676D02*
X169648332Y-50012914D01*
X169648332Y-50012914D02*
X169743570Y-50060533D01*
X70857904Y-52568819D02*
X70286476Y-52568819D01*
X70572190Y-53568819D02*
X70572190Y-52568819D01*
X69953142Y-53568819D02*
X69953142Y-52568819D01*
X69953142Y-52568819D02*
X69572190Y-52568819D01*
X69572190Y-52568819D02*
X69476952Y-52616438D01*
X69476952Y-52616438D02*
X69429333Y-52664057D01*
X69429333Y-52664057D02*
X69381714Y-52759295D01*
X69381714Y-52759295D02*
X69381714Y-52902152D01*
X69381714Y-52902152D02*
X69429333Y-52997390D01*
X69429333Y-52997390D02*
X69476952Y-53045009D01*
X69476952Y-53045009D02*
X69572190Y-53092628D01*
X69572190Y-53092628D02*
X69953142Y-53092628D01*
X69048380Y-52568819D02*
X68429333Y-52568819D01*
X68429333Y-52568819D02*
X68762666Y-52949771D01*
X68762666Y-52949771D02*
X68619809Y-52949771D01*
X68619809Y-52949771D02*
X68524571Y-52997390D01*
X68524571Y-52997390D02*
X68476952Y-53045009D01*
X68476952Y-53045009D02*
X68429333Y-53140247D01*
X68429333Y-53140247D02*
X68429333Y-53378342D01*
X68429333Y-53378342D02*
X68476952Y-53473580D01*
X68476952Y-53473580D02*
X68524571Y-53521200D01*
X68524571Y-53521200D02*
X68619809Y-53568819D01*
X68619809Y-53568819D02*
X68905523Y-53568819D01*
X68905523Y-53568819D02*
X69000761Y-53521200D01*
X69000761Y-53521200D02*
X69048380Y-53473580D01*
X81017904Y-46980819D02*
X80446476Y-46980819D01*
X80732190Y-47980819D02*
X80732190Y-46980819D01*
X80113142Y-47980819D02*
X80113142Y-46980819D01*
X80113142Y-46980819D02*
X79732190Y-46980819D01*
X79732190Y-46980819D02*
X79636952Y-47028438D01*
X79636952Y-47028438D02*
X79589333Y-47076057D01*
X79589333Y-47076057D02*
X79541714Y-47171295D01*
X79541714Y-47171295D02*
X79541714Y-47314152D01*
X79541714Y-47314152D02*
X79589333Y-47409390D01*
X79589333Y-47409390D02*
X79636952Y-47457009D01*
X79636952Y-47457009D02*
X79732190Y-47504628D01*
X79732190Y-47504628D02*
X80113142Y-47504628D01*
X79160761Y-47076057D02*
X79113142Y-47028438D01*
X79113142Y-47028438D02*
X79017904Y-46980819D01*
X79017904Y-46980819D02*
X78779809Y-46980819D01*
X78779809Y-46980819D02*
X78684571Y-47028438D01*
X78684571Y-47028438D02*
X78636952Y-47076057D01*
X78636952Y-47076057D02*
X78589333Y-47171295D01*
X78589333Y-47171295D02*
X78589333Y-47266533D01*
X78589333Y-47266533D02*
X78636952Y-47409390D01*
X78636952Y-47409390D02*
X79208380Y-47980819D01*
X79208380Y-47980819D02*
X78589333Y-47980819D01*
X61967904Y-39233819D02*
X61396476Y-39233819D01*
X61682190Y-40233819D02*
X61682190Y-39233819D01*
X61063142Y-40233819D02*
X61063142Y-39233819D01*
X61063142Y-39233819D02*
X60682190Y-39233819D01*
X60682190Y-39233819D02*
X60586952Y-39281438D01*
X60586952Y-39281438D02*
X60539333Y-39329057D01*
X60539333Y-39329057D02*
X60491714Y-39424295D01*
X60491714Y-39424295D02*
X60491714Y-39567152D01*
X60491714Y-39567152D02*
X60539333Y-39662390D01*
X60539333Y-39662390D02*
X60586952Y-39710009D01*
X60586952Y-39710009D02*
X60682190Y-39757628D01*
X60682190Y-39757628D02*
X61063142Y-39757628D01*
X60158380Y-39233819D02*
X59491714Y-39233819D01*
X59491714Y-39233819D02*
X59920285Y-40233819D01*
X96003904Y-44821819D02*
X95432476Y-44821819D01*
X95718190Y-45821819D02*
X95718190Y-44821819D01*
X95099142Y-45821819D02*
X95099142Y-44821819D01*
X95099142Y-44821819D02*
X94718190Y-44821819D01*
X94718190Y-44821819D02*
X94622952Y-44869438D01*
X94622952Y-44869438D02*
X94575333Y-44917057D01*
X94575333Y-44917057D02*
X94527714Y-45012295D01*
X94527714Y-45012295D02*
X94527714Y-45155152D01*
X94527714Y-45155152D02*
X94575333Y-45250390D01*
X94575333Y-45250390D02*
X94622952Y-45298009D01*
X94622952Y-45298009D02*
X94718190Y-45345628D01*
X94718190Y-45345628D02*
X95099142Y-45345628D01*
X93670571Y-45155152D02*
X93670571Y-45821819D01*
X93908666Y-44774200D02*
X94146761Y-45488485D01*
X94146761Y-45488485D02*
X93527714Y-45488485D01*
X63110904Y-76063819D02*
X62539476Y-76063819D01*
X62825190Y-77063819D02*
X62825190Y-76063819D01*
X62206142Y-77063819D02*
X62206142Y-76063819D01*
X62206142Y-76063819D02*
X61825190Y-76063819D01*
X61825190Y-76063819D02*
X61729952Y-76111438D01*
X61729952Y-76111438D02*
X61682333Y-76159057D01*
X61682333Y-76159057D02*
X61634714Y-76254295D01*
X61634714Y-76254295D02*
X61634714Y-76397152D01*
X61634714Y-76397152D02*
X61682333Y-76492390D01*
X61682333Y-76492390D02*
X61729952Y-76540009D01*
X61729952Y-76540009D02*
X61825190Y-76587628D01*
X61825190Y-76587628D02*
X62206142Y-76587628D01*
X60682333Y-77063819D02*
X61253761Y-77063819D01*
X60968047Y-77063819D02*
X60968047Y-76063819D01*
X60968047Y-76063819D02*
X61063285Y-76206676D01*
X61063285Y-76206676D02*
X61158523Y-76301914D01*
X61158523Y-76301914D02*
X61253761Y-76349533D01*
X164933094Y-47361819D02*
X164361666Y-47361819D01*
X164647380Y-48361819D02*
X164647380Y-47361819D01*
X164028332Y-48361819D02*
X164028332Y-47361819D01*
X164028332Y-47361819D02*
X163647380Y-47361819D01*
X163647380Y-47361819D02*
X163552142Y-47409438D01*
X163552142Y-47409438D02*
X163504523Y-47457057D01*
X163504523Y-47457057D02*
X163456904Y-47552295D01*
X163456904Y-47552295D02*
X163456904Y-47695152D01*
X163456904Y-47695152D02*
X163504523Y-47790390D01*
X163504523Y-47790390D02*
X163552142Y-47838009D01*
X163552142Y-47838009D02*
X163647380Y-47885628D01*
X163647380Y-47885628D02*
X164028332Y-47885628D01*
X162504523Y-48361819D02*
X163075951Y-48361819D01*
X162790237Y-48361819D02*
X162790237Y-47361819D01*
X162790237Y-47361819D02*
X162885475Y-47504676D01*
X162885475Y-47504676D02*
X162980713Y-47599914D01*
X162980713Y-47599914D02*
X163075951Y-47647533D01*
X161885475Y-47361819D02*
X161790237Y-47361819D01*
X161790237Y-47361819D02*
X161694999Y-47409438D01*
X161694999Y-47409438D02*
X161647380Y-47457057D01*
X161647380Y-47457057D02*
X161599761Y-47552295D01*
X161599761Y-47552295D02*
X161552142Y-47742771D01*
X161552142Y-47742771D02*
X161552142Y-47980866D01*
X161552142Y-47980866D02*
X161599761Y-48171342D01*
X161599761Y-48171342D02*
X161647380Y-48266580D01*
X161647380Y-48266580D02*
X161694999Y-48314200D01*
X161694999Y-48314200D02*
X161790237Y-48361819D01*
X161790237Y-48361819D02*
X161885475Y-48361819D01*
X161885475Y-48361819D02*
X161980713Y-48314200D01*
X161980713Y-48314200D02*
X162028332Y-48266580D01*
X162028332Y-48266580D02*
X162075951Y-48171342D01*
X162075951Y-48171342D02*
X162123570Y-47980866D01*
X162123570Y-47980866D02*
X162123570Y-47742771D01*
X162123570Y-47742771D02*
X162075951Y-47552295D01*
X162075951Y-47552295D02*
X162028332Y-47457057D01*
X162028332Y-47457057D02*
X161980713Y-47409438D01*
X161980713Y-47409438D02*
X161885475Y-47361819D01*
X167727094Y-64125819D02*
X167155666Y-64125819D01*
X167441380Y-65125819D02*
X167441380Y-64125819D01*
X166822332Y-65125819D02*
X166822332Y-64125819D01*
X166822332Y-64125819D02*
X166441380Y-64125819D01*
X166441380Y-64125819D02*
X166346142Y-64173438D01*
X166346142Y-64173438D02*
X166298523Y-64221057D01*
X166298523Y-64221057D02*
X166250904Y-64316295D01*
X166250904Y-64316295D02*
X166250904Y-64459152D01*
X166250904Y-64459152D02*
X166298523Y-64554390D01*
X166298523Y-64554390D02*
X166346142Y-64602009D01*
X166346142Y-64602009D02*
X166441380Y-64649628D01*
X166441380Y-64649628D02*
X166822332Y-64649628D01*
X165298523Y-65125819D02*
X165869951Y-65125819D01*
X165584237Y-65125819D02*
X165584237Y-64125819D01*
X165584237Y-64125819D02*
X165679475Y-64268676D01*
X165679475Y-64268676D02*
X165774713Y-64363914D01*
X165774713Y-64363914D02*
X165869951Y-64411533D01*
X164917570Y-64221057D02*
X164869951Y-64173438D01*
X164869951Y-64173438D02*
X164774713Y-64125819D01*
X164774713Y-64125819D02*
X164536618Y-64125819D01*
X164536618Y-64125819D02*
X164441380Y-64173438D01*
X164441380Y-64173438D02*
X164393761Y-64221057D01*
X164393761Y-64221057D02*
X164346142Y-64316295D01*
X164346142Y-64316295D02*
X164346142Y-64411533D01*
X164346142Y-64411533D02*
X164393761Y-64554390D01*
X164393761Y-64554390D02*
X164965189Y-65125819D01*
X164965189Y-65125819D02*
X164346142Y-65125819D01*
X119625904Y-101971819D02*
X119054476Y-101971819D01*
X119340190Y-102971819D02*
X119340190Y-101971819D01*
X118721142Y-102971819D02*
X118721142Y-101971819D01*
X118721142Y-101971819D02*
X118340190Y-101971819D01*
X118340190Y-101971819D02*
X118244952Y-102019438D01*
X118244952Y-102019438D02*
X118197333Y-102067057D01*
X118197333Y-102067057D02*
X118149714Y-102162295D01*
X118149714Y-102162295D02*
X118149714Y-102305152D01*
X118149714Y-102305152D02*
X118197333Y-102400390D01*
X118197333Y-102400390D02*
X118244952Y-102448009D01*
X118244952Y-102448009D02*
X118340190Y-102495628D01*
X118340190Y-102495628D02*
X118721142Y-102495628D01*
X117244952Y-101971819D02*
X117721142Y-101971819D01*
X117721142Y-101971819D02*
X117768761Y-102448009D01*
X117768761Y-102448009D02*
X117721142Y-102400390D01*
X117721142Y-102400390D02*
X117625904Y-102352771D01*
X117625904Y-102352771D02*
X117387809Y-102352771D01*
X117387809Y-102352771D02*
X117292571Y-102400390D01*
X117292571Y-102400390D02*
X117244952Y-102448009D01*
X117244952Y-102448009D02*
X117197333Y-102543247D01*
X117197333Y-102543247D02*
X117197333Y-102781342D01*
X117197333Y-102781342D02*
X117244952Y-102876580D01*
X117244952Y-102876580D02*
X117292571Y-102924200D01*
X117292571Y-102924200D02*
X117387809Y-102971819D01*
X117387809Y-102971819D02*
X117625904Y-102971819D01*
X117625904Y-102971819D02*
X117721142Y-102924200D01*
X117721142Y-102924200D02*
X117768761Y-102876580D01*
X146930904Y-46599819D02*
X146359476Y-46599819D01*
X146645190Y-47599819D02*
X146645190Y-46599819D01*
X146026142Y-47599819D02*
X146026142Y-46599819D01*
X146026142Y-46599819D02*
X145645190Y-46599819D01*
X145645190Y-46599819D02*
X145549952Y-46647438D01*
X145549952Y-46647438D02*
X145502333Y-46695057D01*
X145502333Y-46695057D02*
X145454714Y-46790295D01*
X145454714Y-46790295D02*
X145454714Y-46933152D01*
X145454714Y-46933152D02*
X145502333Y-47028390D01*
X145502333Y-47028390D02*
X145549952Y-47076009D01*
X145549952Y-47076009D02*
X145645190Y-47123628D01*
X145645190Y-47123628D02*
X146026142Y-47123628D01*
X144597571Y-46599819D02*
X144788047Y-46599819D01*
X144788047Y-46599819D02*
X144883285Y-46647438D01*
X144883285Y-46647438D02*
X144930904Y-46695057D01*
X144930904Y-46695057D02*
X145026142Y-46837914D01*
X145026142Y-46837914D02*
X145073761Y-47028390D01*
X145073761Y-47028390D02*
X145073761Y-47409342D01*
X145073761Y-47409342D02*
X145026142Y-47504580D01*
X145026142Y-47504580D02*
X144978523Y-47552200D01*
X144978523Y-47552200D02*
X144883285Y-47599819D01*
X144883285Y-47599819D02*
X144692809Y-47599819D01*
X144692809Y-47599819D02*
X144597571Y-47552200D01*
X144597571Y-47552200D02*
X144549952Y-47504580D01*
X144549952Y-47504580D02*
X144502333Y-47409342D01*
X144502333Y-47409342D02*
X144502333Y-47171247D01*
X144502333Y-47171247D02*
X144549952Y-47076009D01*
X144549952Y-47076009D02*
X144597571Y-47028390D01*
X144597571Y-47028390D02*
X144692809Y-46980771D01*
X144692809Y-46980771D02*
X144883285Y-46980771D01*
X144883285Y-46980771D02*
X144978523Y-47028390D01*
X144978523Y-47028390D02*
X145026142Y-47076009D01*
X145026142Y-47076009D02*
X145073761Y-47171247D01*
D12*
%TO.C,SW2*%
X142033002Y-92964000D02*
G75*
G02*
X141779002Y-92964000I-127000J0D01*
G01*
X141779002Y-92964000D02*
G75*
G02*
X142033002Y-92964000I127000J0D01*
G01*
%TO.C,SW1*%
X121234000Y-71153000D02*
G75*
G02*
X120472000Y-71153000I-381000J0D01*
G01*
X120472000Y-71153000D02*
G75*
G02*
X121234000Y-71153000I381000J0D01*
G01*
%TO.C,SW4*%
X109838502Y-92964000D02*
G75*
G02*
X109584502Y-92964000I-127000J0D01*
G01*
X109584502Y-92964000D02*
G75*
G02*
X109838502Y-92964000I127000J0D01*
G01*
%TO.C,SW6*%
X77644002Y-92964000D02*
G75*
G02*
X77390002Y-92964000I-127000J0D01*
G01*
X77390002Y-92964000D02*
G75*
G02*
X77644002Y-92964000I127000J0D01*
G01*
%TO.C,SW3*%
X125935752Y-92964000D02*
G75*
G02*
X125681752Y-92964000I-127000J0D01*
G01*
X125681752Y-92964000D02*
G75*
G02*
X125935752Y-92964000I127000J0D01*
G01*
%TO.C,SW5*%
X93741252Y-92964000D02*
G75*
G02*
X93487252Y-92964000I-127000J0D01*
G01*
X93487252Y-92964000D02*
G75*
G02*
X93741252Y-92964000I127000J0D01*
G01*
%TD*%
%LPC*%
D13*
%TO.C,D3*%
X81153000Y-43180000D03*
D14*
X78613000Y-43180000D03*
%TD*%
D15*
%TO.C,TP8*%
X67564000Y-41529000D03*
%TD*%
%TO.C,TP9*%
X51054000Y-67056000D03*
%TD*%
%TO.C,TP11*%
X170815000Y-52070000D03*
%TD*%
D16*
%TO.C,H4*%
X175178000Y-106887000D03*
X175880944Y-105189944D03*
X175880944Y-108584056D03*
X177578000Y-104487000D03*
D17*
X177578000Y-106887000D03*
D16*
X177578000Y-109287000D03*
X179275056Y-105189944D03*
X179275056Y-108584056D03*
X179978000Y-106887000D03*
%TD*%
D18*
%TO.C,SW2*%
X143279002Y-92964000D03*
X136779000Y-92964000D03*
X143279002Y-88463999D03*
X136779000Y-88463999D03*
%TD*%
D19*
%TO.C,J2*%
X55753000Y-59243976D03*
X55753000Y-47244000D03*
D20*
X53793000Y-50243999D03*
D21*
X53793000Y-53243998D03*
X53793000Y-56243997D03*
%TD*%
D22*
%TO.C,SW1*%
X117522000Y-71153000D03*
X115022000Y-71153000D03*
X112522000Y-71153000D03*
X110022000Y-71153000D03*
X107522000Y-71153000D03*
X107522000Y-52853001D03*
X110022000Y-52853001D03*
X112522000Y-52853001D03*
X115022000Y-52853001D03*
X117522000Y-52853001D03*
D23*
X120522002Y-61023068D03*
X104521998Y-61023068D03*
%TD*%
D15*
%TO.C,TP3*%
X69596000Y-54864000D03*
%TD*%
D24*
%TO.C,J4*%
X168275000Y-82799000D03*
D25*
X168275000Y-85339000D03*
%TD*%
D18*
%TO.C,SW4*%
X111084502Y-92964000D03*
X104584500Y-92964000D03*
X111084502Y-88463999D03*
X104584500Y-88463999D03*
%TD*%
%TO.C,SW6*%
X78890002Y-92964000D03*
X72390000Y-92964000D03*
X78890002Y-88463999D03*
X72390000Y-88463999D03*
%TD*%
D15*
%TO.C,TP2*%
X79756000Y-49276000D03*
%TD*%
%TO.C,TP7*%
X60706000Y-41529000D03*
%TD*%
D18*
%TO.C,SW3*%
X127181752Y-92964000D03*
X120681750Y-92964000D03*
X127181752Y-88463999D03*
X120681750Y-88463999D03*
%TD*%
D15*
%TO.C,TP4*%
X94742000Y-47117000D03*
%TD*%
%TO.C,TP1*%
X61849000Y-78359000D03*
%TD*%
%TO.C,TP10*%
X163195000Y-49657000D03*
%TD*%
D16*
%TO.C,H1*%
X39383000Y-38608000D03*
X40085944Y-36910944D03*
X40085944Y-40305056D03*
X41783000Y-36208000D03*
D17*
X41783000Y-38608000D03*
D16*
X41783000Y-41008000D03*
X43480056Y-36910944D03*
X43480056Y-40305056D03*
X44183000Y-38608000D03*
%TD*%
D18*
%TO.C,SW5*%
X94987252Y-92964000D03*
X88487250Y-92964000D03*
X94987252Y-88463999D03*
X88487250Y-88463999D03*
%TD*%
D26*
%TO.C,J3*%
X176431061Y-66792899D03*
X176531137Y-58692900D03*
D27*
X171731139Y-64492899D03*
%TD*%
D15*
%TO.C,TP12*%
X165989000Y-66421000D03*
%TD*%
D24*
%TO.C,J5*%
X168275000Y-93218000D03*
D25*
X168275000Y-95758000D03*
%TD*%
D26*
%TO.C,J1*%
X60351924Y-92427999D03*
X60452000Y-84328000D03*
D27*
X55652002Y-90127999D03*
%TD*%
D15*
%TO.C,TP5*%
X118364000Y-104267000D03*
%TD*%
D16*
%TO.C,H3*%
X39383000Y-106887000D03*
X40085944Y-105189944D03*
X40085944Y-108584056D03*
X41783000Y-104487000D03*
D17*
X41783000Y-106887000D03*
D16*
X41783000Y-109287000D03*
X43480056Y-105189944D03*
X43480056Y-108584056D03*
X44183000Y-106887000D03*
%TD*%
D15*
%TO.C,TP6*%
X145669000Y-48895000D03*
%TD*%
D16*
%TO.C,H2*%
X175178000Y-38608000D03*
X175880944Y-36910944D03*
X175880944Y-40305056D03*
X177578000Y-36208000D03*
D17*
X177578000Y-38608000D03*
D16*
X177578000Y-41008000D03*
X179275056Y-36910944D03*
X179275056Y-40305056D03*
X179978000Y-38608000D03*
%TD*%
%LPD*%
M02*
