%TF.GenerationSoftware,KiCad,Pcbnew,8.0.2*%
%TF.CreationDate,2024-05-21T21:06:14-07:00*%
%TF.ProjectId,voltage ref calibration tool,766f6c74-6167-4652-9072-65662063616c,rev?*%
%TF.SameCoordinates,Original*%
%TF.FileFunction,Soldermask,Bot*%
%TF.FilePolarity,Negative*%
%FSLAX46Y46*%
G04 Gerber Fmt 4.6, Leading zero omitted, Abs format (unit mm)*
G04 Created by KiCad (PCBNEW 8.0.2) date 2024-05-21 21:06:14*
%MOMM*%
%LPD*%
G01*
G04 APERTURE LIST*
G04 Aperture macros list*
%AMRoundRect*
0 Rectangle with rounded corners*
0 $1 Rounding radius*
0 $2 $3 $4 $5 $6 $7 $8 $9 X,Y pos of 4 corners*
0 Add a 4 corners polygon primitive as box body*
4,1,4,$2,$3,$4,$5,$6,$7,$8,$9,$2,$3,0*
0 Add four circle primitives for the rounded corners*
1,1,$1+$1,$2,$3*
1,1,$1+$1,$4,$5*
1,1,$1+$1,$6,$7*
1,1,$1+$1,$8,$9*
0 Add four rect primitives between the rounded corners*
20,1,$1+$1,$2,$3,$4,$5,0*
20,1,$1+$1,$4,$5,$6,$7,0*
20,1,$1+$1,$6,$7,$8,$9,0*
20,1,$1+$1,$8,$9,$2,$3,0*%
G04 Aperture macros list end*
%ADD10RoundRect,0.050000X0.900000X0.900000X-0.900000X0.900000X-0.900000X-0.900000X0.900000X-0.900000X0*%
%ADD11C,1.900000*%
%ADD12C,1.600000*%
%ADD13C,1.050000*%
%ADD14C,6.700000*%
%ADD15C,1.607998*%
%ADD16C,1.370000*%
%ADD17RoundRect,0.050000X0.760000X-0.760000X0.760000X0.760000X-0.760000X0.760000X-0.760000X-0.760000X0*%
%ADD18C,1.620000*%
%ADD19C,1.497000*%
%ADD20C,2.614600*%
%ADD21RoundRect,0.050000X-0.850000X-0.850000X0.850000X-0.850000X0.850000X0.850000X-0.850000X0.850000X0*%
%ADD22O,1.800000X1.800000*%
%ADD23O,3.800000X1.700000*%
%ADD24O,1.700000X3.800000*%
G04 APERTURE END LIST*
D10*
%TO.C,D3*%
X81153000Y-43180000D03*
D11*
X78613000Y-43180000D03*
%TD*%
D12*
%TO.C,TP8*%
X67564000Y-41529000D03*
%TD*%
%TO.C,TP9*%
X51054000Y-67056000D03*
%TD*%
%TO.C,TP11*%
X170815000Y-52070000D03*
%TD*%
D13*
%TO.C,H4*%
X175178000Y-106887000D03*
X175880944Y-105189944D03*
X175880944Y-108584056D03*
X177578000Y-104487000D03*
D14*
X177578000Y-106887000D03*
D13*
X177578000Y-109287000D03*
X179275056Y-105189944D03*
X179275056Y-108584056D03*
X179978000Y-106887000D03*
%TD*%
D15*
%TO.C,SW2*%
X143279002Y-92964000D03*
X136779000Y-92964000D03*
X143279002Y-88463999D03*
X136779000Y-88463999D03*
%TD*%
D16*
%TO.C,J2*%
X55753000Y-59243976D03*
X55753000Y-47244000D03*
D17*
X53793000Y-50243999D03*
D18*
X53793000Y-53243998D03*
X53793000Y-56243997D03*
%TD*%
D19*
%TO.C,SW1*%
X117522000Y-71153000D03*
X115022000Y-71153000D03*
X112522000Y-71153000D03*
X110022000Y-71153000D03*
X107522000Y-71153000D03*
X107522000Y-52853001D03*
X110022000Y-52853001D03*
X112522000Y-52853001D03*
X115022000Y-52853001D03*
X117522000Y-52853001D03*
D20*
X120522002Y-61023068D03*
X104521998Y-61023068D03*
%TD*%
D12*
%TO.C,TP3*%
X69596000Y-54864000D03*
%TD*%
D21*
%TO.C,J4*%
X168275000Y-82799000D03*
D22*
X168275000Y-85339000D03*
%TD*%
D15*
%TO.C,SW4*%
X111084502Y-92964000D03*
X104584500Y-92964000D03*
X111084502Y-88463999D03*
X104584500Y-88463999D03*
%TD*%
%TO.C,SW6*%
X78890002Y-92964000D03*
X72390000Y-92964000D03*
X78890002Y-88463999D03*
X72390000Y-88463999D03*
%TD*%
D12*
%TO.C,TP2*%
X79756000Y-49276000D03*
%TD*%
%TO.C,TP7*%
X60706000Y-41529000D03*
%TD*%
D15*
%TO.C,SW3*%
X127181752Y-92964000D03*
X120681750Y-92964000D03*
X127181752Y-88463999D03*
X120681750Y-88463999D03*
%TD*%
D12*
%TO.C,TP4*%
X94742000Y-47117000D03*
%TD*%
%TO.C,TP1*%
X61849000Y-78359000D03*
%TD*%
%TO.C,TP10*%
X163195000Y-49657000D03*
%TD*%
D13*
%TO.C,H1*%
X39383000Y-38608000D03*
X40085944Y-36910944D03*
X40085944Y-40305056D03*
X41783000Y-36208000D03*
D14*
X41783000Y-38608000D03*
D13*
X41783000Y-41008000D03*
X43480056Y-36910944D03*
X43480056Y-40305056D03*
X44183000Y-38608000D03*
%TD*%
D15*
%TO.C,SW5*%
X94987252Y-92964000D03*
X88487250Y-92964000D03*
X94987252Y-88463999D03*
X88487250Y-88463999D03*
%TD*%
D23*
%TO.C,J3*%
X176431061Y-66792899D03*
X176531137Y-58692900D03*
D24*
X171731139Y-64492899D03*
%TD*%
D12*
%TO.C,TP12*%
X165989000Y-66421000D03*
%TD*%
D21*
%TO.C,J5*%
X168275000Y-93218000D03*
D22*
X168275000Y-95758000D03*
%TD*%
D23*
%TO.C,J1*%
X60351924Y-92427999D03*
X60452000Y-84328000D03*
D24*
X55652002Y-90127999D03*
%TD*%
D12*
%TO.C,TP5*%
X118364000Y-104267000D03*
%TD*%
D13*
%TO.C,H3*%
X39383000Y-106887000D03*
X40085944Y-105189944D03*
X40085944Y-108584056D03*
X41783000Y-104487000D03*
D14*
X41783000Y-106887000D03*
D13*
X41783000Y-109287000D03*
X43480056Y-105189944D03*
X43480056Y-108584056D03*
X44183000Y-106887000D03*
%TD*%
D12*
%TO.C,TP6*%
X145669000Y-48895000D03*
%TD*%
D13*
%TO.C,H2*%
X175178000Y-38608000D03*
X175880944Y-36910944D03*
X175880944Y-40305056D03*
X177578000Y-36208000D03*
D14*
X177578000Y-38608000D03*
D13*
X177578000Y-41008000D03*
X179275056Y-36910944D03*
X179275056Y-40305056D03*
X179978000Y-38608000D03*
%TD*%
M02*
