M48
; DRILL file {KiCad 8.0.2} date 2024-05-21T21:06:22-0700
; FORMAT={-:-/ absolute / metric / decimal}
; #@! TF.CreationDate,2024-05-21T21:06:22-07:00
; #@! TF.GenerationSoftware,Kicad,Pcbnew,8.0.2
; #@! TF.FileFunction,Plated,1,2,PTH
FMAT,2
METRIC
; #@! TA.AperFunction,Plated,PTH,ViaDrill
T1C0.400
; #@! TA.AperFunction,Plated,PTH,ComponentDrill
T2C0.500
; #@! TA.AperFunction,Plated,PTH,ComponentDrill
T3C0.850
; #@! TA.AperFunction,Plated,PTH,ComponentDrill
T4C0.889
; #@! TA.AperFunction,Plated,PTH,ComponentDrill
T5C0.900
; #@! TA.AperFunction,Plated,PTH,ComponentDrill
T6C1.000
; #@! TA.AperFunction,Plated,PTH,ComponentDrill
T7C1.000
; #@! TA.AperFunction,Plated,PTH,ComponentDrill
T8C1.020
; #@! TA.AperFunction,Plated,PTH,ComponentDrill
T9C1.143
; #@! TA.AperFunction,Plated,PTH,ComponentDrill
T10C2.007
; #@! TA.AperFunction,Plated,PTH,ComponentDrill
T11C3.302
%
G90
G05
T1
X41.275Y-94.615
X42.545Y-50.8
X47.625Y-81.28
X49.149Y-42.926
X51.689Y-86.36
X53.34Y-106.045
X55.88Y-73.279
X56.261Y-43.815
X57.15Y-39.37
X58.547Y-62.992
X61.595Y-101.6
X62.611Y-52.832
X65.913Y-60.579
X69.596Y-64.643
X72.39Y-38.735
X73.279Y-77.089
X74.549Y-67.564
X76.581Y-102.743
X79.756Y-58.801
X83.185Y-43.18
X83.185Y-80.137
X83.566Y-90.678
X88.392Y-74.041
X89.535Y-51.562
X94.488Y-100.711
X96.139Y-82.296
X96.647Y-67.818
X98.044Y-73.279
X99.568Y-90.932
X103.886Y-100.584
X105.283Y-70.612
X107.061Y-66.04
X107.823Y-50.292
X108.966Y-104.902
X109.601Y-72.898
X112.268Y-84.074
X115.697Y-90.424
X119.761Y-53.975
X122.936Y-105.156
X127.254Y-85.344
X131.699Y-91.059
X143.764Y-73.533
X145.669Y-65.405
X146.05Y-56.896
X146.304Y-63.754
X147.701Y-60.325
X147.955Y-63.754
X148.336Y-87.122
X148.717Y-64.897
X149.606Y-60.198
X149.86Y-57.277
X150.495Y-43.18
X151.511Y-76.581
X152.273Y-63.881
X152.527Y-51.054
X153.289Y-66.421
X154.305Y-106.045
X154.559Y-76.581
X155.575Y-58.674
X155.575Y-65.278
X156.972Y-76.581
X157.353Y-47.371
X159.893Y-76.581
X160.655Y-66.675
X161.036Y-65.532
X162.306Y-79.248
X166.497Y-58.293
X168.275Y-38.735
X170.561Y-58.039
X176.403Y-76.835
T2
X39.383Y-38.608
X39.383Y-106.887
X40.086Y-36.911
X40.086Y-40.305
X40.086Y-105.19
X40.086Y-108.584
X41.783Y-36.208
X41.783Y-41.008
X41.783Y-104.487
X41.783Y-109.287
X43.48Y-36.911
X43.48Y-40.305
X43.48Y-105.19
X43.48Y-108.584
X44.183Y-38.608
X44.183Y-106.887
X175.178Y-38.608
X175.178Y-106.887
X175.881Y-36.911
X175.881Y-40.305
X175.881Y-105.19
X175.881Y-108.584
X177.578Y-36.208
X177.578Y-41.008
X177.578Y-104.487
X177.578Y-109.287
X179.275Y-36.911
X179.275Y-40.305
X179.275Y-105.19
X179.275Y-108.584
X179.978Y-38.608
X179.978Y-106.887
T4
X107.522Y-52.853
X107.522Y-71.153
X110.022Y-52.853
X110.022Y-71.153
X112.522Y-52.853
X112.522Y-71.153
X115.022Y-52.853
X115.022Y-71.153
X117.522Y-52.853
X117.522Y-71.153
T5
X78.613Y-43.18
X81.153Y-43.18
T6
X72.39Y-88.464
X72.39Y-92.964
X78.89Y-88.464
X78.89Y-92.964
X88.487Y-88.464
X88.487Y-92.964
X94.987Y-88.464
X94.987Y-92.964
X104.584Y-88.464
X104.584Y-92.964
X111.085Y-88.464
X111.085Y-92.964
X120.682Y-88.464
X120.682Y-92.964
X127.182Y-88.464
X127.182Y-92.964
X136.779Y-88.464
X136.779Y-92.964
X143.279Y-88.464
X143.279Y-92.964
T7
X168.275Y-82.799
X168.275Y-85.339
X168.275Y-93.218
X168.275Y-95.758
T8
X53.793Y-50.244
X53.793Y-53.244
X53.793Y-56.244
T9
X51.054Y-67.056
X60.706Y-41.529
X61.849Y-78.359
X67.564Y-41.529
X69.596Y-54.864
X79.756Y-49.276
X94.742Y-47.117
X118.364Y-104.267
X145.669Y-48.895
X163.195Y-49.657
X165.989Y-66.421
X170.815Y-52.07
T10
X104.522Y-61.023
X120.522Y-61.023
T11
X41.783Y-38.608
X41.783Y-106.887
X177.578Y-38.608
X177.578Y-106.887
T3
X55.652Y-91.103G85X55.652Y-89.153
G05
X59.377Y-92.428G85X61.327Y-92.428
G05
X59.477Y-84.328G85X61.427Y-84.328
G05
X171.731Y-65.468G85X171.731Y-63.518
G05
X175.456Y-66.793G85X177.406Y-66.793
G05
X175.556Y-58.693G85X177.506Y-58.693
G05
M30
