%TF.GenerationSoftware,KiCad,Pcbnew,8.0.2*%
%TF.CreationDate,2024-05-21T21:06:14-07:00*%
%TF.ProjectId,voltage ref calibration tool,766f6c74-6167-4652-9072-65662063616c,rev?*%
%TF.SameCoordinates,Original*%
%TF.FileFunction,Copper,L2,Bot*%
%TF.FilePolarity,Positive*%
%FSLAX46Y46*%
G04 Gerber Fmt 4.6, Leading zero omitted, Abs format (unit mm)*
G04 Created by KiCad (PCBNEW 8.0.2) date 2024-05-21 21:06:14*
%MOMM*%
%LPD*%
G01*
G04 APERTURE LIST*
%TA.AperFunction,ComponentPad*%
%ADD10R,1.800000X1.800000*%
%TD*%
%TA.AperFunction,ComponentPad*%
%ADD11C,1.800000*%
%TD*%
%TA.AperFunction,ComponentPad*%
%ADD12C,1.500000*%
%TD*%
%TA.AperFunction,ComponentPad*%
%ADD13C,0.950000*%
%TD*%
%TA.AperFunction,ComponentPad*%
%ADD14C,6.400000*%
%TD*%
%TA.AperFunction,ComponentPad*%
%ADD15C,1.507998*%
%TD*%
%TA.AperFunction,ComponentPad*%
%ADD16R,1.520000X1.520000*%
%TD*%
%TA.AperFunction,ComponentPad*%
%ADD17C,1.520000*%
%TD*%
%TA.AperFunction,ComponentPad*%
%ADD18C,1.397000*%
%TD*%
%TA.AperFunction,ComponentPad*%
%ADD19C,2.514600*%
%TD*%
%TA.AperFunction,ComponentPad*%
%ADD20R,1.700000X1.700000*%
%TD*%
%TA.AperFunction,ComponentPad*%
%ADD21O,1.700000X1.700000*%
%TD*%
%TA.AperFunction,ComponentPad*%
%ADD22O,3.700000X1.600000*%
%TD*%
%TA.AperFunction,ComponentPad*%
%ADD23O,1.600000X3.700000*%
%TD*%
%TA.AperFunction,ViaPad*%
%ADD24C,0.800000*%
%TD*%
%TA.AperFunction,Conductor*%
%ADD25C,0.500000*%
%TD*%
%TA.AperFunction,Conductor*%
%ADD26C,0.250000*%
%TD*%
G04 APERTURE END LIST*
D10*
%TO.P,D3,1,K*%
%TO.N,GND*%
X81153000Y-43180000D03*
D11*
%TO.P,D3,2,A*%
%TO.N,Net-(D3-A)*%
X78613000Y-43180000D03*
%TD*%
D12*
%TO.P,TP8,1,1*%
%TO.N,GND*%
X67564000Y-41529000D03*
%TD*%
%TO.P,TP9,1,1*%
%TO.N,Vcc-*%
X51054000Y-67056000D03*
%TD*%
%TO.P,TP11,1,1*%
%TO.N,/OUT*%
X170815000Y-52070000D03*
%TD*%
D13*
%TO.P,H4,1,1*%
%TO.N,GND*%
X175178000Y-106887000D03*
X175880944Y-105189944D03*
X175880944Y-108584056D03*
X177578000Y-104487000D03*
D14*
X177578000Y-106887000D03*
D13*
X177578000Y-109287000D03*
X179275056Y-105189944D03*
X179275056Y-108584056D03*
X179978000Y-106887000D03*
%TD*%
D15*
%TO.P,SW2,1,1*%
%TO.N,/REF5V0B*%
X143279002Y-92964000D03*
X136779000Y-92964000D03*
%TO.P,SW2,2,2*%
%TO.N,/BTN5V*%
X143279002Y-88463999D03*
X136779000Y-88463999D03*
%TD*%
D16*
%TO.P,J2,1,1*%
%TO.N,Vcc+*%
X53793000Y-50243999D03*
D17*
%TO.P,J2,2,2*%
%TO.N,GND*%
X53793000Y-53243998D03*
%TO.P,J2,3,3*%
%TO.N,Vcc-*%
X53793000Y-56243997D03*
%TD*%
D18*
%TO.P,SW1,1,1*%
%TO.N,/OctaveSelect*%
X117522000Y-71153000D03*
%TO.P,SW1,2,2*%
%TO.N,GND*%
X115022000Y-71153000D03*
%TO.P,SW1,3,3*%
%TO.N,Net-(R10-Pad1)*%
X112522000Y-71153000D03*
%TO.P,SW1,4,4*%
%TO.N,Net-(R8-Pad2)*%
X110022000Y-71153000D03*
%TO.P,SW1,5,5*%
%TO.N,Net-(R7-Pad2)*%
X107522000Y-71153000D03*
%TO.P,SW1,6,6*%
%TO.N,Net-(R6-Pad2)*%
X107522000Y-52853001D03*
%TO.P,SW1,7,7*%
%TO.N,/REF5V0A*%
X110022000Y-52853001D03*
%TO.P,SW1,8,NC*%
%TO.N,unconnected-(SW1-NC-Pad8)*%
X112522000Y-52853001D03*
%TO.P,SW1,9,NC*%
%TO.N,unconnected-(SW1-NC-Pad9)*%
X115022000Y-52853001D03*
%TO.P,SW1,10,NC*%
%TO.N,unconnected-(SW1-NC-Pad10)*%
X117522000Y-52853001D03*
D19*
%TO.P,SW1,11,NC*%
%TO.N,unconnected-(SW1-NC-Pad11)*%
X120522002Y-61023068D03*
%TO.P,SW1,12,NC*%
%TO.N,unconnected-(SW1-NC-Pad12)*%
X104521998Y-61023068D03*
%TD*%
D12*
%TO.P,TP3,1,1*%
%TO.N,/REF6B*%
X69596000Y-54864000D03*
%TD*%
D20*
%TO.P,J4,1,Pin_1*%
%TO.N,/OUT*%
X168275000Y-82799000D03*
D21*
%TO.P,J4,2,Pin_2*%
X168275000Y-85339000D03*
%TD*%
D15*
%TO.P,SW4,1,1*%
%TO.N,Net-(R13-Pad2)*%
X111084502Y-92964000D03*
X104584500Y-92964000D03*
%TO.P,SW4,2,2*%
%TO.N,/BTN2V*%
X111084502Y-88463999D03*
X104584500Y-88463999D03*
%TD*%
%TO.P,SW6,1,1*%
%TO.N,/ALT_BUF*%
X78890002Y-92964000D03*
X72390000Y-92964000D03*
%TO.P,SW6,2,2*%
%TO.N,/BTN_ALT*%
X78890002Y-88463999D03*
X72390000Y-88463999D03*
%TD*%
D12*
%TO.P,TP2,1,1*%
%TO.N,/REF6A*%
X79756000Y-49276000D03*
%TD*%
%TO.P,TP7,1,1*%
%TO.N,Vcc+*%
X60706000Y-41529000D03*
%TD*%
D15*
%TO.P,SW3,1,1*%
%TO.N,Net-(R12-Pad2)*%
X127181752Y-92964000D03*
X120681750Y-92964000D03*
%TO.P,SW3,2,2*%
%TO.N,/BTN3V*%
X127181752Y-88463999D03*
X120681750Y-88463999D03*
%TD*%
D12*
%TO.P,TP4,1,1*%
%TO.N,/REF5V0A*%
X94742000Y-47117000D03*
%TD*%
%TO.P,TP1,1,1*%
%TO.N,/ALT_V_IN*%
X61849000Y-78359000D03*
%TD*%
%TO.P,TP10,1,1*%
%TO.N,/VSUM*%
X163195000Y-49657000D03*
%TD*%
D13*
%TO.P,H1,1,1*%
%TO.N,GND*%
X39383000Y-38608000D03*
X40085944Y-36910944D03*
X40085944Y-40305056D03*
X41783000Y-36208000D03*
D14*
X41783000Y-38608000D03*
D13*
X41783000Y-41008000D03*
X43480056Y-36910944D03*
X43480056Y-40305056D03*
X44183000Y-38608000D03*
%TD*%
D15*
%TO.P,SW5,1,1*%
%TO.N,Net-(R14-Pad2)*%
X94987252Y-92964000D03*
X88487250Y-92964000D03*
%TO.P,SW5,2,2*%
%TO.N,/BTN1V*%
X94987252Y-88463999D03*
X88487250Y-88463999D03*
%TD*%
D22*
%TO.P,J3,S*%
%TO.N,Net-(J3-PadS)*%
X176431061Y-66792899D03*
%TO.P,J3,T*%
%TO.N,/OUT*%
X176531137Y-58692900D03*
D23*
%TO.P,J3,TN*%
%TO.N,unconnected-(J3-PadTN)*%
X171731139Y-64492899D03*
%TD*%
D12*
%TO.P,TP12,1,1*%
%TO.N,/VINV*%
X165989000Y-66421000D03*
%TD*%
D20*
%TO.P,J5,1,Pin_1*%
%TO.N,GND*%
X168275000Y-93218000D03*
D21*
%TO.P,J5,2,Pin_2*%
X168275000Y-95758000D03*
%TD*%
D22*
%TO.P,J1,S*%
%TO.N,unconnected-(J1-PadS)*%
X60351924Y-92427999D03*
%TO.P,J1,T*%
%TO.N,/ALT_V_IN*%
X60452000Y-84328000D03*
D23*
%TO.P,J1,TN*%
%TO.N,Net-(J1-PadTN)*%
X55652002Y-90127999D03*
%TD*%
D12*
%TO.P,TP5,1,1*%
%TO.N,/REF5V0B*%
X118364000Y-104267000D03*
%TD*%
D13*
%TO.P,H3,1,1*%
%TO.N,GND*%
X39383000Y-106887000D03*
X40085944Y-105189944D03*
X40085944Y-108584056D03*
X41783000Y-104487000D03*
D14*
X41783000Y-106887000D03*
D13*
X41783000Y-109287000D03*
X43480056Y-105189944D03*
X43480056Y-108584056D03*
X44183000Y-106887000D03*
%TD*%
D12*
%TO.P,TP6,1,1*%
%TO.N,/OctaveSelect*%
X145669000Y-48895000D03*
%TD*%
D13*
%TO.P,H2,1,1*%
%TO.N,GND*%
X175178000Y-38608000D03*
X175880944Y-36910944D03*
X175880944Y-40305056D03*
X177578000Y-36208000D03*
D14*
X177578000Y-38608000D03*
D13*
X177578000Y-41008000D03*
X179275056Y-36910944D03*
X179275056Y-40305056D03*
X179978000Y-38608000D03*
%TD*%
D24*
%TO.N,GND*%
X143764000Y-73533000D03*
X55880000Y-73279000D03*
X153289000Y-66421000D03*
X61595000Y-101600000D03*
X53340000Y-106045000D03*
X96139000Y-82296000D03*
X83566000Y-90678000D03*
X122936000Y-105156000D03*
X156972000Y-76581000D03*
X150495000Y-43180000D03*
X147701000Y-60325000D03*
X176403000Y-76835000D03*
X57150000Y-39370000D03*
X170561000Y-58039000D03*
X155575000Y-58674000D03*
X115697000Y-90424000D03*
X119761000Y-53975000D03*
X107061000Y-66040000D03*
X151511000Y-76581000D03*
X49149000Y-42926000D03*
X99568000Y-90932000D03*
X83185000Y-80137000D03*
X166497000Y-58293000D03*
X154559000Y-76581000D03*
X69596000Y-64643000D03*
X112268000Y-84074000D03*
X56261000Y-43815000D03*
X105283000Y-70612000D03*
X131699000Y-91059000D03*
X88392000Y-74041000D03*
X65913000Y-60579000D03*
X47625000Y-81280000D03*
X103886000Y-100584000D03*
X145669000Y-65405000D03*
X98044000Y-73279000D03*
X58547000Y-62992000D03*
X96647000Y-67818000D03*
X83185000Y-43180000D03*
X107823000Y-50292000D03*
X76581000Y-102743000D03*
X152527000Y-51054000D03*
X73279000Y-77089000D03*
X74549000Y-67564000D03*
X168275000Y-38735000D03*
X109601000Y-72898000D03*
X94488000Y-100711000D03*
X148336000Y-87122000D03*
X146050000Y-56896000D03*
X42545000Y-50800000D03*
X154305000Y-106045000D03*
X72390000Y-38735000D03*
X79756000Y-58801000D03*
X157353000Y-47371000D03*
X41275000Y-94615000D03*
X162306000Y-79248000D03*
X108966000Y-104902000D03*
X51689000Y-86360000D03*
X148717000Y-64897000D03*
X127254000Y-85344000D03*
X152273000Y-63881000D03*
X159893000Y-76581000D03*
X62611000Y-52832000D03*
X89535000Y-51562000D03*
X161036000Y-65532000D03*
%TO.N,Vcc-*%
X155575000Y-65278000D03*
X160655000Y-66675000D03*
%TO.N,Net-(U1B--)*%
X149860000Y-57277000D03*
X149606000Y-60198000D03*
%TO.N,/ALT_BUF*%
X146304000Y-63754000D03*
X147955000Y-63754000D03*
%TD*%
D25*
%TO.N,Vcc-*%
X160020000Y-67310000D02*
X160655000Y-66675000D01*
X155575000Y-66675000D02*
X155575000Y-65278000D01*
X155575000Y-66675000D02*
X156210000Y-67310000D01*
X156210000Y-67310000D02*
X160020000Y-67310000D01*
D26*
%TO.N,Net-(U1B--)*%
X149606000Y-60198000D02*
X149860000Y-59944000D01*
X149860000Y-59944000D02*
X149860000Y-57277000D01*
%TO.N,/ALT_BUF*%
X146304000Y-63754000D02*
X147955000Y-63754000D01*
%TD*%
%TA.AperFunction,Conductor*%
%TO.N,GND*%
G36*
X168525000Y-95324988D02*
G01*
X168467993Y-95292075D01*
X168340826Y-95258000D01*
X168209174Y-95258000D01*
X168082007Y-95292075D01*
X168025000Y-95324988D01*
X168025000Y-93651012D01*
X168082007Y-93683925D01*
X168209174Y-93718000D01*
X168340826Y-93718000D01*
X168467993Y-93683925D01*
X168525000Y-93651012D01*
X168525000Y-95324988D01*
G37*
%TD.AperFunction*%
%TA.AperFunction,Conductor*%
G36*
X182378922Y-33421280D02*
G01*
X182390877Y-33422627D01*
X182495083Y-33434368D01*
X182522143Y-33440544D01*
X182625869Y-33476840D01*
X182650879Y-33488883D01*
X182656242Y-33492253D01*
X182743930Y-33547351D01*
X182765639Y-33564664D01*
X182843335Y-33642360D01*
X182860648Y-33664069D01*
X182919114Y-33757117D01*
X182931161Y-33782134D01*
X182967453Y-33885849D01*
X182973632Y-33912920D01*
X182986720Y-34029077D01*
X182987500Y-34042961D01*
X182987500Y-111499038D01*
X182986720Y-111512922D01*
X182973632Y-111629079D01*
X182967453Y-111656150D01*
X182931161Y-111759865D01*
X182919114Y-111784882D01*
X182860648Y-111877930D01*
X182843335Y-111899639D01*
X182765639Y-111977335D01*
X182743930Y-111994648D01*
X182650882Y-112053114D01*
X182625865Y-112065161D01*
X182522150Y-112101453D01*
X182495079Y-112107632D01*
X182378923Y-112120720D01*
X182365039Y-112121500D01*
X37344961Y-112121500D01*
X37331077Y-112120720D01*
X37214920Y-112107632D01*
X37187849Y-112101453D01*
X37084134Y-112065161D01*
X37059117Y-112053114D01*
X36966069Y-111994648D01*
X36944360Y-111977335D01*
X36866664Y-111899639D01*
X36849351Y-111877930D01*
X36790885Y-111784882D01*
X36778840Y-111759869D01*
X36742544Y-111656143D01*
X36736368Y-111629083D01*
X36723280Y-111512921D01*
X36722500Y-111499038D01*
X36722500Y-104266997D01*
X117108723Y-104266997D01*
X117108723Y-104267002D01*
X117127793Y-104484975D01*
X117127793Y-104484979D01*
X117184422Y-104696322D01*
X117184424Y-104696326D01*
X117184425Y-104696330D01*
X117230661Y-104795484D01*
X117276897Y-104894638D01*
X117276898Y-104894639D01*
X117402402Y-105073877D01*
X117557123Y-105228598D01*
X117736361Y-105354102D01*
X117934670Y-105446575D01*
X118146023Y-105503207D01*
X118328926Y-105519208D01*
X118363998Y-105522277D01*
X118364000Y-105522277D01*
X118364002Y-105522277D01*
X118392254Y-105519805D01*
X118581977Y-105503207D01*
X118793330Y-105446575D01*
X118991639Y-105354102D01*
X119170877Y-105228598D01*
X119325598Y-105073877D01*
X119451102Y-104894639D01*
X119543575Y-104696330D01*
X119600207Y-104484977D01*
X119619277Y-104267000D01*
X119600207Y-104049023D01*
X119543575Y-103837670D01*
X119451102Y-103639362D01*
X119451100Y-103639359D01*
X119451099Y-103639357D01*
X119325599Y-103460124D01*
X119325596Y-103460121D01*
X119170877Y-103305402D01*
X118991639Y-103179898D01*
X118991640Y-103179898D01*
X118991638Y-103179897D01*
X118892484Y-103133661D01*
X118793330Y-103087425D01*
X118793326Y-103087424D01*
X118793322Y-103087422D01*
X118581977Y-103030793D01*
X118364002Y-103011723D01*
X118363998Y-103011723D01*
X118218682Y-103024436D01*
X118146023Y-103030793D01*
X118146020Y-103030793D01*
X117934677Y-103087422D01*
X117934668Y-103087426D01*
X117736361Y-103179898D01*
X117736357Y-103179900D01*
X117557121Y-103305402D01*
X117402402Y-103460121D01*
X117276900Y-103639357D01*
X117276898Y-103639361D01*
X117184426Y-103837668D01*
X117184422Y-103837677D01*
X117127793Y-104049020D01*
X117127793Y-104049024D01*
X117108723Y-104266997D01*
X36722500Y-104266997D01*
X36722500Y-88975647D01*
X54351502Y-88975647D01*
X54351502Y-91280350D01*
X54383524Y-91482533D01*
X54446783Y-91677222D01*
X54539717Y-91859612D01*
X54660030Y-92025212D01*
X54804788Y-92169970D01*
X54959751Y-92282555D01*
X54970392Y-92290286D01*
X55086609Y-92349502D01*
X55152778Y-92383217D01*
X55152780Y-92383217D01*
X55152783Y-92383219D01*
X55257139Y-92417126D01*
X55347467Y-92446476D01*
X55448559Y-92462487D01*
X55549650Y-92478499D01*
X55549651Y-92478499D01*
X55754353Y-92478499D01*
X55754354Y-92478499D01*
X55956536Y-92446476D01*
X56151221Y-92383219D01*
X56264212Y-92325647D01*
X58001424Y-92325647D01*
X58001424Y-92530350D01*
X58033446Y-92732533D01*
X58096705Y-92927222D01*
X58189639Y-93109612D01*
X58309952Y-93275212D01*
X58454710Y-93419970D01*
X58599284Y-93525007D01*
X58620314Y-93540286D01*
X58725031Y-93593642D01*
X58802700Y-93633217D01*
X58802702Y-93633217D01*
X58802705Y-93633219D01*
X58907061Y-93667126D01*
X58997389Y-93696476D01*
X59098481Y-93712487D01*
X59199572Y-93728499D01*
X59199573Y-93728499D01*
X61504275Y-93728499D01*
X61504276Y-93728499D01*
X61706458Y-93696476D01*
X61901143Y-93633219D01*
X62083534Y-93540286D01*
X62183028Y-93468000D01*
X62249137Y-93419970D01*
X62249139Y-93419967D01*
X62249143Y-93419965D01*
X62393890Y-93275218D01*
X62393892Y-93275214D01*
X62393895Y-93275212D01*
X62461126Y-93182675D01*
X62514211Y-93109609D01*
X62588404Y-92963997D01*
X71130709Y-92963997D01*
X71130709Y-92964002D01*
X71147171Y-93152174D01*
X71149840Y-93182674D01*
X71206654Y-93394703D01*
X71206655Y-93394706D01*
X71206656Y-93394708D01*
X71299420Y-93593642D01*
X71299424Y-93593650D01*
X71425323Y-93773452D01*
X71425328Y-93773458D01*
X71580541Y-93928671D01*
X71580547Y-93928676D01*
X71760349Y-94054575D01*
X71760351Y-94054576D01*
X71760354Y-94054578D01*
X71959297Y-94147346D01*
X72171326Y-94204160D01*
X72327521Y-94217825D01*
X72389998Y-94223291D01*
X72390000Y-94223291D01*
X72390002Y-94223291D01*
X72444668Y-94218508D01*
X72608674Y-94204160D01*
X72820703Y-94147346D01*
X73019646Y-94054578D01*
X73199457Y-93928673D01*
X73354673Y-93773457D01*
X73480578Y-93593646D01*
X73573346Y-93394703D01*
X73630160Y-93182674D01*
X73649291Y-92964000D01*
X73649291Y-92963997D01*
X77630711Y-92963997D01*
X77630711Y-92964002D01*
X77647173Y-93152174D01*
X77649842Y-93182674D01*
X77706656Y-93394703D01*
X77706657Y-93394706D01*
X77706658Y-93394708D01*
X77799422Y-93593642D01*
X77799426Y-93593650D01*
X77925325Y-93773452D01*
X77925330Y-93773458D01*
X78080543Y-93928671D01*
X78080549Y-93928676D01*
X78260351Y-94054575D01*
X78260353Y-94054576D01*
X78260356Y-94054578D01*
X78459299Y-94147346D01*
X78671328Y-94204160D01*
X78827523Y-94217825D01*
X78890000Y-94223291D01*
X78890002Y-94223291D01*
X78890004Y-94223291D01*
X78944670Y-94218508D01*
X79108676Y-94204160D01*
X79320705Y-94147346D01*
X79519648Y-94054578D01*
X79699459Y-93928673D01*
X79854675Y-93773457D01*
X79980580Y-93593646D01*
X80073348Y-93394703D01*
X80130162Y-93182674D01*
X80149293Y-92964000D01*
X80149293Y-92963997D01*
X87227959Y-92963997D01*
X87227959Y-92964002D01*
X87244421Y-93152174D01*
X87247090Y-93182674D01*
X87303904Y-93394703D01*
X87303905Y-93394706D01*
X87303906Y-93394708D01*
X87396670Y-93593642D01*
X87396674Y-93593650D01*
X87522573Y-93773452D01*
X87522578Y-93773458D01*
X87677791Y-93928671D01*
X87677797Y-93928676D01*
X87857599Y-94054575D01*
X87857601Y-94054576D01*
X87857604Y-94054578D01*
X88056547Y-94147346D01*
X88268576Y-94204160D01*
X88424771Y-94217825D01*
X88487248Y-94223291D01*
X88487250Y-94223291D01*
X88487252Y-94223291D01*
X88541918Y-94218508D01*
X88705924Y-94204160D01*
X88917953Y-94147346D01*
X89116896Y-94054578D01*
X89296707Y-93928673D01*
X89451923Y-93773457D01*
X89577828Y-93593646D01*
X89670596Y-93394703D01*
X89727410Y-93182674D01*
X89746541Y-92964000D01*
X89746541Y-92963997D01*
X93727961Y-92963997D01*
X93727961Y-92964002D01*
X93744423Y-93152174D01*
X93747092Y-93182674D01*
X93803906Y-93394703D01*
X93803907Y-93394706D01*
X93803908Y-93394708D01*
X93896672Y-93593642D01*
X93896676Y-93593650D01*
X94022575Y-93773452D01*
X94022580Y-93773458D01*
X94177793Y-93928671D01*
X94177799Y-93928676D01*
X94357601Y-94054575D01*
X94357603Y-94054576D01*
X94357606Y-94054578D01*
X94556549Y-94147346D01*
X94768578Y-94204160D01*
X94924773Y-94217825D01*
X94987250Y-94223291D01*
X94987252Y-94223291D01*
X94987254Y-94223291D01*
X95041920Y-94218508D01*
X95205926Y-94204160D01*
X95417955Y-94147346D01*
X95616898Y-94054578D01*
X95796709Y-93928673D01*
X95951925Y-93773457D01*
X96077830Y-93593646D01*
X96170598Y-93394703D01*
X96227412Y-93182674D01*
X96246543Y-92964000D01*
X96246543Y-92963997D01*
X103325209Y-92963997D01*
X103325209Y-92964002D01*
X103341671Y-93152174D01*
X103344340Y-93182674D01*
X103401154Y-93394703D01*
X103401155Y-93394706D01*
X103401156Y-93394708D01*
X103493920Y-93593642D01*
X103493924Y-93593650D01*
X103619823Y-93773452D01*
X103619828Y-93773458D01*
X103775041Y-93928671D01*
X103775047Y-93928676D01*
X103954849Y-94054575D01*
X103954851Y-94054576D01*
X103954854Y-94054578D01*
X104153797Y-94147346D01*
X104365826Y-94204160D01*
X104522021Y-94217825D01*
X104584498Y-94223291D01*
X104584500Y-94223291D01*
X104584502Y-94223291D01*
X104639168Y-94218508D01*
X104803174Y-94204160D01*
X105015203Y-94147346D01*
X105214146Y-94054578D01*
X105393957Y-93928673D01*
X105549173Y-93773457D01*
X105675078Y-93593646D01*
X105767846Y-93394703D01*
X105824660Y-93182674D01*
X105843791Y-92964000D01*
X105843791Y-92963997D01*
X109825211Y-92963997D01*
X109825211Y-92964002D01*
X109841673Y-93152174D01*
X109844342Y-93182674D01*
X109901156Y-93394703D01*
X109901157Y-93394706D01*
X109901158Y-93394708D01*
X109993922Y-93593642D01*
X109993926Y-93593650D01*
X110119825Y-93773452D01*
X110119830Y-93773458D01*
X110275043Y-93928671D01*
X110275049Y-93928676D01*
X110454851Y-94054575D01*
X110454853Y-94054576D01*
X110454856Y-94054578D01*
X110653799Y-94147346D01*
X110865828Y-94204160D01*
X111022023Y-94217825D01*
X111084500Y-94223291D01*
X111084502Y-94223291D01*
X111084504Y-94223291D01*
X111139170Y-94218508D01*
X111303176Y-94204160D01*
X111515205Y-94147346D01*
X111714148Y-94054578D01*
X111893959Y-93928673D01*
X112049175Y-93773457D01*
X112175080Y-93593646D01*
X112267848Y-93394703D01*
X112324662Y-93182674D01*
X112343793Y-92964000D01*
X112343793Y-92963997D01*
X119422459Y-92963997D01*
X119422459Y-92964002D01*
X119438921Y-93152174D01*
X119441590Y-93182674D01*
X119498404Y-93394703D01*
X119498405Y-93394706D01*
X119498406Y-93394708D01*
X119591170Y-93593642D01*
X119591174Y-93593650D01*
X119717073Y-93773452D01*
X119717078Y-93773458D01*
X119872291Y-93928671D01*
X119872297Y-93928676D01*
X120052099Y-94054575D01*
X120052101Y-94054576D01*
X120052104Y-94054578D01*
X120251047Y-94147346D01*
X120463076Y-94204160D01*
X120619271Y-94217825D01*
X120681748Y-94223291D01*
X120681750Y-94223291D01*
X120681752Y-94223291D01*
X120736418Y-94218508D01*
X120900424Y-94204160D01*
X121112453Y-94147346D01*
X121311396Y-94054578D01*
X121491207Y-93928673D01*
X121646423Y-93773457D01*
X121772328Y-93593646D01*
X121865096Y-93394703D01*
X121921910Y-93182674D01*
X121941041Y-92964000D01*
X121941041Y-92963997D01*
X125922461Y-92963997D01*
X125922461Y-92964002D01*
X125938923Y-93152174D01*
X125941592Y-93182674D01*
X125998406Y-93394703D01*
X125998407Y-93394706D01*
X125998408Y-93394708D01*
X126091172Y-93593642D01*
X126091176Y-93593650D01*
X126217075Y-93773452D01*
X126217080Y-93773458D01*
X126372293Y-93928671D01*
X126372299Y-93928676D01*
X126552101Y-94054575D01*
X126552103Y-94054576D01*
X126552106Y-94054578D01*
X126751049Y-94147346D01*
X126963078Y-94204160D01*
X127119273Y-94217825D01*
X127181750Y-94223291D01*
X127181752Y-94223291D01*
X127181754Y-94223291D01*
X127236420Y-94218508D01*
X127400426Y-94204160D01*
X127612455Y-94147346D01*
X127811398Y-94054578D01*
X127991209Y-93928673D01*
X128146425Y-93773457D01*
X128272330Y-93593646D01*
X128365098Y-93394703D01*
X128421912Y-93182674D01*
X128441043Y-92964000D01*
X128441043Y-92963997D01*
X135519709Y-92963997D01*
X135519709Y-92964002D01*
X135536171Y-93152174D01*
X135538840Y-93182674D01*
X135595654Y-93394703D01*
X135595655Y-93394706D01*
X135595656Y-93394708D01*
X135688420Y-93593642D01*
X135688424Y-93593650D01*
X135814323Y-93773452D01*
X135814328Y-93773458D01*
X135969541Y-93928671D01*
X135969547Y-93928676D01*
X136149349Y-94054575D01*
X136149351Y-94054576D01*
X136149354Y-94054578D01*
X136348297Y-94147346D01*
X136560326Y-94204160D01*
X136716521Y-94217825D01*
X136778998Y-94223291D01*
X136779000Y-94223291D01*
X136779002Y-94223291D01*
X136833668Y-94218508D01*
X136997674Y-94204160D01*
X137209703Y-94147346D01*
X137408646Y-94054578D01*
X137588457Y-93928673D01*
X137743673Y-93773457D01*
X137869578Y-93593646D01*
X137962346Y-93394703D01*
X138019160Y-93182674D01*
X138038291Y-92964000D01*
X138038291Y-92963997D01*
X142019711Y-92963997D01*
X142019711Y-92964002D01*
X142036173Y-93152174D01*
X142038842Y-93182674D01*
X142095656Y-93394703D01*
X142095657Y-93394706D01*
X142095658Y-93394708D01*
X142188422Y-93593642D01*
X142188426Y-93593650D01*
X142314325Y-93773452D01*
X142314330Y-93773458D01*
X142469543Y-93928671D01*
X142469549Y-93928676D01*
X142649351Y-94054575D01*
X142649353Y-94054576D01*
X142649356Y-94054578D01*
X142848299Y-94147346D01*
X143060328Y-94204160D01*
X143216523Y-94217825D01*
X143279000Y-94223291D01*
X143279002Y-94223291D01*
X143279004Y-94223291D01*
X143333670Y-94218508D01*
X143497676Y-94204160D01*
X143709705Y-94147346D01*
X143908648Y-94054578D01*
X144088459Y-93928673D01*
X144243675Y-93773457D01*
X144369580Y-93593646D01*
X144462348Y-93394703D01*
X144519162Y-93182674D01*
X144538293Y-92964000D01*
X144535075Y-92927222D01*
X144519162Y-92745331D01*
X144519162Y-92745326D01*
X144462348Y-92533297D01*
X144369580Y-92334355D01*
X144359637Y-92320155D01*
X166925000Y-92320155D01*
X166925000Y-92968000D01*
X167841988Y-92968000D01*
X167809075Y-93025007D01*
X167775000Y-93152174D01*
X167775000Y-93283826D01*
X167809075Y-93410993D01*
X167841988Y-93468000D01*
X166925000Y-93468000D01*
X166925000Y-94115844D01*
X166931401Y-94175372D01*
X166931403Y-94175379D01*
X166981645Y-94310086D01*
X166981649Y-94310093D01*
X167067809Y-94425187D01*
X167067812Y-94425190D01*
X167182906Y-94511350D01*
X167182913Y-94511354D01*
X167314986Y-94560614D01*
X167370920Y-94602485D01*
X167395337Y-94667949D01*
X167380486Y-94736222D01*
X167359335Y-94764477D01*
X167236886Y-94886926D01*
X167101400Y-95080420D01*
X167101399Y-95080422D01*
X167001570Y-95294507D01*
X167001567Y-95294513D01*
X166944364Y-95507999D01*
X166944364Y-95508000D01*
X167841988Y-95508000D01*
X167809075Y-95565007D01*
X167775000Y-95692174D01*
X167775000Y-95823826D01*
X167809075Y-95950993D01*
X167841988Y-96008000D01*
X166944364Y-96008000D01*
X167001567Y-96221486D01*
X167001570Y-96221492D01*
X167101399Y-96435578D01*
X167236894Y-96629082D01*
X167403917Y-96796105D01*
X167597421Y-96931600D01*
X167811507Y-97031429D01*
X167811516Y-97031433D01*
X168025000Y-97088634D01*
X168025000Y-96191012D01*
X168082007Y-96223925D01*
X168209174Y-96258000D01*
X168340826Y-96258000D01*
X168467993Y-96223925D01*
X168525000Y-96191012D01*
X168525000Y-97088633D01*
X168738483Y-97031433D01*
X168738492Y-97031429D01*
X168952578Y-96931600D01*
X169146082Y-96796105D01*
X169313105Y-96629082D01*
X169448600Y-96435578D01*
X169548429Y-96221492D01*
X169548432Y-96221486D01*
X169605636Y-96008000D01*
X168708012Y-96008000D01*
X168740925Y-95950993D01*
X168775000Y-95823826D01*
X168775000Y-95692174D01*
X168740925Y-95565007D01*
X168708012Y-95508000D01*
X169605636Y-95508000D01*
X169605635Y-95507999D01*
X169548432Y-95294513D01*
X169548429Y-95294507D01*
X169448600Y-95080422D01*
X169448599Y-95080420D01*
X169313113Y-94886926D01*
X169313108Y-94886920D01*
X169190665Y-94764477D01*
X169157180Y-94703154D01*
X169162164Y-94633462D01*
X169204036Y-94577529D01*
X169235013Y-94560614D01*
X169367086Y-94511354D01*
X169367093Y-94511350D01*
X169482187Y-94425190D01*
X169482190Y-94425187D01*
X169568350Y-94310093D01*
X169568354Y-94310086D01*
X169618596Y-94175379D01*
X169618598Y-94175372D01*
X169624999Y-94115844D01*
X169625000Y-94115827D01*
X169625000Y-93468000D01*
X168708012Y-93468000D01*
X168740925Y-93410993D01*
X168775000Y-93283826D01*
X168775000Y-93152174D01*
X168740925Y-93025007D01*
X168708012Y-92968000D01*
X169625000Y-92968000D01*
X169625000Y-92320172D01*
X169624999Y-92320155D01*
X169618598Y-92260627D01*
X169618596Y-92260620D01*
X169568354Y-92125913D01*
X169568350Y-92125906D01*
X169482190Y-92010812D01*
X169482187Y-92010809D01*
X169367093Y-91924649D01*
X169367086Y-91924645D01*
X169232379Y-91874403D01*
X169232372Y-91874401D01*
X169172844Y-91868000D01*
X168525000Y-91868000D01*
X168525000Y-92784988D01*
X168467993Y-92752075D01*
X168340826Y-92718000D01*
X168209174Y-92718000D01*
X168082007Y-92752075D01*
X168025000Y-92784988D01*
X168025000Y-91868000D01*
X167377155Y-91868000D01*
X167317627Y-91874401D01*
X167317620Y-91874403D01*
X167182913Y-91924645D01*
X167182906Y-91924649D01*
X167067812Y-92010809D01*
X167067809Y-92010812D01*
X166981649Y-92125906D01*
X166981645Y-92125913D01*
X166931403Y-92260620D01*
X166931401Y-92260627D01*
X166925000Y-92320155D01*
X144359637Y-92320155D01*
X144243675Y-92154543D01*
X144088459Y-91999327D01*
X144088455Y-91999324D01*
X144088454Y-91999323D01*
X143908652Y-91873424D01*
X143908644Y-91873420D01*
X143709710Y-91780656D01*
X143709708Y-91780655D01*
X143709705Y-91780654D01*
X143558887Y-91740241D01*
X143497677Y-91723840D01*
X143497670Y-91723839D01*
X143279004Y-91704709D01*
X143279000Y-91704709D01*
X143060333Y-91723839D01*
X143060326Y-91723840D01*
X142848295Y-91780655D01*
X142649358Y-91873421D01*
X142649356Y-91873422D01*
X142469542Y-91999328D01*
X142314330Y-92154540D01*
X142188424Y-92334354D01*
X142188423Y-92334356D01*
X142095657Y-92533293D01*
X142038842Y-92745324D01*
X142038841Y-92745331D01*
X142019711Y-92963997D01*
X138038291Y-92963997D01*
X138035073Y-92927222D01*
X138019160Y-92745331D01*
X138019160Y-92745326D01*
X137962346Y-92533297D01*
X137869578Y-92334355D01*
X137743673Y-92154543D01*
X137588457Y-91999327D01*
X137588453Y-91999324D01*
X137588452Y-91999323D01*
X137408650Y-91873424D01*
X137408642Y-91873420D01*
X137209708Y-91780656D01*
X137209706Y-91780655D01*
X137209703Y-91780654D01*
X137058885Y-91740241D01*
X136997675Y-91723840D01*
X136997668Y-91723839D01*
X136779002Y-91704709D01*
X136778998Y-91704709D01*
X136560331Y-91723839D01*
X136560324Y-91723840D01*
X136348293Y-91780655D01*
X136149356Y-91873421D01*
X136149354Y-91873422D01*
X135969540Y-91999328D01*
X135814328Y-92154540D01*
X135688422Y-92334354D01*
X135688421Y-92334356D01*
X135595655Y-92533293D01*
X135538840Y-92745324D01*
X135538839Y-92745331D01*
X135519709Y-92963997D01*
X128441043Y-92963997D01*
X128437825Y-92927222D01*
X128421912Y-92745331D01*
X128421912Y-92745326D01*
X128365098Y-92533297D01*
X128272330Y-92334355D01*
X128146425Y-92154543D01*
X127991209Y-91999327D01*
X127991205Y-91999324D01*
X127991204Y-91999323D01*
X127811402Y-91873424D01*
X127811394Y-91873420D01*
X127612460Y-91780656D01*
X127612458Y-91780655D01*
X127612455Y-91780654D01*
X127461637Y-91740241D01*
X127400427Y-91723840D01*
X127400420Y-91723839D01*
X127181754Y-91704709D01*
X127181750Y-91704709D01*
X126963083Y-91723839D01*
X126963076Y-91723840D01*
X126751045Y-91780655D01*
X126552108Y-91873421D01*
X126552106Y-91873422D01*
X126372292Y-91999328D01*
X126217080Y-92154540D01*
X126091174Y-92334354D01*
X126091173Y-92334356D01*
X125998407Y-92533293D01*
X125941592Y-92745324D01*
X125941591Y-92745331D01*
X125922461Y-92963997D01*
X121941041Y-92963997D01*
X121937823Y-92927222D01*
X121921910Y-92745331D01*
X121921910Y-92745326D01*
X121865096Y-92533297D01*
X121772328Y-92334355D01*
X121646423Y-92154543D01*
X121491207Y-91999327D01*
X121491203Y-91999324D01*
X121491202Y-91999323D01*
X121311400Y-91873424D01*
X121311392Y-91873420D01*
X121112458Y-91780656D01*
X121112456Y-91780655D01*
X121112453Y-91780654D01*
X120961635Y-91740241D01*
X120900425Y-91723840D01*
X120900418Y-91723839D01*
X120681752Y-91704709D01*
X120681748Y-91704709D01*
X120463081Y-91723839D01*
X120463074Y-91723840D01*
X120251043Y-91780655D01*
X120052106Y-91873421D01*
X120052104Y-91873422D01*
X119872290Y-91999328D01*
X119717078Y-92154540D01*
X119591172Y-92334354D01*
X119591171Y-92334356D01*
X119498405Y-92533293D01*
X119441590Y-92745324D01*
X119441589Y-92745331D01*
X119422459Y-92963997D01*
X112343793Y-92963997D01*
X112340575Y-92927222D01*
X112324662Y-92745331D01*
X112324662Y-92745326D01*
X112267848Y-92533297D01*
X112175080Y-92334355D01*
X112049175Y-92154543D01*
X111893959Y-91999327D01*
X111893955Y-91999324D01*
X111893954Y-91999323D01*
X111714152Y-91873424D01*
X111714144Y-91873420D01*
X111515210Y-91780656D01*
X111515208Y-91780655D01*
X111515205Y-91780654D01*
X111364387Y-91740241D01*
X111303177Y-91723840D01*
X111303170Y-91723839D01*
X111084504Y-91704709D01*
X111084500Y-91704709D01*
X110865833Y-91723839D01*
X110865826Y-91723840D01*
X110653795Y-91780655D01*
X110454858Y-91873421D01*
X110454856Y-91873422D01*
X110275042Y-91999328D01*
X110119830Y-92154540D01*
X109993924Y-92334354D01*
X109993923Y-92334356D01*
X109901157Y-92533293D01*
X109844342Y-92745324D01*
X109844341Y-92745331D01*
X109825211Y-92963997D01*
X105843791Y-92963997D01*
X105840573Y-92927222D01*
X105824660Y-92745331D01*
X105824660Y-92745326D01*
X105767846Y-92533297D01*
X105675078Y-92334355D01*
X105549173Y-92154543D01*
X105393957Y-91999327D01*
X105393953Y-91999324D01*
X105393952Y-91999323D01*
X105214150Y-91873424D01*
X105214142Y-91873420D01*
X105015208Y-91780656D01*
X105015206Y-91780655D01*
X105015203Y-91780654D01*
X104864385Y-91740241D01*
X104803175Y-91723840D01*
X104803168Y-91723839D01*
X104584502Y-91704709D01*
X104584498Y-91704709D01*
X104365831Y-91723839D01*
X104365824Y-91723840D01*
X104153793Y-91780655D01*
X103954856Y-91873421D01*
X103954854Y-91873422D01*
X103775040Y-91999328D01*
X103619828Y-92154540D01*
X103493922Y-92334354D01*
X103493921Y-92334356D01*
X103401155Y-92533293D01*
X103344340Y-92745324D01*
X103344339Y-92745331D01*
X103325209Y-92963997D01*
X96246543Y-92963997D01*
X96243325Y-92927222D01*
X96227412Y-92745331D01*
X96227412Y-92745326D01*
X96170598Y-92533297D01*
X96077830Y-92334355D01*
X95951925Y-92154543D01*
X95796709Y-91999327D01*
X95796705Y-91999324D01*
X95796704Y-91999323D01*
X95616902Y-91873424D01*
X95616894Y-91873420D01*
X95417960Y-91780656D01*
X95417958Y-91780655D01*
X95417955Y-91780654D01*
X95267137Y-91740241D01*
X95205927Y-91723840D01*
X95205920Y-91723839D01*
X94987254Y-91704709D01*
X94987250Y-91704709D01*
X94768583Y-91723839D01*
X94768576Y-91723840D01*
X94556545Y-91780655D01*
X94357608Y-91873421D01*
X94357606Y-91873422D01*
X94177792Y-91999328D01*
X94022580Y-92154540D01*
X93896674Y-92334354D01*
X93896673Y-92334356D01*
X93803907Y-92533293D01*
X93747092Y-92745324D01*
X93747091Y-92745331D01*
X93727961Y-92963997D01*
X89746541Y-92963997D01*
X89743323Y-92927222D01*
X89727410Y-92745331D01*
X89727410Y-92745326D01*
X89670596Y-92533297D01*
X89577828Y-92334355D01*
X89451923Y-92154543D01*
X89296707Y-91999327D01*
X89296703Y-91999324D01*
X89296702Y-91999323D01*
X89116900Y-91873424D01*
X89116892Y-91873420D01*
X88917958Y-91780656D01*
X88917956Y-91780655D01*
X88917953Y-91780654D01*
X88767135Y-91740241D01*
X88705925Y-91723840D01*
X88705918Y-91723839D01*
X88487252Y-91704709D01*
X88487248Y-91704709D01*
X88268581Y-91723839D01*
X88268574Y-91723840D01*
X88056543Y-91780655D01*
X87857606Y-91873421D01*
X87857604Y-91873422D01*
X87677790Y-91999328D01*
X87522578Y-92154540D01*
X87396672Y-92334354D01*
X87396671Y-92334356D01*
X87303905Y-92533293D01*
X87247090Y-92745324D01*
X87247089Y-92745331D01*
X87227959Y-92963997D01*
X80149293Y-92963997D01*
X80146075Y-92927222D01*
X80130162Y-92745331D01*
X80130162Y-92745326D01*
X80073348Y-92533297D01*
X79980580Y-92334355D01*
X79854675Y-92154543D01*
X79699459Y-91999327D01*
X79699455Y-91999324D01*
X79699454Y-91999323D01*
X79519652Y-91873424D01*
X79519644Y-91873420D01*
X79320710Y-91780656D01*
X79320708Y-91780655D01*
X79320705Y-91780654D01*
X79169887Y-91740241D01*
X79108677Y-91723840D01*
X79108670Y-91723839D01*
X78890004Y-91704709D01*
X78890000Y-91704709D01*
X78671333Y-91723839D01*
X78671326Y-91723840D01*
X78459295Y-91780655D01*
X78260358Y-91873421D01*
X78260356Y-91873422D01*
X78080542Y-91999328D01*
X77925330Y-92154540D01*
X77799424Y-92334354D01*
X77799423Y-92334356D01*
X77706657Y-92533293D01*
X77649842Y-92745324D01*
X77649841Y-92745331D01*
X77630711Y-92963997D01*
X73649291Y-92963997D01*
X73646073Y-92927222D01*
X73630160Y-92745331D01*
X73630160Y-92745326D01*
X73573346Y-92533297D01*
X73480578Y-92334355D01*
X73354673Y-92154543D01*
X73199457Y-91999327D01*
X73199453Y-91999324D01*
X73199452Y-91999323D01*
X73019650Y-91873424D01*
X73019642Y-91873420D01*
X72820708Y-91780656D01*
X72820706Y-91780655D01*
X72820703Y-91780654D01*
X72669885Y-91740241D01*
X72608675Y-91723840D01*
X72608668Y-91723839D01*
X72390002Y-91704709D01*
X72389998Y-91704709D01*
X72171331Y-91723839D01*
X72171324Y-91723840D01*
X71959293Y-91780655D01*
X71760356Y-91873421D01*
X71760354Y-91873422D01*
X71580540Y-91999328D01*
X71425328Y-92154540D01*
X71299422Y-92334354D01*
X71299421Y-92334356D01*
X71206655Y-92533293D01*
X71149840Y-92745324D01*
X71149839Y-92745331D01*
X71130709Y-92963997D01*
X62588404Y-92963997D01*
X62607144Y-92927218D01*
X62670401Y-92732533D01*
X62702424Y-92530351D01*
X62702424Y-92325647D01*
X62670401Y-92123465D01*
X62607144Y-91928780D01*
X62607142Y-91928777D01*
X62607142Y-91928775D01*
X62571900Y-91859609D01*
X62514211Y-91746389D01*
X62463956Y-91677218D01*
X62393895Y-91580785D01*
X62249137Y-91436027D01*
X62083537Y-91315714D01*
X62083536Y-91315713D01*
X62083534Y-91315712D01*
X62014132Y-91280350D01*
X61901147Y-91222780D01*
X61706458Y-91159521D01*
X61531919Y-91131877D01*
X61504276Y-91127499D01*
X59199572Y-91127499D01*
X59175253Y-91131350D01*
X58997389Y-91159521D01*
X58802700Y-91222780D01*
X58620310Y-91315714D01*
X58454710Y-91436027D01*
X58309952Y-91580785D01*
X58189639Y-91746385D01*
X58096705Y-91928775D01*
X58033446Y-92123464D01*
X58001424Y-92325647D01*
X56264212Y-92325647D01*
X56333612Y-92290286D01*
X56426592Y-92222731D01*
X56499215Y-92169970D01*
X56499217Y-92169967D01*
X56499221Y-92169965D01*
X56643968Y-92025218D01*
X56643970Y-92025214D01*
X56643973Y-92025212D01*
X56717038Y-91924645D01*
X56764289Y-91859609D01*
X56857222Y-91677218D01*
X56920479Y-91482533D01*
X56952502Y-91280351D01*
X56952502Y-88975647D01*
X56920479Y-88773465D01*
X56857222Y-88578780D01*
X56857220Y-88578777D01*
X56857220Y-88578775D01*
X56798738Y-88463999D01*
X56798736Y-88463996D01*
X71130709Y-88463996D01*
X71130709Y-88464001D01*
X71140750Y-88578780D01*
X71149840Y-88682673D01*
X71206654Y-88894702D01*
X71206655Y-88894705D01*
X71206656Y-88894707D01*
X71299420Y-89093641D01*
X71299424Y-89093649D01*
X71425323Y-89273451D01*
X71425328Y-89273457D01*
X71580541Y-89428670D01*
X71580547Y-89428675D01*
X71760349Y-89554574D01*
X71760351Y-89554575D01*
X71760354Y-89554577D01*
X71959297Y-89647345D01*
X72171326Y-89704159D01*
X72327521Y-89717824D01*
X72389998Y-89723290D01*
X72390000Y-89723290D01*
X72390002Y-89723290D01*
X72444668Y-89718507D01*
X72608674Y-89704159D01*
X72820703Y-89647345D01*
X73019646Y-89554577D01*
X73199457Y-89428672D01*
X73354673Y-89273456D01*
X73480578Y-89093645D01*
X73573346Y-88894702D01*
X73630160Y-88682673D01*
X73649291Y-88463999D01*
X73649291Y-88463996D01*
X77630711Y-88463996D01*
X77630711Y-88464001D01*
X77640752Y-88578780D01*
X77649842Y-88682673D01*
X77706656Y-88894702D01*
X77706657Y-88894705D01*
X77706658Y-88894707D01*
X77799422Y-89093641D01*
X77799426Y-89093649D01*
X77925325Y-89273451D01*
X77925330Y-89273457D01*
X78080543Y-89428670D01*
X78080549Y-89428675D01*
X78260351Y-89554574D01*
X78260353Y-89554575D01*
X78260356Y-89554577D01*
X78459299Y-89647345D01*
X78671328Y-89704159D01*
X78827523Y-89717824D01*
X78890000Y-89723290D01*
X78890002Y-89723290D01*
X78890004Y-89723290D01*
X78944670Y-89718507D01*
X79108676Y-89704159D01*
X79320705Y-89647345D01*
X79519648Y-89554577D01*
X79699459Y-89428672D01*
X79854675Y-89273456D01*
X79980580Y-89093645D01*
X80073348Y-88894702D01*
X80130162Y-88682673D01*
X80149293Y-88463999D01*
X80149293Y-88463996D01*
X87227959Y-88463996D01*
X87227959Y-88464001D01*
X87238000Y-88578780D01*
X87247090Y-88682673D01*
X87303904Y-88894702D01*
X87303905Y-88894705D01*
X87303906Y-88894707D01*
X87396670Y-89093641D01*
X87396674Y-89093649D01*
X87522573Y-89273451D01*
X87522578Y-89273457D01*
X87677791Y-89428670D01*
X87677797Y-89428675D01*
X87857599Y-89554574D01*
X87857601Y-89554575D01*
X87857604Y-89554577D01*
X88056547Y-89647345D01*
X88268576Y-89704159D01*
X88424771Y-89717824D01*
X88487248Y-89723290D01*
X88487250Y-89723290D01*
X88487252Y-89723290D01*
X88541918Y-89718507D01*
X88705924Y-89704159D01*
X88917953Y-89647345D01*
X89116896Y-89554577D01*
X89296707Y-89428672D01*
X89451923Y-89273456D01*
X89577828Y-89093645D01*
X89670596Y-88894702D01*
X89727410Y-88682673D01*
X89746541Y-88463999D01*
X89746541Y-88463996D01*
X93727961Y-88463996D01*
X93727961Y-88464001D01*
X93738002Y-88578780D01*
X93747092Y-88682673D01*
X93803906Y-88894702D01*
X93803907Y-88894705D01*
X93803908Y-88894707D01*
X93896672Y-89093641D01*
X93896676Y-89093649D01*
X94022575Y-89273451D01*
X94022580Y-89273457D01*
X94177793Y-89428670D01*
X94177799Y-89428675D01*
X94357601Y-89554574D01*
X94357603Y-89554575D01*
X94357606Y-89554577D01*
X94556549Y-89647345D01*
X94768578Y-89704159D01*
X94924773Y-89717824D01*
X94987250Y-89723290D01*
X94987252Y-89723290D01*
X94987254Y-89723290D01*
X95041920Y-89718507D01*
X95205926Y-89704159D01*
X95417955Y-89647345D01*
X95616898Y-89554577D01*
X95796709Y-89428672D01*
X95951925Y-89273456D01*
X96077830Y-89093645D01*
X96170598Y-88894702D01*
X96227412Y-88682673D01*
X96246543Y-88463999D01*
X96246543Y-88463996D01*
X103325209Y-88463996D01*
X103325209Y-88464001D01*
X103335250Y-88578780D01*
X103344340Y-88682673D01*
X103401154Y-88894702D01*
X103401155Y-88894705D01*
X103401156Y-88894707D01*
X103493920Y-89093641D01*
X103493924Y-89093649D01*
X103619823Y-89273451D01*
X103619828Y-89273457D01*
X103775041Y-89428670D01*
X103775047Y-89428675D01*
X103954849Y-89554574D01*
X103954851Y-89554575D01*
X103954854Y-89554577D01*
X104153797Y-89647345D01*
X104365826Y-89704159D01*
X104522021Y-89717824D01*
X104584498Y-89723290D01*
X104584500Y-89723290D01*
X104584502Y-89723290D01*
X104639168Y-89718507D01*
X104803174Y-89704159D01*
X105015203Y-89647345D01*
X105214146Y-89554577D01*
X105393957Y-89428672D01*
X105549173Y-89273456D01*
X105675078Y-89093645D01*
X105767846Y-88894702D01*
X105824660Y-88682673D01*
X105843791Y-88463999D01*
X105843791Y-88463996D01*
X109825211Y-88463996D01*
X109825211Y-88464001D01*
X109835252Y-88578780D01*
X109844342Y-88682673D01*
X109901156Y-88894702D01*
X109901157Y-88894705D01*
X109901158Y-88894707D01*
X109993922Y-89093641D01*
X109993926Y-89093649D01*
X110119825Y-89273451D01*
X110119830Y-89273457D01*
X110275043Y-89428670D01*
X110275049Y-89428675D01*
X110454851Y-89554574D01*
X110454853Y-89554575D01*
X110454856Y-89554577D01*
X110653799Y-89647345D01*
X110865828Y-89704159D01*
X111022023Y-89717824D01*
X111084500Y-89723290D01*
X111084502Y-89723290D01*
X111084504Y-89723290D01*
X111139170Y-89718507D01*
X111303176Y-89704159D01*
X111515205Y-89647345D01*
X111714148Y-89554577D01*
X111893959Y-89428672D01*
X112049175Y-89273456D01*
X112175080Y-89093645D01*
X112267848Y-88894702D01*
X112324662Y-88682673D01*
X112343793Y-88463999D01*
X112343793Y-88463996D01*
X119422459Y-88463996D01*
X119422459Y-88464001D01*
X119432500Y-88578780D01*
X119441590Y-88682673D01*
X119498404Y-88894702D01*
X119498405Y-88894705D01*
X119498406Y-88894707D01*
X119591170Y-89093641D01*
X119591174Y-89093649D01*
X119717073Y-89273451D01*
X119717078Y-89273457D01*
X119872291Y-89428670D01*
X119872297Y-89428675D01*
X120052099Y-89554574D01*
X120052101Y-89554575D01*
X120052104Y-89554577D01*
X120251047Y-89647345D01*
X120463076Y-89704159D01*
X120619271Y-89717824D01*
X120681748Y-89723290D01*
X120681750Y-89723290D01*
X120681752Y-89723290D01*
X120736418Y-89718507D01*
X120900424Y-89704159D01*
X121112453Y-89647345D01*
X121311396Y-89554577D01*
X121491207Y-89428672D01*
X121646423Y-89273456D01*
X121772328Y-89093645D01*
X121865096Y-88894702D01*
X121921910Y-88682673D01*
X121941041Y-88463999D01*
X121941041Y-88463996D01*
X125922461Y-88463996D01*
X125922461Y-88464001D01*
X125932502Y-88578780D01*
X125941592Y-88682673D01*
X125998406Y-88894702D01*
X125998407Y-88894705D01*
X125998408Y-88894707D01*
X126091172Y-89093641D01*
X126091176Y-89093649D01*
X126217075Y-89273451D01*
X126217080Y-89273457D01*
X126372293Y-89428670D01*
X126372299Y-89428675D01*
X126552101Y-89554574D01*
X126552103Y-89554575D01*
X126552106Y-89554577D01*
X126751049Y-89647345D01*
X126963078Y-89704159D01*
X127119273Y-89717824D01*
X127181750Y-89723290D01*
X127181752Y-89723290D01*
X127181754Y-89723290D01*
X127236420Y-89718507D01*
X127400426Y-89704159D01*
X127612455Y-89647345D01*
X127811398Y-89554577D01*
X127991209Y-89428672D01*
X128146425Y-89273456D01*
X128272330Y-89093645D01*
X128365098Y-88894702D01*
X128421912Y-88682673D01*
X128441043Y-88463999D01*
X128441043Y-88463996D01*
X135519709Y-88463996D01*
X135519709Y-88464001D01*
X135529750Y-88578780D01*
X135538840Y-88682673D01*
X135595654Y-88894702D01*
X135595655Y-88894705D01*
X135595656Y-88894707D01*
X135688420Y-89093641D01*
X135688424Y-89093649D01*
X135814323Y-89273451D01*
X135814328Y-89273457D01*
X135969541Y-89428670D01*
X135969547Y-89428675D01*
X136149349Y-89554574D01*
X136149351Y-89554575D01*
X136149354Y-89554577D01*
X136348297Y-89647345D01*
X136560326Y-89704159D01*
X136716521Y-89717824D01*
X136778998Y-89723290D01*
X136779000Y-89723290D01*
X136779002Y-89723290D01*
X136833668Y-89718507D01*
X136997674Y-89704159D01*
X137209703Y-89647345D01*
X137408646Y-89554577D01*
X137588457Y-89428672D01*
X137743673Y-89273456D01*
X137869578Y-89093645D01*
X137962346Y-88894702D01*
X138019160Y-88682673D01*
X138038291Y-88463999D01*
X138038291Y-88463996D01*
X142019711Y-88463996D01*
X142019711Y-88464001D01*
X142029752Y-88578780D01*
X142038842Y-88682673D01*
X142095656Y-88894702D01*
X142095657Y-88894705D01*
X142095658Y-88894707D01*
X142188422Y-89093641D01*
X142188426Y-89093649D01*
X142314325Y-89273451D01*
X142314330Y-89273457D01*
X142469543Y-89428670D01*
X142469549Y-89428675D01*
X142649351Y-89554574D01*
X142649353Y-89554575D01*
X142649356Y-89554577D01*
X142848299Y-89647345D01*
X143060328Y-89704159D01*
X143216523Y-89717824D01*
X143279000Y-89723290D01*
X143279002Y-89723290D01*
X143279004Y-89723290D01*
X143333670Y-89718507D01*
X143497676Y-89704159D01*
X143709705Y-89647345D01*
X143908648Y-89554577D01*
X144088459Y-89428672D01*
X144243675Y-89273456D01*
X144369580Y-89093645D01*
X144462348Y-88894702D01*
X144519162Y-88682673D01*
X144538293Y-88463999D01*
X144519162Y-88245325D01*
X144462348Y-88033296D01*
X144369580Y-87834354D01*
X144243675Y-87654542D01*
X144088459Y-87499326D01*
X144088455Y-87499323D01*
X144088454Y-87499322D01*
X143908652Y-87373423D01*
X143908644Y-87373419D01*
X143709710Y-87280655D01*
X143709708Y-87280654D01*
X143709705Y-87280653D01*
X143558887Y-87240240D01*
X143497677Y-87223839D01*
X143497670Y-87223838D01*
X143279004Y-87204708D01*
X143279000Y-87204708D01*
X143060333Y-87223838D01*
X143060326Y-87223839D01*
X142848295Y-87280654D01*
X142649358Y-87373420D01*
X142649356Y-87373421D01*
X142469542Y-87499327D01*
X142314330Y-87654539D01*
X142188424Y-87834353D01*
X142188423Y-87834355D01*
X142095657Y-88033292D01*
X142038842Y-88245323D01*
X142038841Y-88245330D01*
X142019711Y-88463996D01*
X138038291Y-88463996D01*
X138019160Y-88245325D01*
X137962346Y-88033296D01*
X137869578Y-87834354D01*
X137743673Y-87654542D01*
X137588457Y-87499326D01*
X137588453Y-87499323D01*
X137588452Y-87499322D01*
X137408650Y-87373423D01*
X137408642Y-87373419D01*
X137209708Y-87280655D01*
X137209706Y-87280654D01*
X137209703Y-87280653D01*
X137058885Y-87240240D01*
X136997675Y-87223839D01*
X136997668Y-87223838D01*
X136779002Y-87204708D01*
X136778998Y-87204708D01*
X136560331Y-87223838D01*
X136560324Y-87223839D01*
X136348293Y-87280654D01*
X136149356Y-87373420D01*
X136149354Y-87373421D01*
X135969540Y-87499327D01*
X135814328Y-87654539D01*
X135688422Y-87834353D01*
X135688421Y-87834355D01*
X135595655Y-88033292D01*
X135538840Y-88245323D01*
X135538839Y-88245330D01*
X135519709Y-88463996D01*
X128441043Y-88463996D01*
X128421912Y-88245325D01*
X128365098Y-88033296D01*
X128272330Y-87834354D01*
X128146425Y-87654542D01*
X127991209Y-87499326D01*
X127991205Y-87499323D01*
X127991204Y-87499322D01*
X127811402Y-87373423D01*
X127811394Y-87373419D01*
X127612460Y-87280655D01*
X127612458Y-87280654D01*
X127612455Y-87280653D01*
X127461637Y-87240240D01*
X127400427Y-87223839D01*
X127400420Y-87223838D01*
X127181754Y-87204708D01*
X127181750Y-87204708D01*
X126963083Y-87223838D01*
X126963076Y-87223839D01*
X126751045Y-87280654D01*
X126552108Y-87373420D01*
X126552106Y-87373421D01*
X126372292Y-87499327D01*
X126217080Y-87654539D01*
X126091174Y-87834353D01*
X126091173Y-87834355D01*
X125998407Y-88033292D01*
X125941592Y-88245323D01*
X125941591Y-88245330D01*
X125922461Y-88463996D01*
X121941041Y-88463996D01*
X121921910Y-88245325D01*
X121865096Y-88033296D01*
X121772328Y-87834354D01*
X121646423Y-87654542D01*
X121491207Y-87499326D01*
X121491203Y-87499323D01*
X121491202Y-87499322D01*
X121311400Y-87373423D01*
X121311392Y-87373419D01*
X121112458Y-87280655D01*
X121112456Y-87280654D01*
X121112453Y-87280653D01*
X120961635Y-87240240D01*
X120900425Y-87223839D01*
X120900418Y-87223838D01*
X120681752Y-87204708D01*
X120681748Y-87204708D01*
X120463081Y-87223838D01*
X120463074Y-87223839D01*
X120251043Y-87280654D01*
X120052106Y-87373420D01*
X120052104Y-87373421D01*
X119872290Y-87499327D01*
X119717078Y-87654539D01*
X119591172Y-87834353D01*
X119591171Y-87834355D01*
X119498405Y-88033292D01*
X119441590Y-88245323D01*
X119441589Y-88245330D01*
X119422459Y-88463996D01*
X112343793Y-88463996D01*
X112324662Y-88245325D01*
X112267848Y-88033296D01*
X112175080Y-87834354D01*
X112049175Y-87654542D01*
X111893959Y-87499326D01*
X111893955Y-87499323D01*
X111893954Y-87499322D01*
X111714152Y-87373423D01*
X111714144Y-87373419D01*
X111515210Y-87280655D01*
X111515208Y-87280654D01*
X111515205Y-87280653D01*
X111364387Y-87240240D01*
X111303177Y-87223839D01*
X111303170Y-87223838D01*
X111084504Y-87204708D01*
X111084500Y-87204708D01*
X110865833Y-87223838D01*
X110865826Y-87223839D01*
X110653795Y-87280654D01*
X110454858Y-87373420D01*
X110454856Y-87373421D01*
X110275042Y-87499327D01*
X110119830Y-87654539D01*
X109993924Y-87834353D01*
X109993923Y-87834355D01*
X109901157Y-88033292D01*
X109844342Y-88245323D01*
X109844341Y-88245330D01*
X109825211Y-88463996D01*
X105843791Y-88463996D01*
X105824660Y-88245325D01*
X105767846Y-88033296D01*
X105675078Y-87834354D01*
X105549173Y-87654542D01*
X105393957Y-87499326D01*
X105393953Y-87499323D01*
X105393952Y-87499322D01*
X105214150Y-87373423D01*
X105214142Y-87373419D01*
X105015208Y-87280655D01*
X105015206Y-87280654D01*
X105015203Y-87280653D01*
X104864385Y-87240240D01*
X104803175Y-87223839D01*
X104803168Y-87223838D01*
X104584502Y-87204708D01*
X104584498Y-87204708D01*
X104365831Y-87223838D01*
X104365824Y-87223839D01*
X104153793Y-87280654D01*
X103954856Y-87373420D01*
X103954854Y-87373421D01*
X103775040Y-87499327D01*
X103619828Y-87654539D01*
X103493922Y-87834353D01*
X103493921Y-87834355D01*
X103401155Y-88033292D01*
X103344340Y-88245323D01*
X103344339Y-88245330D01*
X103325209Y-88463996D01*
X96246543Y-88463996D01*
X96227412Y-88245325D01*
X96170598Y-88033296D01*
X96077830Y-87834354D01*
X95951925Y-87654542D01*
X95796709Y-87499326D01*
X95796705Y-87499323D01*
X95796704Y-87499322D01*
X95616902Y-87373423D01*
X95616894Y-87373419D01*
X95417960Y-87280655D01*
X95417958Y-87280654D01*
X95417955Y-87280653D01*
X95267137Y-87240240D01*
X95205927Y-87223839D01*
X95205920Y-87223838D01*
X94987254Y-87204708D01*
X94987250Y-87204708D01*
X94768583Y-87223838D01*
X94768576Y-87223839D01*
X94556545Y-87280654D01*
X94357608Y-87373420D01*
X94357606Y-87373421D01*
X94177792Y-87499327D01*
X94022580Y-87654539D01*
X93896674Y-87834353D01*
X93896673Y-87834355D01*
X93803907Y-88033292D01*
X93747092Y-88245323D01*
X93747091Y-88245330D01*
X93727961Y-88463996D01*
X89746541Y-88463996D01*
X89727410Y-88245325D01*
X89670596Y-88033296D01*
X89577828Y-87834354D01*
X89451923Y-87654542D01*
X89296707Y-87499326D01*
X89296703Y-87499323D01*
X89296702Y-87499322D01*
X89116900Y-87373423D01*
X89116892Y-87373419D01*
X88917958Y-87280655D01*
X88917956Y-87280654D01*
X88917953Y-87280653D01*
X88767135Y-87240240D01*
X88705925Y-87223839D01*
X88705918Y-87223838D01*
X88487252Y-87204708D01*
X88487248Y-87204708D01*
X88268581Y-87223838D01*
X88268574Y-87223839D01*
X88056543Y-87280654D01*
X87857606Y-87373420D01*
X87857604Y-87373421D01*
X87677790Y-87499327D01*
X87522578Y-87654539D01*
X87396672Y-87834353D01*
X87396671Y-87834355D01*
X87303905Y-88033292D01*
X87247090Y-88245323D01*
X87247089Y-88245330D01*
X87227959Y-88463996D01*
X80149293Y-88463996D01*
X80130162Y-88245325D01*
X80073348Y-88033296D01*
X79980580Y-87834354D01*
X79854675Y-87654542D01*
X79699459Y-87499326D01*
X79699455Y-87499323D01*
X79699454Y-87499322D01*
X79519652Y-87373423D01*
X79519644Y-87373419D01*
X79320710Y-87280655D01*
X79320708Y-87280654D01*
X79320705Y-87280653D01*
X79169887Y-87240240D01*
X79108677Y-87223839D01*
X79108670Y-87223838D01*
X78890004Y-87204708D01*
X78890000Y-87204708D01*
X78671333Y-87223838D01*
X78671326Y-87223839D01*
X78459295Y-87280654D01*
X78260358Y-87373420D01*
X78260356Y-87373421D01*
X78080542Y-87499327D01*
X77925330Y-87654539D01*
X77799424Y-87834353D01*
X77799423Y-87834355D01*
X77706657Y-88033292D01*
X77649842Y-88245323D01*
X77649841Y-88245330D01*
X77630711Y-88463996D01*
X73649291Y-88463996D01*
X73630160Y-88245325D01*
X73573346Y-88033296D01*
X73480578Y-87834354D01*
X73354673Y-87654542D01*
X73199457Y-87499326D01*
X73199453Y-87499323D01*
X73199452Y-87499322D01*
X73019650Y-87373423D01*
X73019642Y-87373419D01*
X72820708Y-87280655D01*
X72820706Y-87280654D01*
X72820703Y-87280653D01*
X72669885Y-87240240D01*
X72608675Y-87223839D01*
X72608668Y-87223838D01*
X72390002Y-87204708D01*
X72389998Y-87204708D01*
X72171331Y-87223838D01*
X72171324Y-87223839D01*
X71959293Y-87280654D01*
X71760356Y-87373420D01*
X71760354Y-87373421D01*
X71580540Y-87499327D01*
X71425328Y-87654539D01*
X71299422Y-87834353D01*
X71299421Y-87834355D01*
X71206655Y-88033292D01*
X71149840Y-88245323D01*
X71149839Y-88245330D01*
X71130709Y-88463996D01*
X56798736Y-88463996D01*
X56764289Y-88396389D01*
X56756558Y-88385748D01*
X56643973Y-88230785D01*
X56499215Y-88086027D01*
X56333615Y-87965714D01*
X56333614Y-87965713D01*
X56333612Y-87965712D01*
X56276655Y-87936690D01*
X56151225Y-87872780D01*
X55956536Y-87809521D01*
X55781997Y-87781877D01*
X55754354Y-87777499D01*
X55549650Y-87777499D01*
X55525331Y-87781350D01*
X55347467Y-87809521D01*
X55152778Y-87872780D01*
X54970388Y-87965714D01*
X54804788Y-88086027D01*
X54660030Y-88230785D01*
X54539717Y-88396385D01*
X54446783Y-88578775D01*
X54383524Y-88773464D01*
X54351502Y-88975647D01*
X36722500Y-88975647D01*
X36722500Y-84225648D01*
X58101500Y-84225648D01*
X58101500Y-84430351D01*
X58133522Y-84632534D01*
X58196781Y-84827223D01*
X58289715Y-85009613D01*
X58410028Y-85175213D01*
X58554786Y-85319971D01*
X58709749Y-85432556D01*
X58720390Y-85440287D01*
X58836607Y-85499503D01*
X58902776Y-85533218D01*
X58902778Y-85533218D01*
X58902781Y-85533220D01*
X59007137Y-85567127D01*
X59097465Y-85596477D01*
X59198557Y-85612488D01*
X59299648Y-85628500D01*
X59299649Y-85628500D01*
X61604351Y-85628500D01*
X61604352Y-85628500D01*
X61806534Y-85596477D01*
X62001219Y-85533220D01*
X62183610Y-85440287D01*
X62323021Y-85339000D01*
X62323022Y-85338999D01*
X166919341Y-85338999D01*
X166919341Y-85339000D01*
X166939936Y-85574403D01*
X166939938Y-85574413D01*
X167001094Y-85802655D01*
X167001096Y-85802659D01*
X167001097Y-85802663D01*
X167100965Y-86016830D01*
X167100967Y-86016834D01*
X167209281Y-86171521D01*
X167236505Y-86210401D01*
X167403599Y-86377495D01*
X167500384Y-86445265D01*
X167597165Y-86513032D01*
X167597167Y-86513033D01*
X167597170Y-86513035D01*
X167811337Y-86612903D01*
X168039592Y-86674063D01*
X168227918Y-86690539D01*
X168274999Y-86694659D01*
X168275000Y-86694659D01*
X168275001Y-86694659D01*
X168314234Y-86691226D01*
X168510408Y-86674063D01*
X168738663Y-86612903D01*
X168952830Y-86513035D01*
X169146401Y-86377495D01*
X169313495Y-86210401D01*
X169449035Y-86016830D01*
X169548903Y-85802663D01*
X169610063Y-85574408D01*
X169630659Y-85339000D01*
X169610063Y-85103592D01*
X169548903Y-84875337D01*
X169449035Y-84661171D01*
X169428983Y-84632534D01*
X169313496Y-84467600D01*
X169276247Y-84430351D01*
X169191567Y-84345671D01*
X169158084Y-84284351D01*
X169163068Y-84214659D01*
X169204939Y-84158725D01*
X169235915Y-84141810D01*
X169367331Y-84092796D01*
X169482546Y-84006546D01*
X169568796Y-83891331D01*
X169619091Y-83756483D01*
X169625500Y-83696873D01*
X169625499Y-81901128D01*
X169619091Y-81841517D01*
X169568796Y-81706669D01*
X169568795Y-81706668D01*
X169568793Y-81706664D01*
X169482547Y-81591455D01*
X169482544Y-81591452D01*
X169367335Y-81505206D01*
X169367328Y-81505202D01*
X169232482Y-81454908D01*
X169232483Y-81454908D01*
X169172883Y-81448501D01*
X169172881Y-81448500D01*
X169172873Y-81448500D01*
X169172864Y-81448500D01*
X167377129Y-81448500D01*
X167377123Y-81448501D01*
X167317516Y-81454908D01*
X167182671Y-81505202D01*
X167182664Y-81505206D01*
X167067455Y-81591452D01*
X167067452Y-81591455D01*
X166981206Y-81706664D01*
X166981202Y-81706671D01*
X166930908Y-81841517D01*
X166924501Y-81901116D01*
X166924501Y-81901123D01*
X166924500Y-81901135D01*
X166924500Y-83696870D01*
X166924501Y-83696876D01*
X166930908Y-83756483D01*
X166981202Y-83891328D01*
X166981206Y-83891335D01*
X167067452Y-84006544D01*
X167067455Y-84006547D01*
X167182664Y-84092793D01*
X167182671Y-84092797D01*
X167314081Y-84141810D01*
X167370015Y-84183681D01*
X167394432Y-84249145D01*
X167379580Y-84317418D01*
X167358430Y-84345673D01*
X167236503Y-84467600D01*
X167100965Y-84661169D01*
X167100964Y-84661171D01*
X167001098Y-84875335D01*
X167001094Y-84875344D01*
X166939938Y-85103586D01*
X166939936Y-85103596D01*
X166919341Y-85338999D01*
X62323022Y-85338999D01*
X62349213Y-85319971D01*
X62349215Y-85319968D01*
X62349219Y-85319966D01*
X62493966Y-85175219D01*
X62493968Y-85175215D01*
X62493971Y-85175213D01*
X62546732Y-85102590D01*
X62614287Y-85009610D01*
X62707220Y-84827219D01*
X62770477Y-84632534D01*
X62802500Y-84430352D01*
X62802500Y-84225648D01*
X62781458Y-84092796D01*
X62770477Y-84023465D01*
X62707218Y-83828776D01*
X62670382Y-83756482D01*
X62614287Y-83646390D01*
X62606556Y-83635749D01*
X62493971Y-83480786D01*
X62349213Y-83336028D01*
X62183613Y-83215715D01*
X62183612Y-83215714D01*
X62183610Y-83215713D01*
X62126653Y-83186691D01*
X62001223Y-83122781D01*
X61806534Y-83059522D01*
X61631995Y-83031878D01*
X61604352Y-83027500D01*
X59299648Y-83027500D01*
X59275329Y-83031351D01*
X59097465Y-83059522D01*
X58902776Y-83122781D01*
X58720386Y-83215715D01*
X58554786Y-83336028D01*
X58410028Y-83480786D01*
X58289715Y-83646386D01*
X58196781Y-83828776D01*
X58133522Y-84023465D01*
X58101500Y-84225648D01*
X36722500Y-84225648D01*
X36722500Y-78358997D01*
X60593723Y-78358997D01*
X60593723Y-78359002D01*
X60612793Y-78576975D01*
X60612793Y-78576979D01*
X60669422Y-78788322D01*
X60669424Y-78788326D01*
X60669425Y-78788330D01*
X60715661Y-78887484D01*
X60761897Y-78986638D01*
X60761898Y-78986639D01*
X60887402Y-79165877D01*
X61042123Y-79320598D01*
X61221361Y-79446102D01*
X61419670Y-79538575D01*
X61631023Y-79595207D01*
X61813926Y-79611208D01*
X61848998Y-79614277D01*
X61849000Y-79614277D01*
X61849002Y-79614277D01*
X61877254Y-79611805D01*
X62066977Y-79595207D01*
X62278330Y-79538575D01*
X62476639Y-79446102D01*
X62655877Y-79320598D01*
X62810598Y-79165877D01*
X62936102Y-78986639D01*
X63028575Y-78788330D01*
X63085207Y-78576977D01*
X63104277Y-78359000D01*
X63085207Y-78141023D01*
X63028575Y-77929670D01*
X62936102Y-77731362D01*
X62936100Y-77731359D01*
X62936099Y-77731357D01*
X62810599Y-77552124D01*
X62810596Y-77552121D01*
X62655877Y-77397402D01*
X62476639Y-77271898D01*
X62476640Y-77271898D01*
X62476638Y-77271897D01*
X62377484Y-77225661D01*
X62278330Y-77179425D01*
X62278326Y-77179424D01*
X62278322Y-77179422D01*
X62066977Y-77122793D01*
X61849002Y-77103723D01*
X61848998Y-77103723D01*
X61703682Y-77116436D01*
X61631023Y-77122793D01*
X61631020Y-77122793D01*
X61419677Y-77179422D01*
X61419668Y-77179426D01*
X61221361Y-77271898D01*
X61221357Y-77271900D01*
X61042121Y-77397402D01*
X60887402Y-77552121D01*
X60761900Y-77731357D01*
X60761898Y-77731361D01*
X60669426Y-77929668D01*
X60669422Y-77929677D01*
X60612793Y-78141020D01*
X60612793Y-78141024D01*
X60593723Y-78358997D01*
X36722500Y-78358997D01*
X36722500Y-71152999D01*
X106317863Y-71152999D01*
X106317863Y-71153000D01*
X106338365Y-71374259D01*
X106338366Y-71374261D01*
X106399174Y-71587979D01*
X106399180Y-71587994D01*
X106498222Y-71786896D01*
X106632133Y-71964224D01*
X106796344Y-72113921D01*
X106796346Y-72113923D01*
X106985266Y-72230897D01*
X106985272Y-72230900D01*
X107014206Y-72242109D01*
X107192472Y-72311170D01*
X107410896Y-72352000D01*
X107410899Y-72352000D01*
X107633101Y-72352000D01*
X107633104Y-72352000D01*
X107851528Y-72311170D01*
X108058730Y-72230899D01*
X108247655Y-72113922D01*
X108411868Y-71964222D01*
X108545778Y-71786896D01*
X108644824Y-71587984D01*
X108652734Y-71560182D01*
X108690013Y-71501089D01*
X108753323Y-71471532D01*
X108822562Y-71480894D01*
X108875749Y-71526204D01*
X108891266Y-71560183D01*
X108899174Y-71587979D01*
X108899180Y-71587994D01*
X108998222Y-71786896D01*
X109132133Y-71964224D01*
X109296344Y-72113921D01*
X109296346Y-72113923D01*
X109485266Y-72230897D01*
X109485272Y-72230900D01*
X109514206Y-72242109D01*
X109692472Y-72311170D01*
X109910896Y-72352000D01*
X109910899Y-72352000D01*
X110133101Y-72352000D01*
X110133104Y-72352000D01*
X110351528Y-72311170D01*
X110558730Y-72230899D01*
X110747655Y-72113922D01*
X110911868Y-71964222D01*
X111045778Y-71786896D01*
X111144824Y-71587984D01*
X111152734Y-71560182D01*
X111190013Y-71501089D01*
X111253323Y-71471532D01*
X111322562Y-71480894D01*
X111375749Y-71526204D01*
X111391266Y-71560183D01*
X111399174Y-71587979D01*
X111399180Y-71587994D01*
X111498222Y-71786896D01*
X111632133Y-71964224D01*
X111796344Y-72113921D01*
X111796346Y-72113923D01*
X111985266Y-72230897D01*
X111985272Y-72230900D01*
X112014206Y-72242109D01*
X112192472Y-72311170D01*
X112410896Y-72352000D01*
X112410899Y-72352000D01*
X112633101Y-72352000D01*
X112633104Y-72352000D01*
X112851528Y-72311170D01*
X113058730Y-72230899D01*
X113247655Y-72113922D01*
X113411868Y-71964222D01*
X113545778Y-71786896D01*
X113644824Y-71587984D01*
X113652995Y-71559265D01*
X113690272Y-71500175D01*
X113753582Y-71470617D01*
X113822821Y-71479979D01*
X113876008Y-71525288D01*
X113891526Y-71559267D01*
X113899644Y-71587800D01*
X113899649Y-71587813D01*
X113998652Y-71786636D01*
X114014208Y-71807236D01*
X114584352Y-71237093D01*
X114607792Y-71324571D01*
X114666311Y-71425930D01*
X114749070Y-71508689D01*
X114850429Y-71567208D01*
X114937905Y-71590647D01*
X114369761Y-72158790D01*
X114369762Y-72158791D01*
X114485490Y-72230447D01*
X114485496Y-72230450D01*
X114692607Y-72310684D01*
X114910945Y-72351500D01*
X115133055Y-72351500D01*
X115351392Y-72310684D01*
X115558505Y-72230449D01*
X115558506Y-72230448D01*
X115674237Y-72158790D01*
X115106095Y-71590647D01*
X115193571Y-71567208D01*
X115294930Y-71508689D01*
X115377689Y-71425930D01*
X115436208Y-71324571D01*
X115459647Y-71237094D01*
X116029790Y-71807236D01*
X116045348Y-71786634D01*
X116045353Y-71786626D01*
X116144350Y-71587813D01*
X116144354Y-71587803D01*
X116152472Y-71559270D01*
X116189750Y-71500176D01*
X116253059Y-71470617D01*
X116322299Y-71479978D01*
X116375486Y-71525286D01*
X116391004Y-71559263D01*
X116399127Y-71587813D01*
X116399177Y-71587986D01*
X116399180Y-71587994D01*
X116498222Y-71786896D01*
X116632133Y-71964224D01*
X116796344Y-72113921D01*
X116796346Y-72113923D01*
X116985266Y-72230897D01*
X116985272Y-72230900D01*
X117014206Y-72242109D01*
X117192472Y-72311170D01*
X117410896Y-72352000D01*
X117410899Y-72352000D01*
X117633101Y-72352000D01*
X117633104Y-72352000D01*
X117851528Y-72311170D01*
X118058730Y-72230899D01*
X118247655Y-72113922D01*
X118411868Y-71964222D01*
X118545778Y-71786896D01*
X118644824Y-71587984D01*
X118705634Y-71374260D01*
X118726137Y-71153000D01*
X118705634Y-70931740D01*
X118644824Y-70718016D01*
X118545778Y-70519104D01*
X118411868Y-70341778D01*
X118411866Y-70341775D01*
X118247655Y-70192078D01*
X118247653Y-70192076D01*
X118058733Y-70075102D01*
X118058727Y-70075099D01*
X117951080Y-70033397D01*
X117851528Y-69994830D01*
X117633104Y-69954000D01*
X117410896Y-69954000D01*
X117192472Y-69994830D01*
X117142695Y-70014113D01*
X116985272Y-70075099D01*
X116985266Y-70075102D01*
X116796346Y-70192076D01*
X116796344Y-70192078D01*
X116632133Y-70341775D01*
X116498222Y-70519103D01*
X116399180Y-70718005D01*
X116399173Y-70718023D01*
X116391004Y-70746734D01*
X116353724Y-70805827D01*
X116290413Y-70835383D01*
X116221174Y-70826019D01*
X116167989Y-70780708D01*
X116152472Y-70746730D01*
X116144353Y-70718194D01*
X116144350Y-70718186D01*
X116045353Y-70519374D01*
X116045348Y-70519367D01*
X116029789Y-70498762D01*
X115459647Y-71068904D01*
X115436208Y-70981429D01*
X115377689Y-70880070D01*
X115294930Y-70797311D01*
X115193571Y-70738792D01*
X115106094Y-70715352D01*
X115674237Y-70147208D01*
X115674236Y-70147207D01*
X115558509Y-70075552D01*
X115558503Y-70075549D01*
X115351392Y-69995315D01*
X115133055Y-69954500D01*
X114910945Y-69954500D01*
X114692607Y-69995315D01*
X114485495Y-70075550D01*
X114369761Y-70147208D01*
X114937906Y-70715352D01*
X114850429Y-70738792D01*
X114749070Y-70797311D01*
X114666311Y-70880070D01*
X114607792Y-70981429D01*
X114584352Y-71068905D01*
X114014209Y-70498762D01*
X113998651Y-70519365D01*
X113899649Y-70718186D01*
X113899645Y-70718197D01*
X113891526Y-70746733D01*
X113854246Y-70805826D01*
X113790936Y-70835383D01*
X113721696Y-70826019D01*
X113668510Y-70780709D01*
X113652994Y-70746731D01*
X113644825Y-70718020D01*
X113644824Y-70718016D01*
X113545778Y-70519104D01*
X113411868Y-70341778D01*
X113411866Y-70341775D01*
X113247655Y-70192078D01*
X113247653Y-70192076D01*
X113058733Y-70075102D01*
X113058727Y-70075099D01*
X112951080Y-70033397D01*
X112851528Y-69994830D01*
X112633104Y-69954000D01*
X112410896Y-69954000D01*
X112192472Y-69994830D01*
X112142695Y-70014113D01*
X111985272Y-70075099D01*
X111985266Y-70075102D01*
X111796346Y-70192076D01*
X111796344Y-70192078D01*
X111632133Y-70341775D01*
X111498222Y-70519103D01*
X111399180Y-70718005D01*
X111399175Y-70718018D01*
X111391266Y-70745817D01*
X111353986Y-70804910D01*
X111290676Y-70834467D01*
X111221437Y-70825105D01*
X111168251Y-70779794D01*
X111152734Y-70745817D01*
X111144875Y-70718197D01*
X111144824Y-70718016D01*
X111045778Y-70519104D01*
X110911868Y-70341778D01*
X110911866Y-70341775D01*
X110747655Y-70192078D01*
X110747653Y-70192076D01*
X110558733Y-70075102D01*
X110558727Y-70075099D01*
X110451080Y-70033397D01*
X110351528Y-69994830D01*
X110133104Y-69954000D01*
X109910896Y-69954000D01*
X109692472Y-69994830D01*
X109642695Y-70014113D01*
X109485272Y-70075099D01*
X109485266Y-70075102D01*
X109296346Y-70192076D01*
X109296344Y-70192078D01*
X109132133Y-70341775D01*
X108998222Y-70519103D01*
X108899180Y-70718005D01*
X108899175Y-70718018D01*
X108891266Y-70745817D01*
X108853986Y-70804910D01*
X108790676Y-70834467D01*
X108721437Y-70825105D01*
X108668251Y-70779794D01*
X108652734Y-70745817D01*
X108644875Y-70718197D01*
X108644824Y-70718016D01*
X108545778Y-70519104D01*
X108411868Y-70341778D01*
X108411866Y-70341775D01*
X108247655Y-70192078D01*
X108247653Y-70192076D01*
X108058733Y-70075102D01*
X108058727Y-70075099D01*
X107951080Y-70033397D01*
X107851528Y-69994830D01*
X107633104Y-69954000D01*
X107410896Y-69954000D01*
X107192472Y-69994830D01*
X107142695Y-70014113D01*
X106985272Y-70075099D01*
X106985266Y-70075102D01*
X106796346Y-70192076D01*
X106796344Y-70192078D01*
X106632133Y-70341775D01*
X106498222Y-70519103D01*
X106399180Y-70718005D01*
X106399174Y-70718020D01*
X106338366Y-70931738D01*
X106338365Y-70931740D01*
X106317863Y-71152999D01*
X36722500Y-71152999D01*
X36722500Y-67056000D01*
X49798723Y-67056000D01*
X49811953Y-67207216D01*
X49817793Y-67273975D01*
X49817793Y-67273979D01*
X49874422Y-67485322D01*
X49874424Y-67485326D01*
X49874425Y-67485330D01*
X49908136Y-67557624D01*
X49966897Y-67683638D01*
X49966898Y-67683639D01*
X50092402Y-67862877D01*
X50247123Y-68017598D01*
X50426361Y-68143102D01*
X50624670Y-68235575D01*
X50836023Y-68292207D01*
X51018926Y-68308208D01*
X51053998Y-68311277D01*
X51054000Y-68311277D01*
X51054002Y-68311277D01*
X51082254Y-68308805D01*
X51271977Y-68292207D01*
X51483330Y-68235575D01*
X51681639Y-68143102D01*
X51860877Y-68017598D01*
X52015598Y-67862877D01*
X52141102Y-67683639D01*
X52233575Y-67485330D01*
X52290207Y-67273977D01*
X52309277Y-67056000D01*
X52290207Y-66838023D01*
X52233575Y-66626670D01*
X52141102Y-66428362D01*
X52141100Y-66428359D01*
X52141099Y-66428357D01*
X52015599Y-66249124D01*
X51969495Y-66203020D01*
X51860877Y-66094402D01*
X51681639Y-65968898D01*
X51681640Y-65968898D01*
X51681638Y-65968897D01*
X51582484Y-65922661D01*
X51483330Y-65876425D01*
X51483326Y-65876424D01*
X51483322Y-65876422D01*
X51271977Y-65819793D01*
X51054002Y-65800723D01*
X51053998Y-65800723D01*
X50908682Y-65813436D01*
X50836023Y-65819793D01*
X50836020Y-65819793D01*
X50624677Y-65876422D01*
X50624668Y-65876426D01*
X50426361Y-65968898D01*
X50426357Y-65968900D01*
X50247121Y-66094402D01*
X50092402Y-66249121D01*
X49966900Y-66428357D01*
X49966898Y-66428361D01*
X49874426Y-66626668D01*
X49874422Y-66626677D01*
X49817793Y-66838020D01*
X49817793Y-66838023D01*
X49815585Y-66863259D01*
X49800955Y-67030491D01*
X49798723Y-67056000D01*
X36722500Y-67056000D01*
X36722500Y-65278000D01*
X154669540Y-65278000D01*
X154689326Y-65466256D01*
X154689327Y-65466259D01*
X154747818Y-65646277D01*
X154747821Y-65646284D01*
X154767641Y-65680614D01*
X154807887Y-65750321D01*
X154824500Y-65812321D01*
X154824500Y-66748918D01*
X154824500Y-66748920D01*
X154824499Y-66748920D01*
X154853340Y-66893907D01*
X154853343Y-66893917D01*
X154909913Y-67030490D01*
X154909914Y-67030491D01*
X154909916Y-67030495D01*
X154922039Y-67048638D01*
X154926957Y-67055998D01*
X154926958Y-67056000D01*
X154992051Y-67153420D01*
X154992052Y-67153421D01*
X155627049Y-67788416D01*
X155731584Y-67892951D01*
X155731587Y-67892953D01*
X155731588Y-67892954D01*
X155854494Y-67975077D01*
X155854498Y-67975079D01*
X155854505Y-67975084D01*
X155854508Y-67975085D01*
X155854511Y-67975087D01*
X155896214Y-67992360D01*
X155910112Y-67998117D01*
X155910115Y-67998118D01*
X155910116Y-67998119D01*
X155943656Y-68012011D01*
X155991088Y-68031659D01*
X156107241Y-68054763D01*
X156126468Y-68058587D01*
X156136081Y-68060500D01*
X156136082Y-68060500D01*
X160093920Y-68060500D01*
X160191462Y-68041096D01*
X160238913Y-68031658D01*
X160375495Y-67975084D01*
X160424729Y-67942186D01*
X160498416Y-67892952D01*
X160807770Y-67583595D01*
X160869091Y-67550112D01*
X160869464Y-67550031D01*
X160934803Y-67536144D01*
X161107730Y-67459151D01*
X161260871Y-67347888D01*
X161387533Y-67207216D01*
X161482179Y-67043284D01*
X161540674Y-66863256D01*
X161560460Y-66675000D01*
X161540674Y-66486744D01*
X161519311Y-66420997D01*
X164733723Y-66420997D01*
X164733723Y-66421002D01*
X164752793Y-66638975D01*
X164752793Y-66638979D01*
X164809422Y-66850322D01*
X164809424Y-66850326D01*
X164809425Y-66850330D01*
X164829748Y-66893913D01*
X164901897Y-67048638D01*
X164901898Y-67048639D01*
X165027402Y-67227877D01*
X165182123Y-67382598D01*
X165361361Y-67508102D01*
X165559670Y-67600575D01*
X165771023Y-67657207D01*
X165953926Y-67673208D01*
X165988998Y-67676277D01*
X165989000Y-67676277D01*
X165989002Y-67676277D01*
X166017254Y-67673805D01*
X166206977Y-67657207D01*
X166418330Y-67600575D01*
X166616639Y-67508102D01*
X166795877Y-67382598D01*
X166950598Y-67227877D01*
X167076102Y-67048639D01*
X167168575Y-66850330D01*
X167225207Y-66638977D01*
X167244277Y-66421000D01*
X167225207Y-66203023D01*
X167168575Y-65991670D01*
X167076102Y-65793362D01*
X167076100Y-65793359D01*
X167076099Y-65793357D01*
X166950599Y-65614124D01*
X166924154Y-65587679D01*
X166795877Y-65459402D01*
X166616639Y-65333898D01*
X166616640Y-65333898D01*
X166616638Y-65333897D01*
X166496765Y-65278000D01*
X166418330Y-65241425D01*
X166418326Y-65241424D01*
X166418322Y-65241422D01*
X166206977Y-65184793D01*
X165989002Y-65165723D01*
X165988998Y-65165723D01*
X165843682Y-65178436D01*
X165771023Y-65184793D01*
X165771020Y-65184793D01*
X165559677Y-65241422D01*
X165559668Y-65241426D01*
X165361361Y-65333898D01*
X165361357Y-65333900D01*
X165182121Y-65459402D01*
X165027402Y-65614121D01*
X164901900Y-65793357D01*
X164901898Y-65793361D01*
X164809426Y-65991668D01*
X164809422Y-65991677D01*
X164752793Y-66203020D01*
X164752793Y-66203024D01*
X164733723Y-66420997D01*
X161519311Y-66420997D01*
X161482179Y-66306716D01*
X161387533Y-66142784D01*
X161260871Y-66002112D01*
X161260870Y-66002111D01*
X161107734Y-65890851D01*
X161107729Y-65890848D01*
X160934807Y-65813857D01*
X160934802Y-65813855D01*
X160789001Y-65782865D01*
X160749646Y-65774500D01*
X160560354Y-65774500D01*
X160527897Y-65781398D01*
X160375197Y-65813855D01*
X160375192Y-65813857D01*
X160202270Y-65890848D01*
X160202265Y-65890851D01*
X160049129Y-66002111D01*
X159922466Y-66142785D01*
X159827821Y-66306715D01*
X159827818Y-66306721D01*
X159773526Y-66473818D01*
X159734089Y-66531494D01*
X159669730Y-66558692D01*
X159655595Y-66559500D01*
X156572229Y-66559500D01*
X156505190Y-66539815D01*
X156484553Y-66523185D01*
X156361817Y-66400449D01*
X156328334Y-66339128D01*
X156325500Y-66312770D01*
X156325500Y-65812321D01*
X156342113Y-65750321D01*
X156402179Y-65646284D01*
X156460674Y-65466256D01*
X156480460Y-65278000D01*
X156460674Y-65089744D01*
X156402179Y-64909716D01*
X156307533Y-64745784D01*
X156180871Y-64605112D01*
X156180870Y-64605111D01*
X156027734Y-64493851D01*
X156027729Y-64493848D01*
X155854807Y-64416857D01*
X155854802Y-64416855D01*
X155679055Y-64379500D01*
X155669646Y-64377500D01*
X155480354Y-64377500D01*
X155470945Y-64379500D01*
X155295197Y-64416855D01*
X155295192Y-64416857D01*
X155122270Y-64493848D01*
X155122265Y-64493851D01*
X154969129Y-64605111D01*
X154842466Y-64745785D01*
X154747821Y-64909715D01*
X154747818Y-64909722D01*
X154689327Y-65089740D01*
X154689326Y-65089744D01*
X154669540Y-65278000D01*
X36722500Y-65278000D01*
X36722500Y-63754000D01*
X145398540Y-63754000D01*
X145418326Y-63942256D01*
X145418327Y-63942259D01*
X145476818Y-64122277D01*
X145476821Y-64122284D01*
X145571467Y-64286216D01*
X145673185Y-64399185D01*
X145698129Y-64426888D01*
X145851265Y-64538148D01*
X145851270Y-64538151D01*
X146024192Y-64615142D01*
X146024197Y-64615144D01*
X146209354Y-64654500D01*
X146209355Y-64654500D01*
X146398644Y-64654500D01*
X146398646Y-64654500D01*
X146583803Y-64615144D01*
X146756730Y-64538151D01*
X146909871Y-64426888D01*
X146912788Y-64423647D01*
X146915600Y-64420526D01*
X146975087Y-64383879D01*
X147007748Y-64379500D01*
X147251252Y-64379500D01*
X147318291Y-64399185D01*
X147343400Y-64420526D01*
X147349126Y-64426885D01*
X147349130Y-64426889D01*
X147502265Y-64538148D01*
X147502270Y-64538151D01*
X147675192Y-64615142D01*
X147675197Y-64615144D01*
X147860354Y-64654500D01*
X147860355Y-64654500D01*
X148049644Y-64654500D01*
X148049646Y-64654500D01*
X148234803Y-64615144D01*
X148407730Y-64538151D01*
X148560871Y-64426888D01*
X148687533Y-64286216D01*
X148782179Y-64122284D01*
X148840674Y-63942256D01*
X148860460Y-63754000D01*
X148840674Y-63565744D01*
X148782179Y-63385716D01*
X148756101Y-63340547D01*
X170430639Y-63340547D01*
X170430639Y-65645250D01*
X170462661Y-65847433D01*
X170525920Y-66042122D01*
X170561161Y-66111285D01*
X170607904Y-66203023D01*
X170618854Y-66224512D01*
X170739167Y-66390112D01*
X170883925Y-66534870D01*
X171010289Y-66626677D01*
X171049529Y-66655186D01*
X171165746Y-66714402D01*
X171231915Y-66748117D01*
X171231917Y-66748117D01*
X171231920Y-66748119D01*
X171336276Y-66782026D01*
X171426604Y-66811376D01*
X171527696Y-66827387D01*
X171628787Y-66843399D01*
X171628788Y-66843399D01*
X171833490Y-66843399D01*
X171833491Y-66843399D01*
X172035673Y-66811376D01*
X172230358Y-66748119D01*
X172343349Y-66690547D01*
X174080561Y-66690547D01*
X174080561Y-66895250D01*
X174112583Y-67097433D01*
X174175842Y-67292122D01*
X174204257Y-67347888D01*
X174260947Y-67459148D01*
X174268776Y-67474512D01*
X174389089Y-67640112D01*
X174533847Y-67784870D01*
X174682611Y-67892951D01*
X174699451Y-67905186D01*
X174815668Y-67964402D01*
X174881837Y-67998117D01*
X174881839Y-67998117D01*
X174881842Y-67998119D01*
X174986198Y-68032026D01*
X175076526Y-68061376D01*
X175177618Y-68077387D01*
X175278709Y-68093399D01*
X175278710Y-68093399D01*
X177583412Y-68093399D01*
X177583413Y-68093399D01*
X177785595Y-68061376D01*
X177980280Y-67998119D01*
X178162671Y-67905186D01*
X178255651Y-67837631D01*
X178328274Y-67784870D01*
X178328276Y-67784867D01*
X178328280Y-67784865D01*
X178473027Y-67640118D01*
X178473029Y-67640114D01*
X178473032Y-67640112D01*
X178585485Y-67485331D01*
X178593348Y-67474509D01*
X178686281Y-67292118D01*
X178749538Y-67097433D01*
X178781561Y-66895251D01*
X178781561Y-66690547D01*
X178756369Y-66531494D01*
X178749538Y-66488364D01*
X178701048Y-66339128D01*
X178686281Y-66293680D01*
X178686279Y-66293677D01*
X178686279Y-66293675D01*
X178640087Y-66203020D01*
X178593348Y-66111289D01*
X178543093Y-66042118D01*
X178473032Y-65945685D01*
X178328274Y-65800927D01*
X178162674Y-65680614D01*
X178162673Y-65680613D01*
X178162671Y-65680612D01*
X178093269Y-65645250D01*
X177980284Y-65587680D01*
X177785595Y-65524421D01*
X177611056Y-65496777D01*
X177583413Y-65492399D01*
X175278709Y-65492399D01*
X175254390Y-65496250D01*
X175076526Y-65524421D01*
X174881837Y-65587680D01*
X174699447Y-65680614D01*
X174533847Y-65800927D01*
X174389089Y-65945685D01*
X174268776Y-66111285D01*
X174175842Y-66293675D01*
X174112583Y-66488364D01*
X174080561Y-66690547D01*
X172343349Y-66690547D01*
X172412749Y-66655186D01*
X172545563Y-66558692D01*
X172578352Y-66534870D01*
X172578354Y-66534867D01*
X172578358Y-66534865D01*
X172723105Y-66390118D01*
X172723107Y-66390114D01*
X172723110Y-66390112D01*
X172825542Y-66249124D01*
X172843426Y-66224509D01*
X172936359Y-66042118D01*
X172999616Y-65847433D01*
X173031639Y-65645251D01*
X173031639Y-63340547D01*
X173012829Y-63221785D01*
X172999616Y-63138364D01*
X172936357Y-62943675D01*
X172890410Y-62853500D01*
X172843426Y-62761289D01*
X172829122Y-62741601D01*
X172723110Y-62595685D01*
X172578352Y-62450927D01*
X172412752Y-62330614D01*
X172412751Y-62330613D01*
X172412749Y-62330612D01*
X172355792Y-62301590D01*
X172230362Y-62237680D01*
X172035673Y-62174421D01*
X171861134Y-62146777D01*
X171833491Y-62142399D01*
X171628787Y-62142399D01*
X171604468Y-62146250D01*
X171426604Y-62174421D01*
X171231915Y-62237680D01*
X171049525Y-62330614D01*
X170883925Y-62450927D01*
X170739167Y-62595685D01*
X170618854Y-62761285D01*
X170525920Y-62943675D01*
X170462661Y-63138364D01*
X170430639Y-63340547D01*
X148756101Y-63340547D01*
X148687533Y-63221784D01*
X148560871Y-63081112D01*
X148560870Y-63081111D01*
X148407734Y-62969851D01*
X148407729Y-62969848D01*
X148234807Y-62892857D01*
X148234802Y-62892855D01*
X148089001Y-62861865D01*
X148049646Y-62853500D01*
X147860354Y-62853500D01*
X147827897Y-62860398D01*
X147675197Y-62892855D01*
X147675192Y-62892857D01*
X147502270Y-62969848D01*
X147502265Y-62969851D01*
X147349130Y-63081110D01*
X147349126Y-63081114D01*
X147343400Y-63087474D01*
X147283913Y-63124121D01*
X147251252Y-63128500D01*
X147007748Y-63128500D01*
X146940709Y-63108815D01*
X146915600Y-63087474D01*
X146909873Y-63081114D01*
X146909869Y-63081110D01*
X146756734Y-62969851D01*
X146756729Y-62969848D01*
X146583807Y-62892857D01*
X146583802Y-62892855D01*
X146438001Y-62861865D01*
X146398646Y-62853500D01*
X146209354Y-62853500D01*
X146176897Y-62860398D01*
X146024197Y-62892855D01*
X146024192Y-62892857D01*
X145851270Y-62969848D01*
X145851265Y-62969851D01*
X145698129Y-63081111D01*
X145571466Y-63221785D01*
X145476821Y-63385715D01*
X145476818Y-63385722D01*
X145418327Y-63565740D01*
X145418326Y-63565744D01*
X145398540Y-63754000D01*
X36722500Y-63754000D01*
X36722500Y-61023063D01*
X102759269Y-61023063D01*
X102759269Y-61023072D01*
X102778955Y-61285779D01*
X102778956Y-61285784D01*
X102837578Y-61542627D01*
X102837580Y-61542636D01*
X102837582Y-61542641D01*
X102933834Y-61787887D01*
X103065563Y-62016049D01*
X103166324Y-62142399D01*
X103229829Y-62222032D01*
X103343199Y-62327223D01*
X103422954Y-62401225D01*
X103640634Y-62549636D01*
X103877997Y-62663944D01*
X103877998Y-62663944D01*
X103878001Y-62663946D01*
X104129754Y-62741602D01*
X104129755Y-62741602D01*
X104129758Y-62741603D01*
X104390261Y-62780867D01*
X104390266Y-62780867D01*
X104390269Y-62780868D01*
X104390270Y-62780868D01*
X104653726Y-62780868D01*
X104653727Y-62780868D01*
X104653734Y-62780867D01*
X104914237Y-62741603D01*
X104914238Y-62741602D01*
X104914242Y-62741602D01*
X105165995Y-62663946D01*
X105403363Y-62549636D01*
X105621042Y-62401225D01*
X105814170Y-62222028D01*
X105978433Y-62016049D01*
X106110162Y-61787887D01*
X106206414Y-61542641D01*
X106265039Y-61285789D01*
X106265040Y-61285779D01*
X106284727Y-61023072D01*
X106284727Y-61023063D01*
X118759273Y-61023063D01*
X118759273Y-61023072D01*
X118778959Y-61285779D01*
X118778960Y-61285784D01*
X118837582Y-61542627D01*
X118837584Y-61542636D01*
X118837586Y-61542641D01*
X118933838Y-61787887D01*
X119065567Y-62016049D01*
X119166328Y-62142399D01*
X119229833Y-62222032D01*
X119343203Y-62327223D01*
X119422958Y-62401225D01*
X119640638Y-62549636D01*
X119878001Y-62663944D01*
X119878002Y-62663944D01*
X119878005Y-62663946D01*
X120129758Y-62741602D01*
X120129759Y-62741602D01*
X120129762Y-62741603D01*
X120390265Y-62780867D01*
X120390270Y-62780867D01*
X120390273Y-62780868D01*
X120390274Y-62780868D01*
X120653730Y-62780868D01*
X120653731Y-62780868D01*
X120653738Y-62780867D01*
X120914241Y-62741603D01*
X120914242Y-62741602D01*
X120914246Y-62741602D01*
X121165999Y-62663946D01*
X121403367Y-62549636D01*
X121621046Y-62401225D01*
X121814174Y-62222028D01*
X121868584Y-62153800D01*
X151460200Y-62153800D01*
X152069800Y-62153800D01*
X152730200Y-62153800D01*
X153339800Y-62153800D01*
X154000200Y-62153800D01*
X154609800Y-62153800D01*
X156540200Y-62153800D01*
X157149800Y-62153800D01*
X157810200Y-62153800D01*
X158419800Y-62153800D01*
X159080200Y-62153800D01*
X159689800Y-62153800D01*
X159689800Y-60172600D01*
X159080200Y-60172600D01*
X159080200Y-62153800D01*
X158419800Y-62153800D01*
X158419800Y-60172600D01*
X157810200Y-60172600D01*
X157810200Y-62153800D01*
X157149800Y-62153800D01*
X157149800Y-60172600D01*
X156540200Y-60172600D01*
X156540200Y-62153800D01*
X154609800Y-62153800D01*
X154609800Y-60172600D01*
X154000200Y-60172600D01*
X154000200Y-62153800D01*
X153339800Y-62153800D01*
X153339800Y-60172600D01*
X152730200Y-60172600D01*
X152730200Y-62153800D01*
X152069800Y-62153800D01*
X152069800Y-60172600D01*
X151460200Y-60172600D01*
X151460200Y-62153800D01*
X121868584Y-62153800D01*
X121978437Y-62016049D01*
X122110166Y-61787887D01*
X122206418Y-61542641D01*
X122265043Y-61285789D01*
X122265044Y-61285779D01*
X122284731Y-61023072D01*
X122284731Y-61023063D01*
X122265044Y-60760356D01*
X122265043Y-60760351D01*
X122265043Y-60760347D01*
X122206418Y-60503495D01*
X122110166Y-60258249D01*
X122075381Y-60198000D01*
X148700540Y-60198000D01*
X148720326Y-60386256D01*
X148720327Y-60386259D01*
X148778818Y-60566277D01*
X148778821Y-60566284D01*
X148873467Y-60730216D01*
X149000129Y-60870888D01*
X149153265Y-60982148D01*
X149153270Y-60982151D01*
X149326192Y-61059142D01*
X149326197Y-61059144D01*
X149511354Y-61098500D01*
X149511355Y-61098500D01*
X149700644Y-61098500D01*
X149700646Y-61098500D01*
X149885803Y-61059144D01*
X150058730Y-60982151D01*
X150211871Y-60870888D01*
X150338533Y-60730216D01*
X150433179Y-60566284D01*
X150491674Y-60386256D01*
X150511460Y-60198000D01*
X150491674Y-60009744D01*
X150491568Y-60009417D01*
X150491463Y-60008755D01*
X150490322Y-60003386D01*
X150490603Y-60003326D01*
X150485500Y-59971103D01*
X150485500Y-58590548D01*
X174180637Y-58590548D01*
X174180637Y-58795251D01*
X174212659Y-58997434D01*
X174275918Y-59192123D01*
X174313188Y-59265268D01*
X174363594Y-59364195D01*
X174368852Y-59374513D01*
X174489165Y-59540113D01*
X174633923Y-59684871D01*
X174788886Y-59797456D01*
X174799527Y-59805187D01*
X174874330Y-59843301D01*
X174981913Y-59898118D01*
X174981915Y-59898118D01*
X174981918Y-59898120D01*
X175086274Y-59932027D01*
X175176602Y-59961377D01*
X175277694Y-59977388D01*
X175378785Y-59993400D01*
X175378786Y-59993400D01*
X177683488Y-59993400D01*
X177683489Y-59993400D01*
X177885671Y-59961377D01*
X178080356Y-59898120D01*
X178262747Y-59805187D01*
X178355727Y-59737632D01*
X178428350Y-59684871D01*
X178428352Y-59684868D01*
X178428356Y-59684866D01*
X178573103Y-59540119D01*
X178573105Y-59540115D01*
X178573108Y-59540113D01*
X178625869Y-59467490D01*
X178693424Y-59374510D01*
X178786357Y-59192119D01*
X178849614Y-58997434D01*
X178881637Y-58795252D01*
X178881637Y-58590548D01*
X178849614Y-58388366D01*
X178844219Y-58371763D01*
X178786355Y-58193676D01*
X178752640Y-58127507D01*
X178693424Y-58011290D01*
X178667557Y-57975687D01*
X178573108Y-57845686D01*
X178428350Y-57700928D01*
X178262750Y-57580615D01*
X178262749Y-57580614D01*
X178262747Y-57580613D01*
X178205790Y-57551591D01*
X178080360Y-57487681D01*
X177885671Y-57424422D01*
X177711132Y-57396778D01*
X177683489Y-57392400D01*
X175378785Y-57392400D01*
X175354466Y-57396251D01*
X175176602Y-57424422D01*
X174981913Y-57487681D01*
X174799523Y-57580615D01*
X174633923Y-57700928D01*
X174489165Y-57845686D01*
X174368852Y-58011286D01*
X174275918Y-58193676D01*
X174212659Y-58388365D01*
X174180637Y-58590548D01*
X150485500Y-58590548D01*
X150485500Y-57975687D01*
X150505185Y-57908648D01*
X150517350Y-57892715D01*
X150535891Y-57872122D01*
X150592533Y-57809216D01*
X150687179Y-57645284D01*
X150745674Y-57465256D01*
X150765460Y-57277000D01*
X150757451Y-57200800D01*
X151460200Y-57200800D01*
X152069800Y-57200800D01*
X152730200Y-57200800D01*
X153339800Y-57200800D01*
X154000200Y-57200800D01*
X154609800Y-57200800D01*
X156540200Y-57200800D01*
X157149800Y-57200800D01*
X157810200Y-57200800D01*
X158419800Y-57200800D01*
X159080200Y-57200800D01*
X159689800Y-57200800D01*
X159689800Y-55219600D01*
X159080200Y-55219600D01*
X159080200Y-57200800D01*
X158419800Y-57200800D01*
X158419800Y-55219600D01*
X157810200Y-55219600D01*
X157810200Y-57200800D01*
X157149800Y-57200800D01*
X157149800Y-55219600D01*
X156540200Y-55219600D01*
X156540200Y-57200800D01*
X154609800Y-57200800D01*
X154609800Y-55219600D01*
X154000200Y-55219600D01*
X154000200Y-57200800D01*
X153339800Y-57200800D01*
X153339800Y-55219600D01*
X152730200Y-55219600D01*
X152730200Y-57200800D01*
X152069800Y-57200800D01*
X152069800Y-55219600D01*
X151460200Y-55219600D01*
X151460200Y-57200800D01*
X150757451Y-57200800D01*
X150745674Y-57088744D01*
X150687179Y-56908716D01*
X150592533Y-56744784D01*
X150465871Y-56604112D01*
X150465870Y-56604111D01*
X150312734Y-56492851D01*
X150312729Y-56492848D01*
X150139807Y-56415857D01*
X150139802Y-56415855D01*
X149994001Y-56384865D01*
X149954646Y-56376500D01*
X149765354Y-56376500D01*
X149732897Y-56383398D01*
X149580197Y-56415855D01*
X149580192Y-56415857D01*
X149407270Y-56492848D01*
X149407265Y-56492851D01*
X149254129Y-56604111D01*
X149127466Y-56744785D01*
X149032821Y-56908715D01*
X149032818Y-56908722D01*
X148984534Y-57057326D01*
X148974326Y-57088744D01*
X148954540Y-57277000D01*
X148974326Y-57465256D01*
X148974327Y-57465259D01*
X149032818Y-57645277D01*
X149032821Y-57645284D01*
X149127467Y-57809216D01*
X149160301Y-57845681D01*
X149202650Y-57892715D01*
X149232880Y-57955706D01*
X149234500Y-57975687D01*
X149234500Y-59297156D01*
X149214815Y-59364195D01*
X149162011Y-59409950D01*
X149160939Y-59410434D01*
X149153268Y-59413849D01*
X149000129Y-59525111D01*
X148873466Y-59665785D01*
X148778821Y-59829715D01*
X148778818Y-59829722D01*
X148722411Y-60003326D01*
X148720326Y-60009744D01*
X148700540Y-60198000D01*
X122075381Y-60198000D01*
X121978437Y-60030087D01*
X121814174Y-59824108D01*
X121814173Y-59824107D01*
X121814170Y-59824103D01*
X121621046Y-59644911D01*
X121467344Y-59540119D01*
X121403367Y-59496500D01*
X121403363Y-59496498D01*
X121403360Y-59496496D01*
X121403359Y-59496495D01*
X121166001Y-59382191D01*
X121166003Y-59382191D01*
X120914247Y-59304534D01*
X120914241Y-59304532D01*
X120653738Y-59265268D01*
X120653731Y-59265268D01*
X120390273Y-59265268D01*
X120390265Y-59265268D01*
X120129762Y-59304532D01*
X120129756Y-59304534D01*
X119878001Y-59382191D01*
X119640646Y-59496495D01*
X119640637Y-59496500D01*
X119422960Y-59644909D01*
X119229833Y-59824103D01*
X119065567Y-60030087D01*
X118933838Y-60258248D01*
X118837588Y-60503489D01*
X118837582Y-60503508D01*
X118778960Y-60760351D01*
X118778959Y-60760356D01*
X118759273Y-61023063D01*
X106284727Y-61023063D01*
X106265040Y-60760356D01*
X106265039Y-60760351D01*
X106265039Y-60760347D01*
X106206414Y-60503495D01*
X106110162Y-60258249D01*
X105978433Y-60030087D01*
X105814170Y-59824108D01*
X105814169Y-59824107D01*
X105814166Y-59824103D01*
X105621042Y-59644911D01*
X105467340Y-59540119D01*
X105403363Y-59496500D01*
X105403359Y-59496498D01*
X105403356Y-59496496D01*
X105403355Y-59496495D01*
X105165997Y-59382191D01*
X105165999Y-59382191D01*
X104914243Y-59304534D01*
X104914237Y-59304532D01*
X104653734Y-59265268D01*
X104653727Y-59265268D01*
X104390269Y-59265268D01*
X104390261Y-59265268D01*
X104129758Y-59304532D01*
X104129752Y-59304534D01*
X103877997Y-59382191D01*
X103640642Y-59496495D01*
X103640633Y-59496500D01*
X103422956Y-59644909D01*
X103229829Y-59824103D01*
X103065563Y-60030087D01*
X102933834Y-60258248D01*
X102837584Y-60503489D01*
X102837578Y-60503508D01*
X102778956Y-60760351D01*
X102778955Y-60760356D01*
X102759269Y-61023063D01*
X36722500Y-61023063D01*
X36722500Y-59153981D01*
X54609500Y-59153981D01*
X54609500Y-59333970D01*
X54637657Y-59511747D01*
X54693275Y-59682925D01*
X54693276Y-59682928D01*
X54755569Y-59805184D01*
X54774991Y-59843301D01*
X54880787Y-59988916D01*
X55008060Y-60116189D01*
X55153675Y-60221985D01*
X55224845Y-60258248D01*
X55314047Y-60303699D01*
X55314050Y-60303700D01*
X55399639Y-60331509D01*
X55485230Y-60359319D01*
X55663005Y-60387476D01*
X55663006Y-60387476D01*
X55842994Y-60387476D01*
X55842995Y-60387476D01*
X56020770Y-60359319D01*
X56191952Y-60303699D01*
X56352325Y-60221985D01*
X56497940Y-60116189D01*
X56625213Y-59988916D01*
X56731009Y-59843301D01*
X56812723Y-59682928D01*
X56868343Y-59511746D01*
X56896500Y-59333971D01*
X56896500Y-59153981D01*
X56868343Y-58976206D01*
X56812723Y-58805024D01*
X56812723Y-58805023D01*
X56731008Y-58644650D01*
X56625213Y-58499036D01*
X56497940Y-58371763D01*
X56352325Y-58265967D01*
X56191952Y-58184252D01*
X56191949Y-58184251D01*
X56020771Y-58128633D01*
X55931882Y-58114554D01*
X55842995Y-58100476D01*
X55663005Y-58100476D01*
X55603746Y-58109861D01*
X55485228Y-58128633D01*
X55314050Y-58184251D01*
X55314047Y-58184252D01*
X55153674Y-58265967D01*
X55070595Y-58326328D01*
X55008060Y-58371763D01*
X55008058Y-58371765D01*
X55008057Y-58371765D01*
X54880789Y-58499033D01*
X54880789Y-58499034D01*
X54880787Y-58499036D01*
X54835352Y-58561571D01*
X54774991Y-58644650D01*
X54693276Y-58805023D01*
X54693275Y-58805026D01*
X54637657Y-58976204D01*
X54609500Y-59153981D01*
X36722500Y-59153981D01*
X36722500Y-56243995D01*
X52527685Y-56243995D01*
X52527685Y-56243998D01*
X52546907Y-56463711D01*
X52546909Y-56463721D01*
X52603990Y-56676752D01*
X52603995Y-56676766D01*
X52697203Y-56876651D01*
X52697207Y-56876659D01*
X52823712Y-57057327D01*
X52979669Y-57213284D01*
X53160337Y-57339789D01*
X53160339Y-57339790D01*
X53160342Y-57339792D01*
X53273161Y-57392400D01*
X53360230Y-57433001D01*
X53360232Y-57433001D01*
X53360237Y-57433004D01*
X53573280Y-57490089D01*
X53730222Y-57503819D01*
X53792998Y-57509312D01*
X53793000Y-57509312D01*
X53793002Y-57509312D01*
X53847930Y-57504506D01*
X54012720Y-57490089D01*
X54225763Y-57433004D01*
X54425658Y-57339792D01*
X54606329Y-57213285D01*
X54762288Y-57057326D01*
X54888795Y-56876655D01*
X54982007Y-56676760D01*
X55039092Y-56463717D01*
X55058315Y-56243997D01*
X55039092Y-56024277D01*
X54982007Y-55811234D01*
X54888795Y-55611340D01*
X54762288Y-55430668D01*
X54762286Y-55430665D01*
X54606330Y-55274709D01*
X54425662Y-55148204D01*
X54425654Y-55148200D01*
X54225769Y-55054992D01*
X54225755Y-55054987D01*
X54012724Y-54997906D01*
X54012722Y-54997905D01*
X54012720Y-54997905D01*
X54012718Y-54997904D01*
X54012714Y-54997904D01*
X53793002Y-54978682D01*
X53792998Y-54978682D01*
X53573285Y-54997904D01*
X53573275Y-54997906D01*
X53360244Y-55054987D01*
X53360235Y-55054991D01*
X53160344Y-55148201D01*
X53160342Y-55148202D01*
X52979668Y-55274710D01*
X52823713Y-55430665D01*
X52697205Y-55611339D01*
X52697204Y-55611341D01*
X52603994Y-55811232D01*
X52603990Y-55811241D01*
X52546909Y-56024272D01*
X52546907Y-56024282D01*
X52527685Y-56243995D01*
X36722500Y-56243995D01*
X36722500Y-54863997D01*
X68340723Y-54863997D01*
X68340723Y-54864002D01*
X68359793Y-55081975D01*
X68359793Y-55081979D01*
X68416422Y-55293322D01*
X68416424Y-55293326D01*
X68416425Y-55293330D01*
X68462661Y-55392484D01*
X68508897Y-55491638D01*
X68508898Y-55491639D01*
X68634402Y-55670877D01*
X68789123Y-55825598D01*
X68968361Y-55951102D01*
X69166670Y-56043575D01*
X69378023Y-56100207D01*
X69560926Y-56116208D01*
X69595998Y-56119277D01*
X69596000Y-56119277D01*
X69596002Y-56119277D01*
X69624254Y-56116805D01*
X69813977Y-56100207D01*
X70025330Y-56043575D01*
X70223639Y-55951102D01*
X70402877Y-55825598D01*
X70557598Y-55670877D01*
X70683102Y-55491639D01*
X70775575Y-55293330D01*
X70832207Y-55081977D01*
X70851277Y-54864000D01*
X70832207Y-54646023D01*
X70775575Y-54434670D01*
X70683102Y-54236362D01*
X70683100Y-54236359D01*
X70683099Y-54236357D01*
X70557599Y-54057124D01*
X70511645Y-54011170D01*
X70402877Y-53902402D01*
X70223639Y-53776898D01*
X70223640Y-53776898D01*
X70223638Y-53776897D01*
X70099997Y-53719243D01*
X70025330Y-53684425D01*
X70025326Y-53684424D01*
X70025322Y-53684422D01*
X69813977Y-53627793D01*
X69596002Y-53608723D01*
X69595998Y-53608723D01*
X69450682Y-53621436D01*
X69378023Y-53627793D01*
X69378020Y-53627793D01*
X69166677Y-53684422D01*
X69166668Y-53684426D01*
X68968361Y-53776898D01*
X68968357Y-53776900D01*
X68789121Y-53902402D01*
X68634402Y-54057121D01*
X68508900Y-54236357D01*
X68508898Y-54236361D01*
X68416426Y-54434668D01*
X68416422Y-54434677D01*
X68359793Y-54646020D01*
X68359793Y-54646024D01*
X68340723Y-54863997D01*
X36722500Y-54863997D01*
X36722500Y-53243996D01*
X52528187Y-53243996D01*
X52528187Y-53243999D01*
X52547401Y-53463624D01*
X52547402Y-53463632D01*
X52604463Y-53676585D01*
X52604466Y-53676591D01*
X52697638Y-53876400D01*
X52742694Y-53940748D01*
X53301871Y-53381572D01*
X53317755Y-53440851D01*
X53384898Y-53557145D01*
X53479853Y-53652100D01*
X53596147Y-53719243D01*
X53655424Y-53735126D01*
X53096247Y-54294302D01*
X53160593Y-54339357D01*
X53360406Y-54432531D01*
X53360412Y-54432534D01*
X53573365Y-54489595D01*
X53573373Y-54489596D01*
X53792998Y-54508811D01*
X53793002Y-54508811D01*
X54012626Y-54489596D01*
X54012634Y-54489595D01*
X54225587Y-54432534D01*
X54225598Y-54432530D01*
X54425402Y-54339360D01*
X54425410Y-54339356D01*
X54489751Y-54294303D01*
X54489751Y-54294302D01*
X53930575Y-53735125D01*
X53989853Y-53719243D01*
X54106147Y-53652100D01*
X54201102Y-53557145D01*
X54268245Y-53440851D01*
X54284128Y-53381573D01*
X54843304Y-53940749D01*
X54843305Y-53940749D01*
X54888358Y-53876408D01*
X54888362Y-53876400D01*
X54981532Y-53676596D01*
X54981536Y-53676585D01*
X55038597Y-53463632D01*
X55038598Y-53463624D01*
X55057813Y-53243999D01*
X55057813Y-53243996D01*
X55038598Y-53024371D01*
X55038597Y-53024364D01*
X54992679Y-52853000D01*
X106317863Y-52853000D01*
X106317863Y-52853001D01*
X106338365Y-53074260D01*
X106338366Y-53074262D01*
X106399174Y-53287980D01*
X106399180Y-53287995D01*
X106498222Y-53486897D01*
X106632133Y-53664225D01*
X106796344Y-53813922D01*
X106796346Y-53813924D01*
X106985266Y-53930898D01*
X106985272Y-53930901D01*
X107010690Y-53940748D01*
X107192472Y-54011171D01*
X107410896Y-54052001D01*
X107410899Y-54052001D01*
X107633101Y-54052001D01*
X107633104Y-54052001D01*
X107851528Y-54011171D01*
X108058730Y-53930900D01*
X108247655Y-53813923D01*
X108389711Y-53684422D01*
X108411866Y-53664225D01*
X108411868Y-53664223D01*
X108545778Y-53486897D01*
X108644824Y-53287985D01*
X108652734Y-53260183D01*
X108690013Y-53201090D01*
X108753323Y-53171533D01*
X108822562Y-53180895D01*
X108875749Y-53226205D01*
X108891266Y-53260184D01*
X108899174Y-53287980D01*
X108899180Y-53287995D01*
X108998222Y-53486897D01*
X109132133Y-53664225D01*
X109296344Y-53813922D01*
X109296346Y-53813924D01*
X109485266Y-53930898D01*
X109485272Y-53930901D01*
X109510690Y-53940748D01*
X109692472Y-54011171D01*
X109910896Y-54052001D01*
X109910899Y-54052001D01*
X110133101Y-54052001D01*
X110133104Y-54052001D01*
X110351528Y-54011171D01*
X110558730Y-53930900D01*
X110747655Y-53813923D01*
X110889711Y-53684422D01*
X110911866Y-53664225D01*
X110911868Y-53664223D01*
X111045778Y-53486897D01*
X111144824Y-53287985D01*
X111152734Y-53260183D01*
X111190013Y-53201090D01*
X111253323Y-53171533D01*
X111322562Y-53180895D01*
X111375749Y-53226205D01*
X111391266Y-53260184D01*
X111399174Y-53287980D01*
X111399180Y-53287995D01*
X111498222Y-53486897D01*
X111632133Y-53664225D01*
X111796344Y-53813922D01*
X111796346Y-53813924D01*
X111985266Y-53930898D01*
X111985272Y-53930901D01*
X112010690Y-53940748D01*
X112192472Y-54011171D01*
X112410896Y-54052001D01*
X112410899Y-54052001D01*
X112633101Y-54052001D01*
X112633104Y-54052001D01*
X112851528Y-54011171D01*
X113058730Y-53930900D01*
X113247655Y-53813923D01*
X113389711Y-53684422D01*
X113411866Y-53664225D01*
X113411868Y-53664223D01*
X113545778Y-53486897D01*
X113644824Y-53287985D01*
X113652734Y-53260183D01*
X113690013Y-53201090D01*
X113753323Y-53171533D01*
X113822562Y-53180895D01*
X113875749Y-53226205D01*
X113891266Y-53260184D01*
X113899174Y-53287980D01*
X113899180Y-53287995D01*
X113998222Y-53486897D01*
X114132133Y-53664225D01*
X114296344Y-53813922D01*
X114296346Y-53813924D01*
X114485266Y-53930898D01*
X114485272Y-53930901D01*
X114510690Y-53940748D01*
X114692472Y-54011171D01*
X114910896Y-54052001D01*
X114910899Y-54052001D01*
X115133101Y-54052001D01*
X115133104Y-54052001D01*
X115351528Y-54011171D01*
X115558730Y-53930900D01*
X115747655Y-53813923D01*
X115889711Y-53684422D01*
X115911866Y-53664225D01*
X115911868Y-53664223D01*
X116045778Y-53486897D01*
X116144824Y-53287985D01*
X116152734Y-53260183D01*
X116190013Y-53201090D01*
X116253323Y-53171533D01*
X116322562Y-53180895D01*
X116375749Y-53226205D01*
X116391266Y-53260184D01*
X116399174Y-53287980D01*
X116399180Y-53287995D01*
X116498222Y-53486897D01*
X116632133Y-53664225D01*
X116796344Y-53813922D01*
X116796346Y-53813924D01*
X116985266Y-53930898D01*
X116985272Y-53930901D01*
X117010690Y-53940748D01*
X117192472Y-54011171D01*
X117410896Y-54052001D01*
X117410899Y-54052001D01*
X117633101Y-54052001D01*
X117633104Y-54052001D01*
X117851528Y-54011171D01*
X118058730Y-53930900D01*
X118247655Y-53813923D01*
X118389711Y-53684422D01*
X118411866Y-53664225D01*
X118411868Y-53664223D01*
X118545778Y-53486897D01*
X118644824Y-53287985D01*
X118705634Y-53074261D01*
X118726137Y-52853001D01*
X118705634Y-52631741D01*
X118644824Y-52418017D01*
X118545778Y-52219105D01*
X118433181Y-52070002D01*
X118433177Y-52069997D01*
X169559723Y-52069997D01*
X169559723Y-52070002D01*
X169578793Y-52287975D01*
X169578793Y-52287979D01*
X169635422Y-52499322D01*
X169635424Y-52499326D01*
X169635425Y-52499330D01*
X169647445Y-52525106D01*
X169727897Y-52697638D01*
X169727898Y-52697639D01*
X169853402Y-52876877D01*
X170008123Y-53031598D01*
X170187361Y-53157102D01*
X170385670Y-53249575D01*
X170597023Y-53306207D01*
X170779926Y-53322208D01*
X170814998Y-53325277D01*
X170815000Y-53325277D01*
X170815002Y-53325277D01*
X170843254Y-53322805D01*
X171032977Y-53306207D01*
X171244330Y-53249575D01*
X171442639Y-53157102D01*
X171621877Y-53031598D01*
X171776598Y-52876877D01*
X171902102Y-52697639D01*
X171994575Y-52499330D01*
X172051207Y-52287977D01*
X172070277Y-52070000D01*
X172051207Y-51852023D01*
X171994575Y-51640670D01*
X171902102Y-51442362D01*
X171902100Y-51442359D01*
X171902099Y-51442357D01*
X171776599Y-51263124D01*
X171759802Y-51246327D01*
X171621877Y-51108402D01*
X171442639Y-50982898D01*
X171442640Y-50982898D01*
X171442638Y-50982897D01*
X171343484Y-50936661D01*
X171244330Y-50890425D01*
X171244326Y-50890424D01*
X171244322Y-50890422D01*
X171032977Y-50833793D01*
X170815002Y-50814723D01*
X170814998Y-50814723D01*
X170669682Y-50827436D01*
X170597023Y-50833793D01*
X170597020Y-50833793D01*
X170385677Y-50890422D01*
X170385668Y-50890426D01*
X170187361Y-50982898D01*
X170187357Y-50982900D01*
X170008121Y-51108402D01*
X169853402Y-51263121D01*
X169727900Y-51442357D01*
X169727898Y-51442361D01*
X169635426Y-51640668D01*
X169635422Y-51640677D01*
X169578793Y-51852020D01*
X169578793Y-51852024D01*
X169559723Y-52069997D01*
X118433177Y-52069997D01*
X118411866Y-52041776D01*
X118247655Y-51892079D01*
X118247653Y-51892077D01*
X118058733Y-51775103D01*
X118058727Y-51775100D01*
X117951080Y-51733398D01*
X117851528Y-51694831D01*
X117633104Y-51654001D01*
X117410896Y-51654001D01*
X117192472Y-51694831D01*
X117142695Y-51714114D01*
X116985272Y-51775100D01*
X116985266Y-51775103D01*
X116796346Y-51892077D01*
X116796344Y-51892079D01*
X116632133Y-52041776D01*
X116498222Y-52219104D01*
X116399180Y-52418006D01*
X116399175Y-52418019D01*
X116391266Y-52445818D01*
X116353986Y-52504911D01*
X116290676Y-52534468D01*
X116221437Y-52525106D01*
X116168251Y-52479795D01*
X116152734Y-52445818D01*
X116144825Y-52418021D01*
X116144824Y-52418017D01*
X116045778Y-52219105D01*
X115933181Y-52070002D01*
X115911866Y-52041776D01*
X115747655Y-51892079D01*
X115747653Y-51892077D01*
X115558733Y-51775103D01*
X115558727Y-51775100D01*
X115451080Y-51733398D01*
X115351528Y-51694831D01*
X115133104Y-51654001D01*
X114910896Y-51654001D01*
X114692472Y-51694831D01*
X114642695Y-51714114D01*
X114485272Y-51775100D01*
X114485266Y-51775103D01*
X114296346Y-51892077D01*
X114296344Y-51892079D01*
X114132133Y-52041776D01*
X113998222Y-52219104D01*
X113899180Y-52418006D01*
X113899175Y-52418019D01*
X113891266Y-52445818D01*
X113853986Y-52504911D01*
X113790676Y-52534468D01*
X113721437Y-52525106D01*
X113668251Y-52479795D01*
X113652734Y-52445818D01*
X113644825Y-52418021D01*
X113644824Y-52418017D01*
X113545778Y-52219105D01*
X113433181Y-52070002D01*
X113411866Y-52041776D01*
X113247655Y-51892079D01*
X113247653Y-51892077D01*
X113058733Y-51775103D01*
X113058727Y-51775100D01*
X112951080Y-51733398D01*
X112851528Y-51694831D01*
X112633104Y-51654001D01*
X112410896Y-51654001D01*
X112192472Y-51694831D01*
X112142695Y-51714114D01*
X111985272Y-51775100D01*
X111985266Y-51775103D01*
X111796346Y-51892077D01*
X111796344Y-51892079D01*
X111632133Y-52041776D01*
X111498222Y-52219104D01*
X111399180Y-52418006D01*
X111399175Y-52418019D01*
X111391266Y-52445818D01*
X111353986Y-52504911D01*
X111290676Y-52534468D01*
X111221437Y-52525106D01*
X111168251Y-52479795D01*
X111152734Y-52445818D01*
X111144825Y-52418021D01*
X111144824Y-52418017D01*
X111045778Y-52219105D01*
X110933181Y-52070002D01*
X110911866Y-52041776D01*
X110747655Y-51892079D01*
X110747653Y-51892077D01*
X110558733Y-51775103D01*
X110558727Y-51775100D01*
X110451080Y-51733398D01*
X110351528Y-51694831D01*
X110133104Y-51654001D01*
X109910896Y-51654001D01*
X109692472Y-51694831D01*
X109642695Y-51714114D01*
X109485272Y-51775100D01*
X109485266Y-51775103D01*
X109296346Y-51892077D01*
X109296344Y-51892079D01*
X109132133Y-52041776D01*
X108998222Y-52219104D01*
X108899180Y-52418006D01*
X108899175Y-52418019D01*
X108891266Y-52445818D01*
X108853986Y-52504911D01*
X108790676Y-52534468D01*
X108721437Y-52525106D01*
X108668251Y-52479795D01*
X108652734Y-52445818D01*
X108644825Y-52418021D01*
X108644824Y-52418017D01*
X108545778Y-52219105D01*
X108433181Y-52070002D01*
X108411866Y-52041776D01*
X108247655Y-51892079D01*
X108247653Y-51892077D01*
X108058733Y-51775103D01*
X108058727Y-51775100D01*
X107951080Y-51733398D01*
X107851528Y-51694831D01*
X107633104Y-51654001D01*
X107410896Y-51654001D01*
X107192472Y-51694831D01*
X107142695Y-51714114D01*
X106985272Y-51775100D01*
X106985266Y-51775103D01*
X106796346Y-51892077D01*
X106796344Y-51892079D01*
X106632133Y-52041776D01*
X106498222Y-52219104D01*
X106399180Y-52418006D01*
X106399174Y-52418021D01*
X106338366Y-52631739D01*
X106338365Y-52631741D01*
X106317863Y-52853000D01*
X54992679Y-52853000D01*
X54981533Y-52811402D01*
X54888360Y-52611593D01*
X54888359Y-52611591D01*
X54843304Y-52547246D01*
X54843304Y-52547245D01*
X54284127Y-53106421D01*
X54268245Y-53047145D01*
X54201102Y-52930851D01*
X54106147Y-52835896D01*
X53989853Y-52768753D01*
X53930574Y-52752869D01*
X54489751Y-52193692D01*
X54425402Y-52148636D01*
X54225593Y-52055464D01*
X54225587Y-52055461D01*
X54012634Y-51998400D01*
X54012626Y-51998399D01*
X53793002Y-51979185D01*
X53792998Y-51979185D01*
X53573373Y-51998399D01*
X53573366Y-51998400D01*
X53360404Y-52055464D01*
X53160594Y-52148638D01*
X53096248Y-52193692D01*
X53655425Y-52752869D01*
X53596147Y-52768753D01*
X53479853Y-52835896D01*
X53384898Y-52930851D01*
X53317755Y-53047145D01*
X53301871Y-53106423D01*
X52742694Y-52547246D01*
X52697640Y-52611592D01*
X52604466Y-52811402D01*
X52547402Y-53024364D01*
X52547401Y-53024371D01*
X52528187Y-53243996D01*
X36722500Y-53243996D01*
X36722500Y-49436134D01*
X52532500Y-49436134D01*
X52532500Y-51051869D01*
X52532501Y-51051875D01*
X52538908Y-51111482D01*
X52589202Y-51246327D01*
X52589206Y-51246334D01*
X52675452Y-51361543D01*
X52675455Y-51361546D01*
X52790664Y-51447792D01*
X52790671Y-51447796D01*
X52925517Y-51498090D01*
X52925516Y-51498090D01*
X52932444Y-51498834D01*
X52985127Y-51504499D01*
X54600872Y-51504498D01*
X54660483Y-51498090D01*
X54795331Y-51447795D01*
X54910546Y-51361545D01*
X54996796Y-51246330D01*
X55047091Y-51111482D01*
X55053500Y-51051872D01*
X55053499Y-49436127D01*
X55047091Y-49376516D01*
X55027627Y-49324331D01*
X55009600Y-49275997D01*
X78500723Y-49275997D01*
X78500723Y-49276002D01*
X78504951Y-49324330D01*
X78514731Y-49436122D01*
X78519793Y-49493975D01*
X78519793Y-49493979D01*
X78576422Y-49705322D01*
X78576424Y-49705326D01*
X78576425Y-49705330D01*
X78622661Y-49804484D01*
X78668897Y-49903638D01*
X78668898Y-49903639D01*
X78794402Y-50082877D01*
X78949123Y-50237598D01*
X79128361Y-50363102D01*
X79326670Y-50455575D01*
X79538023Y-50512207D01*
X79720926Y-50528208D01*
X79755998Y-50531277D01*
X79756000Y-50531277D01*
X79756002Y-50531277D01*
X79784254Y-50528805D01*
X79973977Y-50512207D01*
X80185330Y-50455575D01*
X80383639Y-50363102D01*
X80562877Y-50237598D01*
X80717598Y-50082877D01*
X80843102Y-49903639D01*
X80935575Y-49705330D01*
X80992207Y-49493977D01*
X81011277Y-49276000D01*
X80992207Y-49058023D01*
X80948525Y-48895000D01*
X144413723Y-48895000D01*
X144426426Y-49040205D01*
X144432793Y-49112975D01*
X144432793Y-49112979D01*
X144489422Y-49324322D01*
X144489424Y-49324326D01*
X144489425Y-49324330D01*
X144513760Y-49376516D01*
X144581897Y-49522638D01*
X144581898Y-49522639D01*
X144707402Y-49701877D01*
X144862123Y-49856598D01*
X145041361Y-49982102D01*
X145239670Y-50074575D01*
X145451023Y-50131207D01*
X145633926Y-50147208D01*
X145668998Y-50150277D01*
X145669000Y-50150277D01*
X145669002Y-50150277D01*
X145697254Y-50147805D01*
X145886977Y-50131207D01*
X146098330Y-50074575D01*
X146296639Y-49982102D01*
X146475877Y-49856598D01*
X146630598Y-49701877D01*
X146662023Y-49656997D01*
X161939723Y-49656997D01*
X161939723Y-49657002D01*
X161958793Y-49874975D01*
X161958793Y-49874979D01*
X162015422Y-50086322D01*
X162015424Y-50086326D01*
X162015425Y-50086330D01*
X162045244Y-50150277D01*
X162107897Y-50284638D01*
X162107898Y-50284639D01*
X162233402Y-50463877D01*
X162388123Y-50618598D01*
X162567361Y-50744102D01*
X162765670Y-50836575D01*
X162977023Y-50893207D01*
X163159926Y-50909208D01*
X163194998Y-50912277D01*
X163195000Y-50912277D01*
X163195002Y-50912277D01*
X163223254Y-50909805D01*
X163412977Y-50893207D01*
X163624330Y-50836575D01*
X163822639Y-50744102D01*
X164001877Y-50618598D01*
X164156598Y-50463877D01*
X164282102Y-50284639D01*
X164374575Y-50086330D01*
X164431207Y-49874977D01*
X164450277Y-49657000D01*
X164431207Y-49439023D01*
X164378326Y-49241668D01*
X164374577Y-49227677D01*
X164374576Y-49227676D01*
X164374575Y-49227670D01*
X164282102Y-49029362D01*
X164282100Y-49029359D01*
X164282099Y-49029357D01*
X164156599Y-48850124D01*
X164153143Y-48846668D01*
X164001877Y-48695402D01*
X163822639Y-48569898D01*
X163822640Y-48569898D01*
X163822638Y-48569897D01*
X163723484Y-48523661D01*
X163624330Y-48477425D01*
X163624326Y-48477424D01*
X163624322Y-48477422D01*
X163412977Y-48420793D01*
X163195002Y-48401723D01*
X163194998Y-48401723D01*
X163049682Y-48414436D01*
X162977023Y-48420793D01*
X162977020Y-48420793D01*
X162765677Y-48477422D01*
X162765668Y-48477426D01*
X162567361Y-48569898D01*
X162567357Y-48569900D01*
X162388121Y-48695402D01*
X162233402Y-48850121D01*
X162107900Y-49029357D01*
X162107898Y-49029361D01*
X162015426Y-49227668D01*
X162015422Y-49227677D01*
X161958793Y-49439020D01*
X161958793Y-49439024D01*
X161939723Y-49656997D01*
X146662023Y-49656997D01*
X146756102Y-49522639D01*
X146848575Y-49324330D01*
X146905207Y-49112977D01*
X146924277Y-48895000D01*
X146905207Y-48677023D01*
X146851724Y-48477422D01*
X146848577Y-48465677D01*
X146848576Y-48465676D01*
X146848575Y-48465670D01*
X146756102Y-48267362D01*
X146756100Y-48267359D01*
X146756099Y-48267357D01*
X146630599Y-48088124D01*
X146563198Y-48020723D01*
X146475877Y-47933402D01*
X146296639Y-47807898D01*
X146296640Y-47807898D01*
X146296638Y-47807897D01*
X146197484Y-47761661D01*
X146098330Y-47715425D01*
X146098326Y-47715424D01*
X146098322Y-47715422D01*
X145886977Y-47658793D01*
X145669002Y-47639723D01*
X145668998Y-47639723D01*
X145523682Y-47652436D01*
X145451023Y-47658793D01*
X145451020Y-47658793D01*
X145239677Y-47715422D01*
X145239668Y-47715426D01*
X145041361Y-47807898D01*
X145041357Y-47807900D01*
X144862121Y-47933402D01*
X144707402Y-48088121D01*
X144581900Y-48267357D01*
X144581898Y-48267361D01*
X144489426Y-48465668D01*
X144489422Y-48465677D01*
X144432793Y-48677020D01*
X144432793Y-48677024D01*
X144417951Y-48846677D01*
X144413723Y-48895000D01*
X80948525Y-48895000D01*
X80948524Y-48894997D01*
X80935577Y-48846677D01*
X80935576Y-48846676D01*
X80935575Y-48846670D01*
X80843102Y-48648362D01*
X80843100Y-48648359D01*
X80843099Y-48648357D01*
X80717599Y-48469124D01*
X80650198Y-48401723D01*
X80562877Y-48314402D01*
X80383639Y-48188898D01*
X80383640Y-48188898D01*
X80383638Y-48188897D01*
X80284484Y-48142661D01*
X80185330Y-48096425D01*
X80185326Y-48096424D01*
X80185322Y-48096422D01*
X79973977Y-48039793D01*
X79756002Y-48020723D01*
X79755998Y-48020723D01*
X79610682Y-48033436D01*
X79538023Y-48039793D01*
X79538020Y-48039793D01*
X79326677Y-48096422D01*
X79326668Y-48096426D01*
X79128361Y-48188898D01*
X79128357Y-48188900D01*
X78949121Y-48314402D01*
X78794402Y-48469121D01*
X78668900Y-48648357D01*
X78668898Y-48648361D01*
X78576426Y-48846668D01*
X78576422Y-48846677D01*
X78519793Y-49058020D01*
X78519793Y-49058024D01*
X78500723Y-49275997D01*
X55009600Y-49275997D01*
X54996797Y-49241670D01*
X54996793Y-49241663D01*
X54910547Y-49126454D01*
X54910544Y-49126451D01*
X54795335Y-49040205D01*
X54795328Y-49040201D01*
X54660482Y-48989907D01*
X54660483Y-48989907D01*
X54600883Y-48983500D01*
X54600881Y-48983499D01*
X54600873Y-48983499D01*
X54600864Y-48983499D01*
X52985129Y-48983499D01*
X52985123Y-48983500D01*
X52925516Y-48989907D01*
X52790671Y-49040201D01*
X52790664Y-49040205D01*
X52675455Y-49126451D01*
X52675452Y-49126454D01*
X52589206Y-49241663D01*
X52589202Y-49241670D01*
X52538908Y-49376516D01*
X52532501Y-49436115D01*
X52532501Y-49436122D01*
X52532500Y-49436134D01*
X36722500Y-49436134D01*
X36722500Y-47154005D01*
X54609500Y-47154005D01*
X54609500Y-47333994D01*
X54637657Y-47511771D01*
X54693275Y-47682949D01*
X54693276Y-47682952D01*
X54756940Y-47807898D01*
X54774991Y-47843325D01*
X54880787Y-47988940D01*
X55008060Y-48116213D01*
X55153675Y-48222009D01*
X55232333Y-48262087D01*
X55314047Y-48303723D01*
X55314050Y-48303724D01*
X55399639Y-48331533D01*
X55485230Y-48359343D01*
X55663005Y-48387500D01*
X55663006Y-48387500D01*
X55842994Y-48387500D01*
X55842995Y-48387500D01*
X56020770Y-48359343D01*
X56191952Y-48303723D01*
X56352325Y-48222009D01*
X56497940Y-48116213D01*
X56625213Y-47988940D01*
X56731009Y-47843325D01*
X56812723Y-47682952D01*
X56868343Y-47511770D01*
X56896500Y-47333995D01*
X56896500Y-47154005D01*
X56890638Y-47116997D01*
X93486723Y-47116997D01*
X93486723Y-47117002D01*
X93505793Y-47334975D01*
X93505793Y-47334979D01*
X93562422Y-47546322D01*
X93562424Y-47546326D01*
X93562425Y-47546330D01*
X93605975Y-47639723D01*
X93654897Y-47744638D01*
X93654898Y-47744639D01*
X93780402Y-47923877D01*
X93935123Y-48078598D01*
X94114361Y-48204102D01*
X94312670Y-48296575D01*
X94524023Y-48353207D01*
X94706926Y-48369208D01*
X94741998Y-48372277D01*
X94742000Y-48372277D01*
X94742002Y-48372277D01*
X94770254Y-48369805D01*
X94959977Y-48353207D01*
X95171330Y-48296575D01*
X95369639Y-48204102D01*
X95548877Y-48078598D01*
X95703598Y-47923877D01*
X95829102Y-47744639D01*
X95921575Y-47546330D01*
X95978207Y-47334977D01*
X95997277Y-47117000D01*
X95978207Y-46899023D01*
X95921575Y-46687670D01*
X95829102Y-46489362D01*
X95829100Y-46489359D01*
X95829099Y-46489357D01*
X95703599Y-46310124D01*
X95659466Y-46265991D01*
X95548877Y-46155402D01*
X95369639Y-46029898D01*
X95369640Y-46029898D01*
X95369638Y-46029897D01*
X95270484Y-45983661D01*
X95171330Y-45937425D01*
X95171326Y-45937424D01*
X95171322Y-45937422D01*
X94959977Y-45880793D01*
X94742002Y-45861723D01*
X94741998Y-45861723D01*
X94596682Y-45874436D01*
X94524023Y-45880793D01*
X94524020Y-45880793D01*
X94312677Y-45937422D01*
X94312668Y-45937426D01*
X94114361Y-46029898D01*
X94114357Y-46029900D01*
X93935121Y-46155402D01*
X93780402Y-46310121D01*
X93654900Y-46489357D01*
X93654898Y-46489361D01*
X93562426Y-46687668D01*
X93562422Y-46687677D01*
X93505793Y-46899020D01*
X93505793Y-46899024D01*
X93486723Y-47116997D01*
X56890638Y-47116997D01*
X56868343Y-46976230D01*
X56812723Y-46805048D01*
X56812723Y-46805047D01*
X56771087Y-46723333D01*
X56731009Y-46644675D01*
X56625213Y-46499060D01*
X56497940Y-46371787D01*
X56352325Y-46265991D01*
X56191952Y-46184276D01*
X56191949Y-46184275D01*
X56020771Y-46128657D01*
X55931882Y-46114578D01*
X55842995Y-46100500D01*
X55663005Y-46100500D01*
X55603746Y-46109885D01*
X55485228Y-46128657D01*
X55314050Y-46184275D01*
X55314047Y-46184276D01*
X55153674Y-46265991D01*
X55092933Y-46310123D01*
X55008060Y-46371787D01*
X55008058Y-46371789D01*
X55008057Y-46371789D01*
X54880789Y-46499057D01*
X54880789Y-46499058D01*
X54880787Y-46499060D01*
X54835352Y-46561595D01*
X54774991Y-46644674D01*
X54693276Y-46805047D01*
X54693275Y-46805050D01*
X54637657Y-46976228D01*
X54609500Y-47154005D01*
X36722500Y-47154005D01*
X36722500Y-43179993D01*
X77207700Y-43179993D01*
X77207700Y-43180006D01*
X77226864Y-43411297D01*
X77226866Y-43411308D01*
X77283842Y-43636300D01*
X77377075Y-43848848D01*
X77504016Y-44043147D01*
X77504019Y-44043151D01*
X77504021Y-44043153D01*
X77661216Y-44213913D01*
X77661219Y-44213915D01*
X77661222Y-44213918D01*
X77844365Y-44356464D01*
X77844371Y-44356468D01*
X77844374Y-44356470D01*
X78048497Y-44466936D01*
X78162487Y-44506068D01*
X78268015Y-44542297D01*
X78268017Y-44542297D01*
X78268019Y-44542298D01*
X78496951Y-44580500D01*
X78496952Y-44580500D01*
X78729048Y-44580500D01*
X78729049Y-44580500D01*
X78957981Y-44542298D01*
X79177503Y-44466936D01*
X79381626Y-44356470D01*
X79564784Y-44213913D01*
X79573511Y-44204432D01*
X79633394Y-44168441D01*
X79703232Y-44170538D01*
X79760850Y-44210060D01*
X79780924Y-44245080D01*
X79809645Y-44322086D01*
X79809649Y-44322093D01*
X79895809Y-44437187D01*
X79895812Y-44437190D01*
X80010906Y-44523350D01*
X80010913Y-44523354D01*
X80145620Y-44573596D01*
X80145627Y-44573598D01*
X80205155Y-44579999D01*
X80205172Y-44580000D01*
X80903000Y-44580000D01*
X80903000Y-43555277D01*
X80979306Y-43599333D01*
X81093756Y-43630000D01*
X81212244Y-43630000D01*
X81326694Y-43599333D01*
X81403000Y-43555277D01*
X81403000Y-44580000D01*
X82100828Y-44580000D01*
X82100844Y-44579999D01*
X82160372Y-44573598D01*
X82160379Y-44573596D01*
X82295086Y-44523354D01*
X82295093Y-44523350D01*
X82410187Y-44437190D01*
X82410190Y-44437187D01*
X82496350Y-44322093D01*
X82496354Y-44322086D01*
X82546596Y-44187379D01*
X82546598Y-44187372D01*
X82552999Y-44127844D01*
X82553000Y-44127827D01*
X82553000Y-43430000D01*
X81528278Y-43430000D01*
X81572333Y-43353694D01*
X81603000Y-43239244D01*
X81603000Y-43120756D01*
X81572333Y-43006306D01*
X81528278Y-42930000D01*
X82553000Y-42930000D01*
X82553000Y-42232172D01*
X82552999Y-42232155D01*
X82546598Y-42172627D01*
X82546596Y-42172620D01*
X82496354Y-42037913D01*
X82496350Y-42037906D01*
X82410190Y-41922812D01*
X82410187Y-41922809D01*
X82295093Y-41836649D01*
X82295086Y-41836645D01*
X82160379Y-41786403D01*
X82160372Y-41786401D01*
X82100844Y-41780000D01*
X81403000Y-41780000D01*
X81403000Y-42804722D01*
X81326694Y-42760667D01*
X81212244Y-42730000D01*
X81093756Y-42730000D01*
X80979306Y-42760667D01*
X80903000Y-42804722D01*
X80903000Y-41780000D01*
X80205155Y-41780000D01*
X80145627Y-41786401D01*
X80145620Y-41786403D01*
X80010913Y-41836645D01*
X80010906Y-41836649D01*
X79895812Y-41922809D01*
X79895809Y-41922812D01*
X79809649Y-42037906D01*
X79809646Y-42037911D01*
X79780924Y-42114920D01*
X79739052Y-42170853D01*
X79673588Y-42195270D01*
X79605315Y-42180418D01*
X79573514Y-42155571D01*
X79564784Y-42146087D01*
X79564779Y-42146083D01*
X79564777Y-42146081D01*
X79381634Y-42003535D01*
X79381628Y-42003531D01*
X79177504Y-41893064D01*
X79177495Y-41893061D01*
X78957984Y-41817702D01*
X78770404Y-41786401D01*
X78729049Y-41779500D01*
X78496951Y-41779500D01*
X78455596Y-41786401D01*
X78268015Y-41817702D01*
X78048504Y-41893061D01*
X78048495Y-41893064D01*
X77844371Y-42003531D01*
X77844365Y-42003535D01*
X77661222Y-42146081D01*
X77661219Y-42146084D01*
X77661216Y-42146086D01*
X77661216Y-42146087D01*
X77636791Y-42172620D01*
X77504016Y-42316852D01*
X77377075Y-42511151D01*
X77283842Y-42723699D01*
X77226866Y-42948691D01*
X77226864Y-42948702D01*
X77207700Y-43179993D01*
X36722500Y-43179993D01*
X36722500Y-41528997D01*
X59450723Y-41528997D01*
X59450723Y-41529002D01*
X59469793Y-41746975D01*
X59469793Y-41746979D01*
X59526422Y-41958322D01*
X59526424Y-41958326D01*
X59526425Y-41958330D01*
X59563532Y-42037906D01*
X59618897Y-42156638D01*
X59618898Y-42156639D01*
X59744402Y-42335877D01*
X59899123Y-42490598D01*
X60078361Y-42616102D01*
X60276670Y-42708575D01*
X60488023Y-42765207D01*
X60670926Y-42781208D01*
X60705998Y-42784277D01*
X60706000Y-42784277D01*
X60706002Y-42784277D01*
X60734254Y-42781805D01*
X60923977Y-42765207D01*
X61135330Y-42708575D01*
X61333639Y-42616102D01*
X61512877Y-42490598D01*
X61667598Y-42335877D01*
X61793102Y-42156639D01*
X61885575Y-41958330D01*
X61942207Y-41746977D01*
X61961277Y-41529000D01*
X61961277Y-41528999D01*
X66309225Y-41528999D01*
X66309225Y-41529000D01*
X66328287Y-41746884D01*
X66328289Y-41746894D01*
X66384894Y-41958150D01*
X66384898Y-41958159D01*
X66477333Y-42156387D01*
X66520874Y-42218571D01*
X67022657Y-41716788D01*
X67031447Y-41749591D01*
X67106687Y-41879909D01*
X67213091Y-41986313D01*
X67343409Y-42061553D01*
X67376210Y-42070342D01*
X66874427Y-42572124D01*
X66936612Y-42615666D01*
X67134840Y-42708101D01*
X67134849Y-42708105D01*
X67346105Y-42764710D01*
X67346115Y-42764712D01*
X67563999Y-42783775D01*
X67564001Y-42783775D01*
X67781884Y-42764712D01*
X67781894Y-42764710D01*
X67993150Y-42708105D01*
X67993164Y-42708100D01*
X68191383Y-42615669D01*
X68191385Y-42615668D01*
X68253571Y-42572124D01*
X67751789Y-42070342D01*
X67784591Y-42061553D01*
X67914909Y-41986313D01*
X68021313Y-41879909D01*
X68096553Y-41749591D01*
X68105342Y-41716789D01*
X68607124Y-42218570D01*
X68650668Y-42156385D01*
X68650669Y-42156383D01*
X68743100Y-41958164D01*
X68743105Y-41958150D01*
X68799710Y-41746894D01*
X68799712Y-41746884D01*
X68818775Y-41529000D01*
X68818775Y-41528999D01*
X68799712Y-41311115D01*
X68799710Y-41311105D01*
X68743105Y-41099849D01*
X68743101Y-41099840D01*
X68650667Y-40901614D01*
X68650666Y-40901612D01*
X68607124Y-40839428D01*
X68607124Y-40839427D01*
X68105341Y-41341209D01*
X68096553Y-41308409D01*
X68021313Y-41178091D01*
X67914909Y-41071687D01*
X67784591Y-40996447D01*
X67751788Y-40987657D01*
X68253571Y-40485874D01*
X68191387Y-40442333D01*
X67993159Y-40349898D01*
X67993150Y-40349894D01*
X67781894Y-40293289D01*
X67781884Y-40293287D01*
X67564001Y-40274225D01*
X67563999Y-40274225D01*
X67346115Y-40293287D01*
X67346105Y-40293289D01*
X67134849Y-40349894D01*
X67134840Y-40349898D01*
X66936613Y-40442333D01*
X66874428Y-40485874D01*
X67376211Y-40987657D01*
X67343409Y-40996447D01*
X67213091Y-41071687D01*
X67106687Y-41178091D01*
X67031447Y-41308409D01*
X67022657Y-41341211D01*
X66520874Y-40839428D01*
X66477333Y-40901613D01*
X66384898Y-41099840D01*
X66384894Y-41099849D01*
X66328289Y-41311105D01*
X66328287Y-41311115D01*
X66309225Y-41528999D01*
X61961277Y-41528999D01*
X61942207Y-41311023D01*
X61885575Y-41099670D01*
X61793102Y-40901362D01*
X61793100Y-40901359D01*
X61793099Y-40901357D01*
X61667599Y-40722124D01*
X61667596Y-40722121D01*
X61512877Y-40567402D01*
X61374978Y-40470844D01*
X61333638Y-40441897D01*
X61234484Y-40395661D01*
X61135330Y-40349425D01*
X61135326Y-40349424D01*
X61135322Y-40349422D01*
X60923977Y-40292793D01*
X60706002Y-40273723D01*
X60705998Y-40273723D01*
X60560682Y-40286436D01*
X60488023Y-40292793D01*
X60488020Y-40292793D01*
X60276677Y-40349422D01*
X60276668Y-40349426D01*
X60078361Y-40441898D01*
X60078357Y-40441900D01*
X59899121Y-40567402D01*
X59744402Y-40722121D01*
X59618900Y-40901357D01*
X59618898Y-40901361D01*
X59526426Y-41099668D01*
X59526422Y-41099677D01*
X59469793Y-41311020D01*
X59469793Y-41311024D01*
X59450723Y-41528997D01*
X36722500Y-41528997D01*
X36722500Y-34042961D01*
X36723280Y-34029078D01*
X36728441Y-33983273D01*
X36736368Y-33912914D01*
X36742543Y-33885857D01*
X36778841Y-33782127D01*
X36790881Y-33757123D01*
X36849354Y-33664065D01*
X36866660Y-33642364D01*
X36944364Y-33564660D01*
X36966065Y-33547354D01*
X37059123Y-33488881D01*
X37084127Y-33476841D01*
X37187857Y-33440543D01*
X37214914Y-33434368D01*
X37320752Y-33422443D01*
X37331078Y-33421280D01*
X37344961Y-33420500D01*
X37395583Y-33420500D01*
X182314417Y-33420500D01*
X182365039Y-33420500D01*
X182378922Y-33421280D01*
G37*
%TD.AperFunction*%
%TD*%
M02*
